STARTFONT 2.3
FONT -FontForge-Hanalei-Book-R-Normal--32-320-72-72-P-162-ISO10646-1
SIZE 32 72 72  4
FONTBOUNDINGBOX 42 43 -2 -9
COMMENT "Generated by fontforge, http://fontforge.sourceforge.net"
COMMENT "Copyright (c) 2012 by Brian J. Bonislawsky DBA Astigmatic (AOETI) (astigma@astigmatic.com), with ReservedFont Name "Hanalei""
STARTPROPERTIES 40
FOUNDRY "FontForge"
FAMILY_NAME "Hanalei"
WEIGHT_NAME "Book"
SLANT "R"
SETWIDTH_NAME "Normal"
ADD_STYLE_NAME ""
PIXEL_SIZE 32
POINT_SIZE 320
RESOLUTION_X 72
RESOLUTION_Y 72
SPACING "P"
AVERAGE_WIDTH 162
CHARSET_REGISTRY "ISO10646"
CHARSET_ENCODING "1"
FONTNAME_REGISTRY ""
CHARSET_COLLECTIONS "ISO8859-2 ISO8859-9 ISO8859-4 ISO10646-1"
BITS_PER_PIXEL 4
FONT_NAME "Hanalei-Regular"
FACE_NAME "Hanalei"
COPYRIGHT "Copyright (c) 2012 by Brian J. Bonislawsky DBA Astigmatic (AOETI) (astigma@astigmatic.com), with ReservedFont Name "Hanalei""
FONT_VERSION "1.000"
FONT_ASCENT 26
FONT_DESCENT 6
UNDERLINE_POSITION -4
UNDERLINE_THICKNESS 1
X_HEIGHT 21
CAP_HEIGHT 21
RAW_ASCENT 799
RAW_DESCENT 200
NORM_SPACE 6
RELATIVE_WEIGHT 40
RELATIVE_SETWIDTH 50
SUPERSCRIPT_X 0
SUPERSCRIPT_Y 15
SUPERSCRIPT_SIZE 20
SUBSCRIPT_X 0
SUBSCRIPT_Y 4
SUBSCRIPT_SIZE 20
AVG_LOWERCASE_WIDTH 174
AVG_UPPERCASE_WIDTH 171
ENDPROPERTIES
CHARS 366
STARTCHAR space
ENCODING 32
SWIDTH 200 0
DWIDTH 6 0
BBX 1 1 0 0
BITMAP
00
ENDCHAR
STARTCHAR exclam
ENCODING 33
SWIDTH 257 0
DWIDTH 8 0
BBX 7 24 1 -1
BITMAP
00010000
3BBAC700
C1000940
92000A10
75000B00
56000B00
57001B00
66001B00
99872C00
B7443C00
93001B00
75003900
66004700
66005600
84004800
A3003A00
2ABBA200
00100000
06A94000
9612A400
74009100
6500A100
6A45B200
03651000
ENDCHAR
STARTCHAR quotedbl
ENCODING 34
SWIDTH 476 0
DWIDTH 15 0
BBX 14 14 1 10
BITMAP
04773000267500
A945A805B548C1
B0001B065000B1
830047038000B0
840056029000B0
A20038047000B0
DCBA3B08DBA6A2
C00029084000B0
A00047055000B0
A10047047000B0
B00029066000B0
C0000C09300084
C5227A079225C2
18BA60005AB810
ENDCHAR
STARTCHAR numbersign
ENCODING 35
SWIDTH 1076 0
DWIDTH 34 0
BBX 33 24 1 -1
BITMAP
0046510000001563000010000000000000
2C868CC60005C769B105CCBACEC98AD500
3900049B00084000940C10121573421C00
0C00075C00057000C01B00000280487C10
0C000A2850048000C01B00000379844B50
0C000B12B0058001B01E2145423C000390
1B000A2086076000C01DCB8B9AAC100640
5A7738532C1B7761C00B000A0008200910
8A5456D8394D7453B10B000A0008200A00
57000920058A2000C00B000A0009100A00
39000B1000D84001B00B000A252A004B00
2A000C90006D5002A029000C9BCCBBAF20
2A000BB2000B6002B03C203C0480000D10
480009770023B000C01CAC920280000A20
7CBA767C5B83CB94B10C00000350000B00
6701384B91008422C009659A977AB97900
48000B13B0003901B00086312551026100
39000C0085000A33900007741000110000
48000C001B0002B4800077479AAA9C1000
66000C000B20006AA000C0000000066000
A2000930075000B3C000C0000000047000
C200095005A35B61D10094012210084000
2BBAC8000069ECBC40001BB9889AAA0000
0012000000000110000000000000000000
ENDCHAR
STARTCHAR dollar
ENCODING 36
SWIDTH 453 0
DWIDTH 15 0
BBX 14 31 0 -5
BITMAP
00000012000000
000009BAC60000
000058000B2000
000038000B0000
000019000A0000
00000A00199D40
00001A359D61C1
00003EDA400058
069BA31B00001B
2B200006400159
4800000245BA83
1A000037B81000
0B404BEA300000
0CBBA11BE30000
0C3300592B5000
039B20A0008B61
0002B340000186
00001B92000057
0000006E6000A4
000018EBA618C7
048AB51C0AB61A
1C41000740004A
4800000344AB93
1A0000369C1000
0A303BA5580000
02C9BA00370000
00042900370000
00004600280000
000076001A0000
000019BBB30000
00000001000000
ENDCHAR
STARTCHAR percent
ENCODING 37
SWIDTH 889 0
DWIDTH 28 0
BBX 28 23 0 0
BITMAP
0011000000000000000000000000
02A88888A3000014300000000000
07A820001B3000B56A2000000000
1A22A1000AA20090029000000000
0900988666810180073000000000
08009009509004600A0000000000
0800900800900820190000000000
0800900800900A00360000000000
0805900800905B87450000000000
1885788900816401740000000000
3590001800637300A02741001100
1AC0000A76A1910280A257887A00
00698889BC10A00554C9910007B2
0000000011028007290037000829
000000000007B72828104A899826
0000000000090269171054044035
000000000009001A071063044045
0000000000090065071063053045
00000000003700910808B8482036
00000000009100A00955034B0018
0000000000A000A00A8200091019
00000000004A789003B601249AB2
0000000000002200000787678A20
ENDCHAR
STARTCHAR ampersand
ENCODING 38
SWIDTH 627 0
DWIDTH 20 0
BBX 20 25 0 -1
BITMAP
00000151000000000000
00001B7ABAAA61001000
00006DCA301A7ABBC200
0004C404800830004800
000C2001B0095CB53A00
00086000A733B02BA700
0000B1004B8E5001D100
000048000B590002B000
00000C0012D1002B1000
0000095BA3A100B20000
000007D2006608400000
00006CE1001B2A000000
0001B04A0008C3000000
0008500A3001C1000000
00490005A0003A002AA0
02B1003BC28B5B8BA367
3B1001B18D500950000B
C10009CBCC000390000A
C1004C69067000B2012B
AA10A10A00B1003CBA96
B5BB7008108500068000
B00000034BA900068000
75005ABBA20C005C1000
0B7B71000007CB810000
01610000000000000000
ENDCHAR
STARTCHAR quotesingle
ENCODING 39
SWIDTH 246 0
DWIDTH 8 0
BBX 6 14 1 10
BITMAP
047730
A945A8
B0001B
830047
840056
A20038
DCBA3B
C00029
A00047
A10047
B00029
C0000C
C5227A
18BA60
ENDCHAR
STARTCHAR parenleft
ENCODING 40
SWIDTH 387 0
DWIDTH 12 0
BBX 14 27 -1 -2
BITMAP
00000002420000
0000001C8BA100
00000057006A00
000000B2000C20
00000590006900
00002C1003B000
0001D7000A2000
000698C32A0000
000C2016750000
00490002C10000
00C2000B300000
09600058000000
590000C1000000
2B0004B0000000
0A9108D4000000
07DBC92B100000
00870005B10000
000A4000590000
0001B04A2B2000
000099A104A000
00003E1000A400
00000790001C20
000000A50002C3
0000001C100048
000000058000A3
00000000C12980
000000005BA500
ENDCHAR
STARTCHAR parenright
ENCODING 41
SWIDTH 386 0
DWIDTH 12 0
BBX 14 27 -1 -2
BITMAP
00001340000000
0006D8A6000000
004B102B000000
00B2000B200000
003B0004A00000
00068000960000
0000B1003E5000
0000571AA6B000
00001C4300B200
00000860004900
000000B2000B30
0000003A0002C1
0000000A30003A
00000006900058
0000000CC105E1
000000765BBBD0
000006A0003B10
00004B0000B200
0000B297066000
0004A005AC0000
001C1000990000
00B40004A10000
1B60001B100000
2A0000A3000000
0C2003A0000000
03C31A30000000
0029C800000000
ENDCHAR
STARTCHAR asterisk
ENCODING 42
SWIDTH 517 0
DWIDTH 17 0
BBX 16 16 0 8
BITMAP
0000000010000000
0000006B9A200000
000000A108300000
000000830A000000
017100650A000340
0B5B60650B029A95
37006B8AB7BA400B
4930019001A0002B
058B995000B7AB84
0000283000571000
00003B981B8A0000
0001B20C76076000
001B30670B10A500
005700B005700C00
000B676000B39600
0000671000473000
ENDCHAR
STARTCHAR plus
ENCODING 43
SWIDTH 458 0
DWIDTH 15 0
BBX 14 15 0 3
BITMAP
00000014200000
000008B8AA0000
00002A00075000
00000A00092000
01731A252A0140
0B68AA8CBCCBA6
3900000650001B
4800000560000C
3A00000630000B
0B569A978BB996
01852B254B0360
00001A000B0000
000048000B0000
00001B97A90000
00000035300000
ENDCHAR
STARTCHAR comma
ENCODING 44
SWIDTH 228 0
DWIDTH 7 0
BBX 8 10 -1 -5
BITMAP
00013100
000A8C80
002A00A5
00A2001B
08600097
96000960
B0005800
6600B000
09A97000
00220000
ENDCHAR
STARTCHAR hyphen
ENCODING 45
SWIDTH 465 0
DWIDTH 15 0
BBX 14 7 0 7
BITMAP
01963358521361
0B46876AAAB979
2A00000470000C
3900000370000B
1C00000430000C
0888BBB9ABBBA6
00630002200130
ENDCHAR
STARTCHAR period
ENCODING 46
SWIDTH 202 0
DWIDTH 6 0
BBX 6 6 0 -1
BITMAP
049A71
3B215A
0A0037
0B0046
1B5496
015630
ENDCHAR
STARTCHAR slash
ENCODING 47
SWIDTH 453 0
DWIDTH 15 0
BBX 14 22 0 0
BITMAP
000000005CC920
00000000B215C3
00000000C0002C
00000004800069
0000000C2001C1
00000078000850
000003F9400C00
00000673892A00
00000930017600
00000C0002B000
000067000A3000
0001C1002B0000
0009B300760000
000C48A2A20000
002B0024C00000
00850009500000
01C0003A000000
0B4000A3000000
680000C0000000
3B000390000000
06C53870000000
00279710000000
ENDCHAR
STARTCHAR zero
ENCODING 48
SWIDTH 646 0
DWIDTH 21 0
BBX 22 25 -1 -1
BITMAP
0000000012000000000000
00000000DAD70000000000
00000005701ACA00000000
0000000C1001C850000000
000000860005B2C1000000
000006A0003B104A000000
00006E4000D40006A10000
0000C48A078C20004B0000
000670043C03B03A385000
001C1000870087C201B100
00B3000670002F40003B10
1B53842A000004B10004B2
2A7A4CB20000003A00003C
0CA003C10000002C80000D
0A20004B200006C2A30079
0A700003C7008F502B49B1
006C20002963B19608C400
0002C20970BC20091C2000
00002C7702C30000960000
000006E16C20001A400000
0000007BC00001A3000000
00000003D1000A40000000
000000005A106800000000
0000000005C9C100000000
0000000000021000000000
ENDCHAR
STARTCHAR one
ENCODING 49
SWIDTH 400 0
DWIDTH 13 0
BBX 13 24 -1 -1
BITMAP
00000017300000
000001BAEBBA30
00002B4D1002D0
0005B20C0002A0
05B7000A200570
2A10000B200750
480001AE100650
0C201B4C110570
02C7A34EBAA3A0
0005302A000480
0000000C000750
0000000C000840
0000000C000840
0000000C000650
0000002C652390
0000003C6684A0
0000000C000660
0000000C000830
0000000C000920
0000001B000830
00000058000660
000000940003A0
0000003C656C40
00000001676100
ENDCHAR
STARTCHAR two
ENCODING 50
SWIDTH 502 0
DWIDTH 16 0
BBX 16 23 0 -1
BITMAP
000004CB8A600000
00001B11C4B20000
0001B2003A3B0000
002B20002B068000
06A10005B2008700
8600007BA0000891
930006806A000077
4B00390006800085
06C7B10002E405F1
001420003C3CC976
00000019B20001A6
000000BD60004C40
000008708504B100
00008900082C1000
001A700002B30000
03C400004C300000
05700005C1002500
09C0004DCBBBA980
1B6A11C3900000D0
2A04BC41A00000B1
1C000002600000C0
07A9CCB88BBCA980
0043001340002500
ENDCHAR
STARTCHAR three
ENCODING 51
SWIDTH 456 0
DWIDTH 15 0
BBX 15 24 0 -1
BITMAP
0011000000000000
03CBA63111100000
0B20258AAAC00000
0C00000000890000
0C000000006BA000
0A42321000938500
02A989ECB8B05900
00000BD11517A200
0000684B20780000
0004B00293A00000
008A12BD7C200000
02A02C20B7000000
01B0A3001A500000
0078C00000891000
0007E7100007B800
000005C602AABC10
0000039EDA305D00
0124ABB500000C00
1CA8302A00000C00
6600000A00267B00
750000033BA64100
3A00169BA2000000
0986C62000000000
0067000000000000
ENDCHAR
STARTCHAR four
ENCODING 52
SWIDTH 514 0
DWIDTH 16 0
BBX 17 23 -1 -1
BITMAP
00000000AB9CBC9100
00000005617B005B00
0000000B1007505800
000000670007708400
000003B00068009300
00004C1003D0009300
0000B9B20BA1107500
0005801A3FEAA95700
000B1000B770007500
0095000942A000A200
0780005B7BE878CC20
490001B531C23202A0
2A00074000B00000C0
08810B0000A00001B0
006BE51454469A9A60
00007CA768C510A600
0000000002A000B000
0000000002A000B000
00000000048000B100
000000000750009300
000000000C10006700
0000000005B657C200
000000000027751000
ENDCHAR
STARTCHAR five
ENCODING 53
SWIDTH 500 0
DWIDTH 16 0
BBX 16 24 0 -1
BITMAP
0000000000001200
007BB66AC99BBC10
096128A1C1210570
08300470920001A0
0640064091000390
05500774469B9B30
0650088796102300
0730073000000000
0916365110000000
0B979CBBEA88B800
09B00000B1344C20
03800000B08B8AA1
01B0000190B00084
008ABBA768D000A1
0003001452A100B0
00000000009100B0
0000000000A000B0
04B8668A63B484A0
1B14664C68974C83
48000009300008B4
5700000820000790
2B00100501100A20
07BBABBBCBABB900
0010000100001000
ENDCHAR
STARTCHAR six
ENCODING 54
SWIDTH 520 0
DWIDTH 17 0
BBX 18 24 -1 -1
BITMAP
000000353000000000
000007B89C40000000
0000084001C2000000
0000093001C1000000
00000C000670000000
00002B000B20000000
000085000C00000000
0001FA830B00000000
0002A1383D10000000
000390006BA0000000
00048000C16B300000
00075001B002AB1000
000C100480003DA000
003B1006A000A36B30
007BAB66AC176003AB
0084003943C377000C
00A2001C006F77B04B
00C000675AA20098C3
039000AB7100004E40
0B3000C00000004900
2B0000C000017BB300
0A7101D0018B500000
006BBBC13C50000000
0000004BA100000000
ENDCHAR
STARTCHAR seven
ENCODING 55
SWIDTH 423 0
DWIDTH 14 0
BBX 14 23 0 -1
BITMAP
2CA88BDA88AC80
A11431A34420B1
B0000074000074
B0000073000079
B20342225652C8
3CB889BE856AD1
0000001C000570
000000AC720930
000000C2495A20
000000C0001C00
000002B0008500
0000076000C000
00001C00039000
00006DB6157000
00008415966000
0000B1000C2000
0001C000670000
00076000C10000
001C0001B00000
00850003900000
003B1004800000
0005CA9C400000
00000231000000
ENDCHAR
STARTCHAR eight
ENCODING 56
SWIDTH 527 0
DWIDTH 17 0
BBX 17 23 0 -1
BITMAP
01AB7679CA767BC100
085145536856415800
0B1000003800001B00
0C200000350ABD8A00
2EA48ABA89C901A700
0AC841963393000C00
00B3001B32A0007600
002B0001CA20039000
000844A668000B1000
0002DA001C00470000
0000B5000580A10000
0000BE400096A00000
000561C1000A800000
000A10490054B00000
0038000C5C70840000
00B1005AE2001B0000
084001B08700068000
680007B8AE40009700
A1000B4321C0000A40
5900370000D5000B60
07CAC300008A008F50
001D58BCBBADBDEC10
000274100120002200
ENDCHAR
STARTCHAR nine
ENCODING 57
SWIDTH 500 0
DWIDTH 16 0
BBX 17 24 0 -1
BITMAP
000000000010000000
0000000017CC200000
000007BBB704FD8100
0358B7C20000B16B00
897400380000A20950
C000000A0035C12C00
B00000026EA640B300
840038AB9C0003A000
7D599B20CCA3084000
958401B2C0294B1000
2B50001BA0002B0000
008800085000B30000
0006901C0004900000
00007795000A200000
00000AF9300C000000
00000573892A000000
000009300277000000
00001C0003B0000000
000085000B30000000
0004A0002A00000000
000C10007600000000
000870009300000000
00009B66D100000000
000002562000000000
ENDCHAR
STARTCHAR colon
ENCODING 58
SWIDTH 245 0
DWIDTH 8 0
BBX 6 18 1 -1
BITMAP
047730
7934A5
560073
460092
5922B3
048830
000000
000000
000000
000000
000000
000000
069950
871196
560083
560092
4A45B3
026610
ENDCHAR
STARTCHAR semicolon
ENCODING 59
SWIDTH 270 0
DWIDTH 9 0
BBX 9 22 -1 -5
BITMAP
0000476200
0009734B30
0007400910
0006500B00
0007723C10
0000598200
0000000000
0000000000
0000000000
0000000000
0000000000
0000000000
0000320000
0002B9C200
0009303C00
0039000840
02B1003B20
2B2002B100
47000B2000
0B10560000
03C8C10000
0003100000
ENDCHAR
STARTCHAR less
ENCODING 60
SWIDTH 445 0
DWIDTH 14 0
BBX 14 18 0 2
BITMAP
0000000006B300
000000006A2C40
0000015B8002C0
00001CE2000093
0003B3490002B3
05BA100831A940
2B1000013B3000
2A000017C40000
0C2004C5000000
0CC33CB5100000
3A2AB117E30000
39000003AB5000
0AB7100A319C81
0005C447000194
00001B82000092
0000005AA102C0
000000003C5C30
00000000039200
ENDCHAR
STARTCHAR equal
ENCODING 61
SWIDTH 484 0
DWIDTH 16 0
BBX 14 15 1 4
BITMAP
04410143000310
4A8AB99DBCC9B0
B100000B000093
C000000B000075
B1000009000084
594899769B96C0
07842246212630
00000000000000
04410143000310
4A8AB99DBCC9B0
B100000B000093
C000000B000075
B1000009000084
594899769B96C0
07842246212630
ENDCHAR
STARTCHAR greater
ENCODING 62
SWIDTH 445 0
DWIDTH 14 0
BBX 13 18 1 2
BITMAP
018A0000000000
2D57A000000000
A5005C62000000
C00001BE300000
D4000681B50000
28B30A0008C710
001B3300001850
0001B920000560
000003C6000B20
000003AC71AD20
0001C9209B4570
002B9700000570
6BB21B1005BB20
C2000371A71000
C000016C300000
95007B61000000
1C6A6000000000
00760000000000
ENDCHAR
STARTCHAR question
ENCODING 63
SWIDTH 455 0
DWIDTH 15 0
BBX 14 24 0 -1
BITMAP
00371000000000
05B6C610000000
0C1005ACB20000
29000001CA9641
29000003803689
0C65200930000B
02569B5300001A
0000018EC9208B
000016B703BAAB
0000B500000699
0008B000019920
0048C1003B3000
00284B34A10000
000B039C000000
001A000B000000
0058000B000000
0009BAC5000000
00000100000000
0006A950000000
00861195000000
00550083000000
00560092000000
004A45B2000000
00026610000000
ENDCHAR
STARTCHAR at
ENCODING 64
SWIDTH 812 0
DWIDTH 26 0
BBX 25 26 1 -2
BITMAP
00041000000000000000000000
0078ABABDCAABCDA77AA000000
04A0000063010192458D700000
4BA00000720000901B41740000
39B23664414542235900540000
0B3BD557BA657AA87B10360000
0B00B005634652251540090000
1A00B0473545A6649466682000
584192720000800094C4263000
8B77836897114110C390054000
6600A13713D9AA798682018000
3800B044009118006355009100
2800B06301800900714BA97400
3700B08105300900811A005400
684192939A0019007209103600
7968886B1599AC99BD9A300A00
5600B4C6000036000938400640
4700B056000054000915603B10
4700B01B5886524315007BD400
6500B202421388669AAAA8B000
A100999A500000000000031000
A412B2086A9800000000000000
18EA3009000720000000000000
00899714000820000000000000
00000288951A00000000000000
0000000004A200000000000000
ENDCHAR
STARTCHAR A
ENCODING 65
SWIDTH 507 0
DWIDTH 16 0
BBX 18 23 -1 0
BITMAP
000000353000000000
00000AA8AC30000000
00000B1002C1000000
00000C0002DAA00000
00000C000840C00000
000039000C00C00000
000094000C00B10000
0002EA822A00750000
0004A2483A002A0000
000480007C486A2000
00057000CC92084000
00084002A760074000
000B100571B0057740
003B100664D56AD6B2
007BBB66EBC7520039
0084004850B000000B
0093001C008200001B
00C00057005127ABC6
02A00094467BA53B30
094000BB854A400570
1C0000B000075000C1
0A7000C100066016C2
007CCB600003ACB610
ENDCHAR
STARTCHAR B
ENCODING 66
SWIDTH 533 0
DWIDTH 17 0
BBX 16 26 1 -2
BITMAP
0006B40000000000
018A2A9300000000
4CD1003ACA300000
59A000000AC71000
2BA000000C06CA73
1BBA84003900025B
2A014EC54100000C
48000C19C951002A
8A873A201ABC50B3
B7334958B5018DD3
75000CCC100004C2
57000C139003B930
48000B00907A1000
57000B00188C5000
75000B18B5018B60
9CBA68E9000001A4
84001A38D6000084
66000C27ADA102E6
56001ECD305B4C69
7879C603A0059258
9E530000A005BB82
CC00000032B81000
DD000027BB200000
3C9008B610000000
008BB50000000000
0002200000000000
ENDCHAR
STARTCHAR C
ENCODING 67
SWIDTH 515 0
DWIDTH 16 0
BBX 17 24 0 -1
BITMAP
0006B6210200000000
003B269BBDD8657500
007400000663665B10
009300000560000740
007500000830000750
002D9BBA6345310A10
0059300C69768BB800
00B8520C0000001000
00D6684C0000000000
00C0002B0000000000
00C000660000000000
00C000930000000000
02A000A20000000000
079410930000000000
098798850000000000
084000C10000000000
09300390000004A300
0C000697CDCCC83C00
490007B51C00000750
A40005700A10000570
3C633A600910000840
04DA94011349BBBC00
00C34ACBBB83000000
001A83000000000000
ENDCHAR
STARTCHAR D
ENCODING 68
SWIDTH 520 0
DWIDTH 17 0
BBX 16 25 1 -1
BITMAP
0000021000000000
0157C9C100000000
4C9D104A00000000
5793000880000000
2AB0000089000000
1B6B300006C20000
2A02B50000AB0000
48000D5005877000
89772AD46800A600
B844494C30000991
75000B02B700005C
57000C000880001B
48000C0000A60096
58000C0003CC6B9B
66000B105C22621D
9CBA684AB10003C5
84002AA9B5004B10
66000EB00933B100
56000D10013B2000
75001B0002B60000
84000C003C300000
C0000B12C2000000
D1000B3C30000000
4CBBE97700000000
0011388000000000
ENDCHAR
STARTCHAR E
ENCODING 69
SWIDTH 490 0
DWIDTH 16 0
BBX 15 24 1 -1
BITMAP
0156400110002200
4C768CBCEBBCAC10
57000661B0000660
2A000A20B0000390
1B000C00A0000470
2A000D6548AA8B20
48000C5674124400
89772A2000000000
B844493000000000
75000C867AA00000
57000B3542750000
48000B0000390000
58000B0000380000
66000B6641840000
9CBA68857B900000
84002A2000000000
66000D3410000000
56000E9CCA99C500
75001B0571320C00
84000C0460000A10
C0000B1630000B10
D1000BA679843B00
4CBBC6364347B200
0011000000000000
ENDCHAR
STARTCHAR F
ENCODING 70
SWIDTH 475 0
DWIDTH 15 0
BBX 15 24 1 -1
BITMAP
0156400110002200
4C768CBCEBBCAC10
57000661B0000660
2A000A20B0000390
1B000C00A0000470
2A000D6548AA8B20
48000C5674124400
89772A2000000000
B844493000000000
75000C867AA00000
57000B3542750000
48000B0000390000
58000B0000380000
66000B6641840000
9CBA68857B900000
84002A2000000000
66000C0000000000
56000C0000000000
75001B0000000000
84000C0000000000
C0000B1000000000
D1000B3000000000
4CBBC60000000000
0011000000000000
ENDCHAR
STARTCHAR G
ENCODING 71
SWIDTH 557 0
DWIDTH 18 0
BBX 18 24 0 -1
BITMAP
0006B6210200000000
003B269BBDD8657500
007400000663665B10
009300000560000740
007500000830000750
002D9BBA6345310A10
0059300C69768BB800
00B8520C0000001000
00D6684C0000000000
00C0002B0000023000
00C000660004C99B70
00C00093000C1000B0
02A000A20008400290
079410930005700380
0987988500046001A0
084000C100077673C1
09300390000AA432B0
0C000697CDCD5000B0
490007B51C048000C0
A40005700A138000B1
3C633A600914700076
04DA9401134B600095
00C34ACBBB839BBB50
001A83000000000000
ENDCHAR
STARTCHAR H
ENCODING 72
SWIDTH 611 0
DWIDTH 20 0
BBX 19 23 1 0
BITMAP
01575000000279830000
4C757C30004C534A8000
5700066000660000C000
2A000A20002B00039000
1B000C00000C00066000
2A000C00000C00075000
48000C00000C00075000
8A873A20003C54157000
B7334930005C66949000
75000C00002A00075000
57000C00000C00095000
48000D00000C003CBA00
57000D00000DBCA30940
75000B4458B6B0000470
9CBA68DB6300B0000570
84001A2B000090135B30
66000C0A00025ABC8600
56000C065BCD82083000
75001ECC713900084000
94000D00005700075000
C0000B10009300048000
D2001B3000A600197000
3BBBC5000018CCC60000
ENDCHAR
STARTCHAR I
ENCODING 73
SWIDTH 266 0
DWIDTH 9 0
BBX 7 23 1 0
BITMAP
01575000
4C757C30
57000660
2A000A20
1B000C00
2A000C00
48000C00
8A873A20
B7334930
75000C00
57000C00
48000C00
57000C00
75000B10
9CBA6840
84001A20
66000C00
56000B00
75001B00
94000C00
C0000B10
D2001B30
3BBBC500
ENDCHAR
STARTCHAR J
ENCODING 74
SWIDTH 484 0
DWIDTH 16 0
BBX 16 25 -1 -2
BITMAP
0000000000156500
0000000003C868C3
0000000004800057
0000000001B00093
0000000000B000B1
0000000001B000C0
00000000039000B1
0000000007A77393
000000000A944484
00000000076000B1
00000000048000C0
0028A100039000C0
05B46700048000C0
2B000B20057000B1
750002C208CBA675
3C40002C47500293
01B40053C67000C0
001C1A706D8000C0
0005D7000A9000C0
0000C600009900C0
00000A60000A30A2
000000B2001C10A4
0000003A00AEBC60
0000000AAC611000
0000000020000000
ENDCHAR
STARTCHAR K
ENCODING 75
SWIDTH 541 0
DWIDTH 17 0
BBX 17 24 1 -1
BITMAP
015640000000000000
4C768C300001B94000
57000660000773A800
2A000A20002C000A40
1B000C0001C30002A0
2A000C003C40002B60
48000C04F70002C300
89772A2B48900C3000
B84449890066770000
75000CC10003C00000
57000D20004B200000
48000B0003D8000000
58000D301C2C000000
66000BB28607600000
9CBA6854C000C20000
84002A6D9178570000
66000EB2DC502B0000
56000D10C3000C1000
75001B003A00068000
84000C000A2000B400
C0000B100570004900
D1000B3002A001C300
4CBBC60000C9AB4000
001100000003200000
ENDCHAR
STARTCHAR L
ENCODING 76
SWIDTH 467 0
DWIDTH 15 0
BBX 15 23 1 0
BITMAP
0157500000000000
4C757C3000000000
5700066000000000
2A000A2000000000
1B000C0000000000
2A000C0000000000
48000C0000000000
8A873A2000000000
B733493000000000
75000C0000000000
57000C0000000000
48000C0000000000
57000C0000000000
75000B1000000000
9CBA684000000000
84001A1000000000
66000C1000000000
56000EDDA878BA00
75001B4924431850
94000C2900000480
C0000B4800000480
D2001B6356530940
3BBBC7996568B900
ENDCHAR
STARTCHAR M
ENCODING 77
SWIDTH 733 0
DWIDTH 23 0
BBX 25 24 -1 -1
BITMAP
00000255100000015640000000
00006B78C700000C76AB200000
000075000B40000C0003C00000
000075000DC1000C0005E40000
0000940039A20039000B770000
0000C10075940084001B570000
0003A000936701C00057480000
000AB850A21B08DB81662A0000
000B4245A20A393036840C0000
000A1001C475AA1000D5584000
000B0005E720CC0005C6466000
000C0008E100CA000A70066000
002A000A8600A6000CB0057000
0076000A3B0059100BC0039000
00ACCA492C100DAA2CA100D000
00B1013B196876714A9454A400
00B0003907B203A0B29B536600
00C0008402B000C1B076005700
039000B100B100A87039003900
094000C00074003F501B000C00
1C0000C00057000A500B000A30
0B5000C20049017C200B0006A0
019CCC60001ACB61001BBAC910
00000000000000000000120000
ENDCHAR
STARTCHAR N
ENCODING 78
SWIDTH 598 0
DWIDTH 19 0
BBX 18 24 1 -1
BITMAP
015640000000256300
3C868DC40007B76AA0
57000699000A2000B1
2A000A3C00075000C0
1B000C0A20066002A0
2A000C049007500390
48000C00B4093002A0
89762A233C0D6761C0
B84449D72B2E6452C0
85000B00076C0002A0
57000C0002CA200480
48000E60009D300570
58000CC1001D300480
66000B850024A002A0
9CB9586A7B82DA93C0
84012A2D8000B222C0
66000C059000570480
56000C00B3000C1560
65001B00390004A660
84000C000C00008A70
C0000B10092001C3B0
D1000B3007835C42C0
4CBAC6000169EBBB30
001100000000011000
ENDCHAR
STARTCHAR O
ENCODING 79
SWIDTH 612 0
DWIDTH 20 0
BBX 19 24 0 -1
BITMAP
0006B621020000000000
003B269BBDD868BA6000
007400000663665CA800
0093000005600007A600
0075000008300007C400
002D9BBA6345310A8400
0059300C6976CBB85600
00B8520C0000C1312A00
00D6684C0000ECA93C00
00C0002B0000D0001C00
00C00066000093001B00
00C00093000056000C00
02A000A2000048000C00
07941093000048000840
0987988500005B9A9580
084000C100004B201660
0930039000001C396840
0C0006859ECCBC83BB40
490007B6257000004F60
A400057001A000002CB0
3C633A6000A0000049D0
04DA94001135ABDDDE60
00C349CCBBB620576100
001A9300000000000000
ENDCHAR
STARTCHAR P
ENCODING 80
SWIDTH 513 0
DWIDTH 16 0
BBX 17 25 0 -1
BITMAP
000016100000000000
0003C7C40000000000
02AE2029C850000000
079A000014CC200000
04B9000000B3B94200
02BC530001A0037A90
02A379E816300000C0
039000C6C7410001B0
076320B1158E910860
0BC9969300984C9F20
093000B15B50015840
066000CAE200019A10
057000F64C103B4000
057000B00463B10000
066000B0003B100000
099752920792000000
09746694A400000000
075000DB2000000000
066000E20000000000
075001A00000000000
084000C00000000000
0B1000C00000000000
1C0000A30000000000
08B66AA00000000000
002663000000000000
ENDCHAR
STARTCHAR Q
ENCODING 81
SWIDTH 612 0
DWIDTH 20 0
BBX 19 28 0 -5
BITMAP
0006B621020000000000
003B269BBDD868BA6000
007400000663665CA800
0093000005600007A600
0075000008300007C400
002D9BBA6345310A8400
0059300C6976CBB85600
00B8520C0000C1312A00
00D6684C0000ECA93C00
00C0002B0000D0001C00
00C00066000093001B00
00C00093000056000C00
02A000A2000048000C00
07941093000048000840
0987988500005B9A9580
084000C100004B201660
0930039000001C396840
0C0006859ECCBC83BB40
490007B6257000004F60
A400057001A000002CB0
3C633A6000A0000049D0
04DA94001135ABDDDE60
00C349CEBBB980576100
001A9309300390000000
0000000A2000C0000000
0000000C0000B2000000
0000000A834990000000
00000000587400000000
ENDCHAR
STARTCHAR R
ENCODING 82
SWIDTH 532 0
DWIDTH 17 0
BBX 18 25 0 -1
BITMAP
000003000000000000
0002CAA10000000000
007D404B8420000000
07AB000037D9000000
04B9000000B6C61000
02BC200001B016BC70
02A5ABA407400000B0
039000C9B4100001B0
066000C039BB500670
0ADBB693006A8B6E20
0A3000B12A80038840
066000C7E311005C20
057000E98DBB6B7000
048000C2C203E30000
066000B95000B10000
086320A3C1004A0000
0AA89794BA00067000
084000CB4A2792B000
066000F406D4009300
066001A002C1002B00
084001B0004A0005A0
0B2000C0000A300093
1C0000A200048002B0
0B7336C10000C57B20
006996100000253000
ENDCHAR
STARTCHAR S
ENCODING 83
SWIDTH 442 0
DWIDTH 14 0
BBX 15 24 0 -1
BITMAP
00000034236BB000
02B99CAE88617700
0A47820B10001B00
0DC6690820001C00
4A000C0613557800
950007B9B8667100
1B3001C300000000
02B0005A00000000
0084003760000000
002A5B62B0000000
000CA000A2000000
0005A0003B000000
0000770007900000
00000B2000850000
000004829A390000
000000CB300B1000
0000006900058000
021149BE50009600
6BAA73C2C0000B20
B00000A293001C00
C00000825702C400
B1000134AEEF4000
4B5BBAB820010000
0371000000000000
ENDCHAR
STARTCHAR T
ENCODING 84
SWIDTH 453 0
DWIDTH 15 0
BBX 16 24 -1 -1
BITMAP
0185323573101450
0B468986D8ABA7A4
3A00000083000039
390000008300001A
1B00000050000047
089ABBDBABEBBBC1
004102B010C00010
0000049000C00000
000008A873930000
00000A8334830000
0000066000B00000
0000048000C00000
0000039000C00000
0000047000C00000
0000077430930000
000009A788840000
0000066000B10000
0000057000C00000
0000056000C00000
0000075000C00000
00000B1000B10000
00000D1000A40000
000003BBAC600000
0000000110000000
ENDCHAR
STARTCHAR U
ENCODING 85
SWIDTH 583 0
DWIDTH 19 0
BBX 18 24 0 -1
BITMAP
000255200000255200
007B77B80008B76A90
0093000B300D0000C0
0075000C000A2002A0
008400390008400390
009300570007500390
00C0006600075001B0
03D77357000A6662C1
06A44748000C9553B1
0390008400093000C0
02A000B100057000C0
039000C000039000C0
056000B00002A000B1
0A7310B00003A00085
0B7896A20005CAA949
0A2000C00003B10167
0A2004800000C9D475
0C000687CCBC931C84
2B0007B558000008A5
850005800B00000798
5A2007900A00012A3C
05ECB700025BEA982C
00B317BBCC827CABB2
001BB5100000001100
ENDCHAR
STARTCHAR V
ENCODING 86
SWIDTH 506 0
DWIDTH 16 0
BBX 17 23 0 -1
BITMAP
027972000001430000
5C635C00003C8AC300
D0000C000047002C10
95000C000056001C00
2A000B100084006600
0C00076000C000A100
0A2001C005A200B000
0A58A5A20A89B3B000
0AB300930B0002B000
058000750C00084000
00C100480B000B0000
0075001C58001A0000
00390009D610290000
001B0123D8A9390000
000EBA72B001660000
000B20029000B00000
000480065003800000
0000C00B1007500000
0000B1490009200000
00009393000A200000
0000933C412C200000
00008836FCA4000000
000006983000000000
ENDCHAR
STARTCHAR W
ENCODING 87
SWIDTH 735 0
DWIDTH 24 0
BBX 25 23 -1 -1
BITMAP
00389720000000000029BB6000
06B536B00000452000A5017B00
1D0001B0002B97B60093000B20
0A3000C000B2003700A2002A00
049000C000E5002800C0007500
00C0009403AB000B02B000A100
00C0003B097B1008486000B000
00B59A4B1D8C4573BDBBA3C000
00BA300A2B08D621BC0001C000
006700083B049000BB00048000
000C00067A00A1009B00093000
00094002E70065004A000C0000
00057000B510373595000C0000
00029013C9AA4E96D8410C0000
0001DBA7B0006E10C56A4C0000
0000C100B000B950C0003A0000
000067029001B391B000940000
00001B07500391A49000C00000
00000C0B100471A94000C00000
00000B58000471BC0000B00000
00000B2C5107704A0000B00000
00000A74DFB70009A547B00000
00000069720000003785000000
ENDCHAR
STARTCHAR X
ENCODING 88
SWIDTH 483 0
DWIDTH 15 0
BBX 16 22 0 0
BITMAP
0027830000464000
07B54B0001C59C10
4A000B10066004B0
860006600B1000C2
0B4000C167000880
01C0004BB0004A00
0076003E5000C100
001B19E78B248000
000BC4C002592000
0006A580004A0000
00008D1002C10000
000095000AC30000
0005D200392C0000
000B6C709D784000
002A0074B103A000
00A300098000B200
05900069C0003B00
4B0001B067000690
C10008400C000095
B2000C00075000B2
3C30390003901980
03ABB300009CB400
ENDCHAR
STARTCHAR Y
ENCODING 89
SWIDTH 484 0
DWIDTH 16 0
BBX 18 22 -1 0
BITMAP
004991000002BCA400
099476000005703B70
48001C0000084000B3
A3000680000C0001C1
3C2000A60067000A40
02C1000A62C1003A00
00490173BCC6108400
000B4B305C26B2C000
0004E200490003B000
0000A60094000B3000
00000A41C000580000
000001BA5000B10000
0000005E5001B00000
000000776B54800000
000000B10058500000
000002B0004B000000
00000A4000C2000000
00005A000490000000
0001D1000930000000
0000C3000C00000000
00003C734C00000000
000000598200000000
ENDCHAR
STARTCHAR Z
ENCODING 90
SWIDTH 458 0
DWIDTH 15 0
BBX 16 23 -1 0
BITMAP
0001100020001200
001BBBBAEBBBAC10
00750000A2000570
00920000830002E3
00840000810004AA
003B379869AB9CC6
00059423D6002B70
00000009C2002B00
0000001C6B709400
000000580062C000
000000B200087000
00000680005A0000
00003C1001C10000
0000CA2007600000
0003A4C60C000000
000940074B000000
003B0001C3000000
01C2000AEA88BB00
1C400059A2320660
390000B183000290
0C3002A082000380
02B859A545886A30
0008C75686325600
ENDCHAR
STARTCHAR bracketleft
ENCODING 91
SWIDTH 420 0
DWIDTH 13 0
BBX 14 27 0 -2
BITMAP
00000000017700
000001369A5870
000AA9741000C0
02BDCB500000B1
0B4001C20013C0
085000C6AB9840
066001D5100000
06700290000000
075002A0000000
0B2101B0000000
0ECAA4C0000000
0C0000B0000000
0A200290000000
09300480000000
08300380000000
0A2002A0000000
0C5530C0000000
0D7674C0000000
0B1002A0000000
0A200480000000
0A100570000000
0B0004A3223610
1C0002C78876A0
490000C00000B0
1B745A800000A1
004D96455411B0
0003A865679B30
ENDCHAR
STARTCHAR backslash
ENCODING 92
SWIDTH 453 0
DWIDTH 15 0
BBX 14 22 0 0
BITMAP
005BCB10000000
09920930000000
59000660000000
3C1001B0000000
06800094000000
00C1001C100000
0066017DA00000
002A3B52C00000
000C2000B20000
00059000670000
0000A3001C0000
00003900077000
00000C0016E100
00000A26B68500
00000765003900
000001C2000C10
0000003A000680
0000000B2000B4
0000000570001D
00000002A0004A
00000000D448B1
00000000388400
ENDCHAR
STARTCHAR bracketright
ENCODING 93
SWIDTH 420 0
DWIDTH 13 0
BBX 13 27 0 -2
BITMAP
03930000000000
2C38A742100000
850003689C3000
92000019CCD600
772000B4001B20
178AA7A4000B00
000003A7000B00
00000038000C00
00000038000C00
00000056011A20
00000084AABE60
00000057000750
00000039000A20
0000001B000B00
0000002B000C00
00000039000B10
00000075245B40
00000075876B50
00000048000930
0000001B000B10
0000000C000A20
0543235B000930
4A688799000670
930000750002B0
9200002C645B50
670345557D8200
09A86556970000
ENDCHAR
STARTCHAR asciicircum
ENCODING 94
SWIDTH 353 0
DWIDTH 11 0
BBX 11 9 0 12
BITMAP
0002AA930000
000841BC0000
002B007D4000
00A30391B000
07701D305900
3A0094A00860
1A0290830660
06BC202B9A00
000100012000
ENDCHAR
STARTCHAR underscore
ENCODING 95
SWIDTH 499 0
DWIDTH 16 0
BBX 14 7 1 -9
BITMAP
05843467312540
3A47875D8BA7B2
9300000B000057
A300000A000039
75000007000066
1C6ABBB9BBBAC1
02610013000220
ENDCHAR
STARTCHAR grave
ENCODING 96
SWIDTH 183 0
DWIDTH 6 0
BBX 6 8 0 24
BITMAP
000100
19BC30
A30650
A30290
1B00B1
057057
00B12B
005BA2
ENDCHAR
STARTCHAR a
ENCODING 97
SWIDTH 507 0
DWIDTH 16 0
BBX 18 23 -1 0
BITMAP
000000353000000000
00000AA8AC30000000
00000B1002C1000000
00000C0002DAA00000
00000C000840C00000
000039000C00C00000
000094000C00B10000
0002EA822A00750000
0004A2483A002A0000
000480007C486A2000
00057000CC92084000
00084002A760074000
000B100571B0057740
003B100664D56AD6B2
007BBB66EBC7520039
0084004850B000000B
0093001C008200001B
00C00057005127ABC6
02A00094467BA53B30
094000BB854A400570
1C0000B000075000C1
0A7000C100066016C2
007CCB600003ACB610
ENDCHAR
STARTCHAR b
ENCODING 98
SWIDTH 533 0
DWIDTH 17 0
BBX 16 26 1 -2
BITMAP
0006B40000000000
018A2A9300000000
4CD1003ACA300000
59A000000AC71000
2BA000000C06CA73
1BBA84003900025B
2A014EC54100000C
48000C19C951002A
8A873A201ABC50B3
B7334958B5018DD3
75000CCC100004C2
57000C139003B930
48000B00907A1000
57000B00188C5000
75000B18B5018B60
9CBA68E9000001A4
84001A38D6000084
66000C27ADA102E6
56001ECD305B4C69
7879C603A0059258
9E530000A005BB82
CC00000032B81000
DD000027BB200000
3C9008B610000000
008BB50000000000
0002200000000000
ENDCHAR
STARTCHAR c
ENCODING 99
SWIDTH 515 0
DWIDTH 16 0
BBX 17 24 0 -1
BITMAP
0006B6210200000000
003B269BBDD8657500
007400000663665B10
009300000560000740
007500000830000750
002D9BBA6345310A10
0059300C69768BB800
00B8520C0000001000
00D6684C0000000000
00C0002B0000000000
00C000660000000000
00C000930000000000
02A000A20000000000
079410930000000000
098798850000000000
084000C10000000000
09300390000004A300
0C000697CDCCC83C00
490007B51C00000750
A40005700A10000570
3C633A600910000840
04DA94011349BBBC00
00C34ACBBB83000000
001A83000000000000
ENDCHAR
STARTCHAR d
ENCODING 100
SWIDTH 520 0
DWIDTH 17 0
BBX 16 25 1 -1
BITMAP
0000021000000000
0157C9C100000000
4C9D104A00000000
5793000880000000
2AB0000089000000
1B6B300006C20000
2A02B50000AB0000
48000D5005877000
89772AD46800A600
B844494C30000991
75000B02B700005C
57000C000880001B
48000C0000A60096
58000C0003CC6B9B
66000B105C22621D
9CBA684AB10003C5
84002AA9B5004B10
66000EB00933B100
56000D10013B2000
75001B0002B60000
84000C003C300000
C0000B12C2000000
D1000B3C30000000
4CBBE97700000000
0011388000000000
ENDCHAR
STARTCHAR e
ENCODING 101
SWIDTH 490 0
DWIDTH 16 0
BBX 15 24 1 -1
BITMAP
0156400110002200
4C768CBCEBBCAC10
57000661B0000660
2A000A20B0000390
1B000C00A0000470
2A000D6548AA8B20
48000C5674124400
89772A2000000000
B844493000000000
75000C867AA00000
57000B3542750000
48000B0000390000
58000B0000380000
66000B6641840000
9CBA68857B900000
84002A2000000000
66000D3410000000
56000E9CCA99C500
75001B0571320C00
84000C0460000A10
C0000B1630000B10
D1000BA679843B00
4CBBC6364347B200
0011000000000000
ENDCHAR
STARTCHAR f
ENCODING 102
SWIDTH 475 0
DWIDTH 15 0
BBX 15 24 1 -1
BITMAP
0156400110002200
4C768CBCEBBCAC10
57000661B0000660
2A000A20B0000390
1B000C00A0000470
2A000D6548AA8B20
48000C5674124400
89772A2000000000
B844493000000000
75000C867AA00000
57000B3542750000
48000B0000390000
58000B0000380000
66000B6641840000
9CBA68857B900000
84002A2000000000
66000C0000000000
56000C0000000000
75001B0000000000
84000C0000000000
C0000B1000000000
D1000B3000000000
4CBBC60000000000
0011000000000000
ENDCHAR
STARTCHAR g
ENCODING 103
SWIDTH 557 0
DWIDTH 18 0
BBX 18 24 0 -1
BITMAP
0006B6210200000000
003B269BBDD8657500
007400000663665B10
009300000560000740
007500000830000750
002D9BBA6345310A10
0059300C69768BB800
00B8520C0000001000
00D6684C0000000000
00C0002B0000023000
00C000660004C99B70
00C00093000C1000B0
02A000A20008400290
079410930005700380
0987988500046001A0
084000C100077673C1
09300390000AA432B0
0C000697CDCD5000B0
490007B51C048000C0
A40005700A138000B1
3C633A600914700076
04DA9401134B600095
00C34ACBBB839BBB50
001A83000000000000
ENDCHAR
STARTCHAR h
ENCODING 104
SWIDTH 611 0
DWIDTH 20 0
BBX 19 23 1 0
BITMAP
01575000000279830000
4C757C30004C534A8000
5700066000660000C000
2A000A20002B00039000
1B000C00000C00066000
2A000C00000C00075000
48000C00000C00075000
8A873A20003C54157000
B7334930005C66949000
75000C00002A00075000
57000C00000C00095000
48000D00000C003CBA00
57000D00000DBCA30940
75000B4458B6B0000470
9CBA68DB6300B0000570
84001A2B000090135B30
66000C0A00025ABC8600
56000C065BCD82083000
75001ECC713900084000
94000D00005700075000
C0000B10009300048000
D2001B3000A600197000
3BBBC5000018CCC60000
ENDCHAR
STARTCHAR i
ENCODING 105
SWIDTH 266 0
DWIDTH 9 0
BBX 7 23 1 0
BITMAP
01575000
4C757C30
57000660
2A000A20
1B000C00
2A000C00
48000C00
8A873A20
B7334930
75000C00
57000C00
48000C00
57000C00
75000B10
9CBA6840
84001A20
66000C00
56000B00
75001B00
94000C00
C0000B10
D2001B30
3BBBC500
ENDCHAR
STARTCHAR j
ENCODING 106
SWIDTH 482 0
DWIDTH 15 0
BBX 16 25 -1 -2
BITMAP
0000000000156500
0000000003C868C3
0000000004800057
0000000001B00093
0000000000B000B1
0000000001B000C0
00000000039000B1
0000000007A77393
000000000A944484
00000000076000B1
00000000048000C0
0028A100039000C0
05B46700048000C0
2B000B20057000B1
750002C208CBA675
3C40002C47500293
01B40053C67000C0
001C1A706D8000C0
0005D7000A9000C0
0000C600009900C0
00000A60000A30A2
000000B2001C10A4
0000003A00AEBC60
0000000AAC611000
0000000020000000
ENDCHAR
STARTCHAR k
ENCODING 107
SWIDTH 541 0
DWIDTH 17 0
BBX 17 24 1 -1
BITMAP
015640000000000000
4C768C300001B94000
57000660000773A800
2A000A20002C000A40
1B000C0001C30002A0
2A000C003C40002B60
48000C04F70002C300
89772A2B48900C3000
B84449890066770000
75000CC10003C00000
57000D20004B200000
48000B0003D8000000
58000D301C2C000000
66000BB28607600000
9CBA6854C000C20000
84002A6D9178570000
66000EB2DC502B0000
56000D10C3000C1000
75001B003A00068000
84000C000A2000B400
C0000B100570004900
D1000B3002A001C300
4CBBC60000C9AB4000
001100000003200000
ENDCHAR
STARTCHAR l
ENCODING 108
SWIDTH 467 0
DWIDTH 15 0
BBX 15 23 1 0
BITMAP
0157500000000000
4C757C3000000000
5700066000000000
2A000A2000000000
1B000C0000000000
2A000C0000000000
48000C0000000000
8A873A2000000000
B733493000000000
75000C0000000000
57000C0000000000
48000C0000000000
57000C0000000000
75000B1000000000
9CBA684000000000
84001A1000000000
66000C1000000000
56000EDDA878BA00
75001B4924431850
94000C2900000480
C0000B4800000480
D2001B6356530940
3BBBC7996568B900
ENDCHAR
STARTCHAR m
ENCODING 109
SWIDTH 733 0
DWIDTH 23 0
BBX 25 24 -1 -1
BITMAP
00000255100000015640000000
00006B78C700000C76AB200000
000075000B40000C0003C00000
000075000DC1000C0005E40000
0000940039A20039000B770000
0000C10075940084001B570000
0003A000936701C00057480000
000AB850A21B08DB81662A0000
000B4245A20A393036840C0000
000A1001C475AA1000D5584000
000B0005E720CC0005C6466000
000C0008E100CA000A70066000
002A000A8600A6000CB0057000
0076000A3B0059100BC0039000
00ACCA492C100DAA2CA100D000
00B1013B196876714A9454A400
00B0003907B203A0B29B536600
00C0008402B000C1B076005700
039000B100B100A87039003900
094000C00074003F501B000C00
1C0000C00057000A500B000A30
0B5000C20049017C200B0006A0
019CCC60001ACB61001BBAC910
00000000000000000000120000
ENDCHAR
STARTCHAR n
ENCODING 110
SWIDTH 598 0
DWIDTH 19 0
BBX 18 24 1 -1
BITMAP
015640000000256300
3C868DC40007B76AA0
57000699000A2000B1
2A000A3C00075000C0
1B000C0A20066002A0
2A000C049007500390
48000C00B4093002A0
89762A233C0D6761C0
B84449D72B2E6452C0
85000B00076C0002A0
57000C0002CA200480
48000E60009D300570
58000CC1001D300480
66000B850024A002A0
9CB9586A7B82DA93C0
84012A2D8000B222C0
66000C059000570480
56000C00B3000C1560
65001B00390004A660
84000C000C00008A70
C0000B10092001C3B0
D1000B3007835C42C0
4CBAC6000169EBBB30
001100000000011000
ENDCHAR
STARTCHAR o
ENCODING 111
SWIDTH 612 0
DWIDTH 20 0
BBX 19 24 0 -1
BITMAP
0006B621020000000000
003B269BBDD868BA6000
007400000663665CA800
0093000005600007A600
0075000008300007C400
002D9BBA6345310A8400
0059300C6976CBB85600
00B8520C0000C1312A00
00D6684C0000ECA93C00
00C0002B0000D0001C00
00C00066000093001B00
00C00093000056000C00
02A000A2000048000C00
07941093000048000840
0987988500005B9A9580
084000C100004B201660
0930039000001C396840
0C0006859ECCBC83BB40
490007B6257000004F60
A400057001A000002CB0
3C633A6000A0000049D0
04DA94001135ABDDDE60
00C349CCBBB620576100
001A9300000000000000
ENDCHAR
STARTCHAR p
ENCODING 112
SWIDTH 513 0
DWIDTH 16 0
BBX 17 25 0 -1
BITMAP
000016100000000000
0003C7C40000000000
02AE2029C850000000
079A000014CC200000
04B9000000B3B94200
02BC530001A0037A90
02A379E816300000C0
039000C6C7410001B0
076320B1158E910860
0BC9969300984C9F20
093000B15B50015840
066000CAE200019A10
057000F64C103B4000
057000B00463B10000
066000B0003B100000
099752920792000000
09746694A400000000
075000DB2000000000
066000E20000000000
075001A00000000000
084000C00000000000
0B1000C00000000000
1C0000A30000000000
08B66AA00000000000
002663000000000000
ENDCHAR
STARTCHAR q
ENCODING 113
SWIDTH 612 0
DWIDTH 20 0
BBX 19 28 0 -5
BITMAP
0006B621020000000000
003B269BBDD868BA6000
007400000663665CA800
0093000005600007A600
0075000008300007C400
002D9BBA6345310A8400
0059300C6976CBB85600
00B8520C0000C1312A00
00D6684C0000ECA93C00
00C0002B0000D0001C00
00C00066000093001B00
00C00093000056000C00
02A000A2000048000C00
07941093000048000840
0987988500005B9A9580
084000C100004B201660
0930039000001C396840
0C0006859ECCBC83BB40
490007B6257000004F60
A400057001A000002CB0
3C633A6000A0000049D0
04DA94001135ABDDDE60
00C349CEBBB980576100
001A9309300390000000
0000000A2000C0000000
0000000C0000B2000000
0000000A834990000000
00000000587400000000
ENDCHAR
STARTCHAR r
ENCODING 114
SWIDTH 532 0
DWIDTH 17 0
BBX 18 25 0 -1
BITMAP
000003000000000000
0002CAA10000000000
007D404B8420000000
07AB000037D9000000
04B9000000B6C61000
02BC200001B016BC70
02A5ABA407400000B0
039000C9B4100001B0
066000C039BB500670
0ADBB693006A8B6E20
0A3000B12A80038840
066000C7E311005C20
057000E98DBB6B7000
048000C2C203E30000
066000B95000B10000
086320A3C1004A0000
0AA89794BA00067000
084000CB4A2792B000
066000F406D4009300
066001A002C1002B00
084001B0004A0005A0
0B2000C0000A300093
1C0000A200048002B0
0B7336C10000C57B20
006996100000253000
ENDCHAR
STARTCHAR s
ENCODING 115
SWIDTH 442 0
DWIDTH 14 0
BBX 15 24 0 -1
BITMAP
00000034236BB000
02B99CAE88617700
0A47820B10001B00
0DC6690820001C00
4A000C0613557800
950007B9B8667100
1B3001C300000000
02B0005A00000000
0084003760000000
002A5B62B0000000
000CA000A2000000
0005A0003B000000
0000770007900000
00000B2000850000
000004829A390000
000000CB300B1000
0000006900058000
021149BE50009600
6BAA73C2C0000B20
B00000A293001C00
C00000825702C400
B1000134AEEF4000
4B5BBAB820010000
0371000000000000
ENDCHAR
STARTCHAR t
ENCODING 116
SWIDTH 453 0
DWIDTH 15 0
BBX 16 24 -1 -1
BITMAP
0185323573101450
0B468986D8ABA7A4
3A00000083000039
390000008300001A
1B00000050000047
089ABBDBABEBBBC1
004102B010C00010
0000049000C00000
000008A873930000
00000A8334830000
0000066000B00000
0000048000C00000
0000039000C00000
0000047000C00000
0000077430930000
000009A788840000
0000066000B10000
0000057000C00000
0000056000C00000
0000075000C00000
00000B1000B10000
00000D1000A40000
000003BBAC600000
0000000110000000
ENDCHAR
STARTCHAR u
ENCODING 117
SWIDTH 583 0
DWIDTH 19 0
BBX 18 24 0 -1
BITMAP
000255200000255200
007B77B80008B76A90
0093000B300D0000C0
0075000C000A2002A0
008400390008400390
009300570007500390
00C0006600075001B0
03D77357000A6662C1
06A44748000C9553B1
0390008400093000C0
02A000B100057000C0
039000C000039000C0
056000B00002A000B1
0A7310B00003A00085
0B7896A20005CAA949
0A2000C00003B10167
0A2004800000C9D475
0C000687CCBC931C84
2B0007B558000008A5
850005800B00000798
5A2007900A00012A3C
05ECB700025BEA982C
00B317BBCC827CABB2
001BB5100000001100
ENDCHAR
STARTCHAR v
ENCODING 118
SWIDTH 506 0
DWIDTH 16 0
BBX 17 23 0 -1
BITMAP
027972000001430000
5C635C00003C8AC300
D0000C000047002C10
95000C000056001C00
2A000B100084006600
0C00076000C000A100
0A2001C005A200B000
0A58A5A20A89B3B000
0AB300930B0002B000
058000750C00084000
00C100480B000B0000
0075001C58001A0000
00390009D610290000
001B0123D8A9390000
000EBA72B001660000
000B20029000B00000
000480065003800000
0000C00B1007500000
0000B1490009200000
00009393000A200000
0000933C412C200000
00008836FCA4000000
000006983000000000
ENDCHAR
STARTCHAR w
ENCODING 119
SWIDTH 735 0
DWIDTH 24 0
BBX 25 23 -1 -1
BITMAP
00389720000000000029BB6000
06B536B00000452000A5017B00
1D0001B0002B97B60093000B20
0A3000C000B2003700A2002A00
049000C000E5002800C0007500
00C0009403AB000B02B000A100
00C0003B097B1008486000B000
00B59A4B1D8C4573BDBBA3C000
00BA300A2B08D621BC0001C000
006700083B049000BB00048000
000C00067A00A1009B00093000
00094002E70065004A000C0000
00057000B510373595000C0000
00029013C9AA4E96D8410C0000
0001DBA7B0006E10C56A4C0000
0000C100B000B950C0003A0000
000067029001B391B000940000
00001B07500391A49000C00000
00000C0B100471A94000C00000
00000B58000471BC0000B00000
00000B2C5107704A0000B00000
00000A74DFB70009A547B00000
00000069720000003785000000
ENDCHAR
STARTCHAR x
ENCODING 120
SWIDTH 483 0
DWIDTH 15 0
BBX 16 22 0 0
BITMAP
0027830000464000
07B54B0001C59C10
4A000B10066004B0
860006600B1000C2
0B4000C167000880
01C0004BB0004A00
0076003E5000C100
001B19E78B248000
000BC4C002592000
0006A580004A0000
00008D1002C10000
000095000AC30000
0005D200392C0000
000B6C709D784000
002A0074B103A000
00A300098000B200
05900069C0003B00
4B0001B067000690
C10008400C000095
B2000C00075000B2
3C30390003901980
03ABB300009CB400
ENDCHAR
STARTCHAR y
ENCODING 121
SWIDTH 484 0
DWIDTH 16 0
BBX 18 22 -1 0
BITMAP
004991000002BCA400
099476000005703B70
48001C0000084000B3
A3000680000C0001C1
3C2000A60067000A40
02C1000A62C1003A00
00490173BCC6108400
000B4B305C26B2C000
0004E200490003B000
0000A60094000B3000
00000A41C000580000
000001BA5000B10000
0000005E5001B00000
000000776B54800000
000000B10058500000
000002B0004B000000
00000A4000C2000000
00005A000490000000
0001D1000930000000
0000C3000C00000000
00003C734C00000000
000000598200000000
ENDCHAR
STARTCHAR z
ENCODING 122
SWIDTH 458 0
DWIDTH 15 0
BBX 16 23 -1 0
BITMAP
0001100020001200
001BBBBAEBBBAC10
00750000A2000570
00920000830002E3
00840000810004AA
003B379869AB9CC6
00059423D6002B70
00000009C2002B00
0000001C6B709400
000000580062C000
000000B200087000
00000680005A0000
00003C1001C10000
0000CA2007600000
0003A4C60C000000
000940074B000000
003B0001C3000000
01C2000AEA88BB00
1C400059A2320660
390000B183000290
0C3002A082000380
02B859A545886A30
0008C75686325600
ENDCHAR
STARTCHAR braceleft
ENCODING 123
SWIDTH 473 0
DWIDTH 15 0
BBX 16 28 -1 -3
BITMAP
0000000000001620
000000255369B6C2
00000AB77D510048
000087000B00001B
000086000A000048
00000C100699AAA2
0000075000C30000
00000498B7660000
000003E500390000
000000B2000C0000
0065203813077000
09769AABAB50B200
0C00000001B1C100
1B00000000EC4000
0C10011003AA6000
04CBBA9EBC22B000
00000057000A3000
000002D100390000
000008BBA2740000
00000A1025A20000
00001B0004A00000
000076000B720000
0003B0001B58AAC3
0004800047000048
0000B71076000039
000006CFF8640085
000000132357AAA0
0000000000000100
ENDCHAR
STARTCHAR bar
ENCODING 124
SWIDTH 263 0
DWIDTH 8 0
BBX 8 27 0 -2
BITMAP
00046300
03DA8BB1
07600076
04800093
02A000C0
01B000C0
03A000C0
048000C0
088651A1
0BB77693
093000B1
066000C0
057000C0
048000B0
057000C0
075000B0
09BA8493
096355A2
075000C0
066000C0
066001B0
075001B0
093000C0
0C0000C1
1D0000A3
07B66AA0
00377400
ENDCHAR
STARTCHAR braceright
ENCODING 125
SWIDTH 473 0
DWIDTH 15 0
BBX 16 28 0 -3
BITMAP
0172000000000000
1C6BA63453000000
660015C96AB10000
830000A1005A0000
660000B0003B0000
19AAA88000B10000
00002D1002900000
0000386A97600000
000065003D500000
0000B1001C100000
0004902266015710
001C13B9BAA975B0
000C1930000000A3
0003CE2000000094
0004B950011000C1
000951CBEA9ABC60
0001C00067000000
000065000C300000
00002A19BAA00000
00000C4300B00000
0000085000920000
000026C000390000
1CAA859300095000
6600005600066000
75000049016C1000
3900368EFD710000
09AA753231000000
0020000000000000
ENDCHAR
STARTCHAR asciitilde
ENCODING 126
SWIDTH 456 0
DWIDTH 15 0
BBX 14 9 0 8
BITMAP
00000000000100
0002CBD600B9B2
0009308E04702A
0039008A6A1049
01B10580B801B1
0A403D50390930
3800A2B0068900
1B14707407D300
03AA101BBDA000
ENDCHAR
STARTCHAR nonbreakingspace
ENCODING 160
SWIDTH 200 0
DWIDTH 6 0
BBX 1 1 0 0
BITMAP
00
ENDCHAR
STARTCHAR exclamdown
ENCODING 161
SWIDTH 259 0
DWIDTH 8 0
BBX 7 24 1 -1
BITMAP
00010000
06BAB500
0B000B00
0B001A00
0B000C00
07BAB600
00010000
039A7100
4A315B00
57000C00
29001B00
29002A00
48001B00
66000C00
93000C00
A3ABCE00
84001B00
65002A00
75002900
83001B00
B1000B00
C0000B10
A9558B10
03663000
ENDCHAR
STARTCHAR cent
ENCODING 162
SWIDTH 480 0
DWIDTH 15 0
BBX 15 30 0 -4
BITMAP
0000000020000000
000001ABAC400000
0000076000C00000
0000056000B00000
0000038001900000
000002900389B200
000002846AD53B00
000004DBC3000840
003BBA4093000480
04C3000037002770
1CA20000045B9820
0C4700059B800000
0B1B32B720000000
0B01AE4000000000
0C56456000000000
2D75648000000000
0A00065000000000
0A00084000000000
0B0007B520000000
1B000497AE500000
390002B00B8B7510
09B89C3029015870
006EB61092000390
000237E820000570
00000296ACA21C10
00000380058BC500
0000047005601000
0000064004700000
0000094003900000
000001ABBB200000
ENDCHAR
STARTCHAR sterling
ENCODING 163
SWIDTH 594 0
DWIDTH 19 0
BBX 19 23 0 -1
BITMAP
00000008C71000000000
0000008706B940000000
00001AD000038BCA0000
00003AB0000000093000
00000CC0000000084000
00000C6CBA73000B2000
00000C000B69B6690000
00002A00093017800000
01738DBA866041000000
0C68C60008CB9B000000
480039000B100A300000
67001B000C0008400000
49002A000B000A200000
0B68C80009CB8B000000
01737DBBA67141000000
00005700093000002000
000039000CCEBAABB900
000039000B0B12100B10
000057000C0920000840
0000A300093910000930
0000C300099358985C00
00002BBBC87963236300
00000012000000000000
ENDCHAR
STARTCHAR currency
ENCODING 164
SWIDTH 640 0
DWIDTH 20 0
BBX 20 19 0 2
BITMAP
007CC20002000005CA20
08802B006BC7002B03C1
1B000681C13EC7B20057
2A00008C52C20B40003A
08A103C4093002B106A1
003B2CAA1B00002B9700
0002D504A5C4002DF500
00088000458960941980
00B700006B1098A000A2
01B00006D0018A000067
00B3002B7709D70007A2
002C5093089A07906800
001BCE80004B3062E400
05B318910007401B5A70
1B10007B002C02C30069
1A0003A596C20BA00038
0A501B106E30574901B2
01BAB50003BCD107AC40
00022000000000002000
ENDCHAR
STARTCHAR yen
ENCODING 165
SWIDTH 575 0
DWIDTH 18 0
BBX 18 22 0 0
BITMAP
000352000000486200
01BA8A000000C46B80
0A400B200001B00096
390003A00006700059
2C300087000B1002C1
01C200098068000940
002B0013A7E3001C00
000764A42F89C35700
0001DB000C10158400
000088001B0003B000
0000396078000B3000
000B9CEBBECAAED500
005800000841101C00
007500000650000C00
006600000740000C00
002B14676447755900
0005CAC469AA369100
00000A4000A2000000
0000780002B0000000
000095000670000000
00001C500840000000
0000018CCA10000000
ENDCHAR
STARTCHAR brokenbar
ENCODING 166
SWIDTH 258 0
DWIDTH 8 0
BBX 7 30 1 -4
BITMAP
00110000
3BBAC500
A3001D00
75000B00
47002900
56001A00
98882B00
B6232C00
82001A00
74001A00
74000B00
A2000B00
C1001B20
3BBBC500
00110000
00000000
18BB9200
A6003D00
74000B00
56002900
56002900
86541B00
BA764C00
92000B00
73001A00
74001B00
92000B00
C0000B20
6C77B800
01552000
ENDCHAR
STARTCHAR section
ENCODING 167
SWIDTH 474 0
DWIDTH 15 0
BBX 14 24 1 -1
BITMAP
0000025335AB10
4CCBBAC9862570
B10000660000B0
B01000370000B0
C9B81023245590
9804ABBB966810
B10001C7B51000
A1000650059B50
5BA618101BAAB0
0096B6205502C0
029007CBC10083
0A100913800380
7400190A100A10
93006BCC203800
BB64B3B3AAB500
A4673740015870
38AA35100000B0
0201AA730001A0
6BAA96BAB30A90
C000005619B5B0
C00000370000B0
C1000013588870
695AAABB633400
06710000000000
ENDCHAR
STARTCHAR dieresis
ENCODING 168
SWIDTH 351 0
DWIDTH 11 0
BBX 12 5 0 24
BITMAP
4AAA914ABA50
C200A2B100C1
7500B0A101A0
4700B0920380
2BAB603BBB40
ENDCHAR
STARTCHAR copyright
ENCODING 169
SWIDTH 719 0
DWIDTH 23 0
BBX 23 25 0 -1
BITMAP
000240000000001000000000
001B8BBBBEBAABEB878B5000
008400000A0110733499D100
08C400000900006309735C10
07881565243553324A200B00
0568AC458B8668B97A501A00
04701A000000000006502900
05501A005A999AA007402900
09540B01C12221830B441B00
0C975B07F22321830D874B00
0A100B04CAD889A00B001A00
0730290380A0000009203700
0640380290B0000008304700
07301A0380B0000009203800
0A530B0470A556600C430B00
0B775B06509865B10C774B00
09201A04BBB200920B102900
083038002DAAAAC009104700
09203700000000000A104600
0B002A46864359721B533800
1A000C65A6776798AA7B1A00
1B314B008100027000087B00
02EB91007000034000088100
009ABBBB9BBBB9ABBA7B0000
000200002100011001520000
ENDCHAR
STARTCHAR ordfeminine
ENCODING 170
SWIDTH 455 0
DWIDTH 15 0
BBX 16 23 -1 -1
BITMAP
00001BCDCCCA1000
0000383C20075000
0000578500066000
0000842B00048000
0000C0093000C000
0003A00480009300
000B3001C0005A00
004EB924E159CC00
00660276F3430C00
0093210C59000A20
00C5989A9D100660
058B0000066001B0
0C1C000002A000A3
4907758999D0002B
0B50479000B00197
018CCB30006CCC60
0000642000142000
0007769AAA97C000
000B000000007500
000C000000006600
000B20012210A300
0003CBA988AB8000
0000100000000000
ENDCHAR
STARTCHAR guillemotleft
ENCODING 171
SWIDTH 689 0
DWIDTH 22 0
BBX 21 15 0 4
BITMAP
0000000620000000035000
000000A7B70000003B7C20
00001A500B300005B103B0
0005B300047001980000B0
05B7000018718B300003C0
2A100006B409400001A810
390000A7000A20003C3000
0D201C600006A004D10000
2BC7A5B200099B6A790000
2A15301A6009426105B200
06B400007B229910002A80
00089000065003B40000B0
00004B100B3000096003B0
000003A299000000954C30
0000004A50000000098200
ENDCHAR
STARTCHAR logicalnot
ENCODING 172
SWIDTH 591 0
DWIDTH 19 0
BBX 18 13 0 1
BITMAP
004100002200000200
099BCBCCCECBABCC20
2B0000000B01116A90
480000000B003C6598
3A0000000A0083000B
0C2367875478B6000A
03B964457853570038
000000000000280046
000000000000380055
000000000000470046
000000000000650037
000000000000870049
00000000000008CC91
ENDCHAR
STARTCHAR uni00AD
ENCODING 173
SWIDTH 465 0
DWIDTH 15 0
BBX 14 7 0 7
BITMAP
01963358521361
0B46876AAAB979
2A00000470000C
3900000370000B
1C00000430000C
0888BBB9ABBBA6
00630002200130
ENDCHAR
STARTCHAR registered
ENCODING 174
SWIDTH 719 0
DWIDTH 23 0
BBX 23 25 0 -1
BITMAP
000240000000001000000000
001B8BBBBEBAABEB878B5000
008400000A0110733499D100
08C400000900006309735C10
07881565243553324A200B00
0568AC458B8668B97A501A00
04701A000000000006502900
05501A000161000007402900
09540B029D7A95310B441B00
0C975B057A0025980D874B00
0A100B047B9620560B001A00
0730290380969BB109203700
0640380290A1013008304700
07301A0290A1000009203800
0A530B02909200000C430B00
0B775B03808300000C774B00
09201A04708300000B102900
08303804B8C3000009104700
09203700131000000A104600
0B002A46864359721B533800
1A000C65A6776798AA7B1A00
1B314B008100027000087B00
02EB91007000034000088100
009ABBBB9BBBB9ABBA7B0000
000200002100011001520000
ENDCHAR
STARTCHAR macron
ENCODING 175
SWIDTH 263 0
DWIDTH 8 0
BBX 9 5 0 24
BITMAP
0210001100
6AABBBAB10
B000000650
B012210640
4B989ABA00
ENDCHAR
STARTCHAR degree
ENCODING 176
SWIDTH 333 0
DWIDTH 11 0
BBX 11 10 0 12
BITMAP
000430230000
002B8CAA4000
00A20571A000
05800A509300
4B0098801B00
7504B4C20820
0C9C77796B00
0B2000067800
0A5677649400
016433465000
ENDCHAR
STARTCHAR plusminus
ENCODING 177
SWIDTH 464 0
DWIDTH 15 0
BBX 15 22 0 -4
BITMAP
0000001430000000
000007B8AB100000
00001B0006600000
00000A0007300000
01741A252A014000
0A68AA8BBCCBA700
1B00000470000C00
3900000370000B10
1B00000440000C00
0A569A978AB98800
01862B254B026000
00000B000B000000
000029000B000000
00000A979A000000
0000003530000000
0063002520003000
0979BA9CCBCBA700
1B00000570000C00
3900000370000B10
1B00000450000C00
0A558A967AA88800
0196312551136100
ENDCHAR
STARTCHAR twosuperior
ENCODING 178
SWIDTH 324 0
DWIDTH 10 0
BBX 10 14 0 9
BITMAP
0010000000
0A88888860
36000000A0
3600000090
0A688874A0
0131902790
0008201900
0046008200
0280037000
0A000A88A3
0A10360018
08C8A10019
02AA9888A3
0000000010
ENDCHAR
STARTCHAR threesuperior
ENCODING 179
SWIDTH 332 0
DWIDTH 11 0
BBX 10 14 0 9
BITMAP
0110000000
1A88888950
45000000B4
55000000A8
1A688865A7
0137796536
0008034026
0008034026
0007793018
03988C2009
0A1008302A
0A00007AC6
0652788760
0067100000
ENDCHAR
STARTCHAR acute
ENCODING 180
SWIDTH 202 0
DWIDTH 6 0
BBX 7 7 0 24
BITMAP
001CA300
00851B20
01B00850
0A307800
86049000
C11B1000
3BC30000
ENDCHAR
STARTCHAR mu
ENCODING 181
SWIDTH 582 0
DWIDTH 19 0
BBX 18 27 0 -5
BITMAP
0029BB810006CBBB30
00D3005C003C1003A0
00B1000C000C000470
00920039000B100660
00930057000A200660
00A20066000A200470
00B10065000B1211B0
00D00066000ECAA3C0
03D87448000C0000C0
05B4364900093001A0
0290007600066001B0
01B0009300057000C0
00C000A200057000B1
00C000B10007956375
01B000B10007B65675
049000A200039680A2
07B86378877AD778B1
0683567AB842000CA2
057000B139000009A4
048000C00A00000B58
057000C00527ABBA1C
066000D9ABB6C757C4
093000C21100156510
0C0000B00000000000
1D1000B30000000000
03CBAC600000000000
000110000000000000
ENDCHAR
STARTCHAR paragraph
ENCODING 182
SWIDTH 556 0
DWIDTH 18 0
BBX 17 25 0 -1
BITMAP
000000000004400000
00000000019A980000
00000036AB500AC600
000007F72000048870
0137C6830000039750
3D9510480001496A10
5600000904BD760B00
48000025A83A000C00
1C105CB63057000B10
0ACA84B300ADBB7840
0B33002A8194000A20
06B400009E87000C00
0019800692D8000C00
0000690A0048000C00
000007810057000C00
0000006C3078430930
00000002B59A787840
0000000009C5000C10
0000000000A7000C00
000000000057000C00
000000000065000C00
0000000000A2000C00
0000000000C0000940
000000000099437C10
000000000004886000
ENDCHAR
STARTCHAR periodcentered
ENCODING 183
SWIDTH 215 0
DWIDTH 7 0
BBX 5 6 1 9
BITMAP
024200
A97990
B000B0
B001A0
C102B0
3ABA30
ENDCHAR
STARTCHAR cedilla
ENCODING 184
SWIDTH 237 0
DWIDTH 8 0
BBX 8 11 0 -8
BITMAP
00003850
0003A386
00047064
00038074
00037064
00395047
9B87B7A6
A00016B0
B118B830
3CA30000
01000000
ENDCHAR
STARTCHAR onesuperior
ENCODING 185
SWIDTH 286 0
DWIDTH 9 0
BBX 9 14 0 9
BITMAP
0000161000
000094B300
0019201A00
0681001A00
9300068A20
A000940800
6708A00900
0494800900
0000800900
0000800900
0000800800
0002700630
0000A77A10
0000033000
ENDCHAR
STARTCHAR ordmasculine
ENCODING 186
SWIDTH 476 0
DWIDTH 15 0
BBX 15 23 0 0
BITMAP
0010000000000000
03CCBABDD989C700
0B20121392420C10
0C000000B0488B30
0C00000197A44A70
0E3035423C0001A0
0CCB8AAAAB300460
0A00092006400730
0A000A0006400820
0A000A0007300910
0A000A253A104920
0A000B9ADCBB9F40
1C302C11A0000A30
0D9CA300B0000830
0C00000170000A20
07859AA76AB97B00
0077312552026200
0006841000120000
0059379AAA9C2000
00B2000000048000
00B1000000029000
0076012210066000
000AB9889AAB1000
ENDCHAR
STARTCHAR guillemotright
ENCODING 187
SWIDTH 689 0
DWIDTH 22 0
BBX 21 15 1 4
BITMAP
0053000000002600000000
2C7B30000006C7A0000000
A501A600002C104B200000
B00007A100650002B60000
C400003A8259100006B600
18A200003A03B700000930
002B40001B0006A1000740
0000C5008800004C102D10
0008797B9A0002B5B7CB30
02A6006229005B20351930
7A200019A22A700004B700
B00003B300470000891000
A3005A10002B001A500000
2C54A0000008A2A4000000
018A000000004A50000000
ENDCHAR
STARTCHAR onequarter
ENCODING 188
SWIDTH 790 0
DWIDTH 25 0
BBX 25 23 0 0
BITMAP
00000440000000000000000000
00004869000024200000000000
000670083004A5890000000000
03940007500450074000000000
480002968006300A0000000000
55003911800910280000000000
1A23B402700A00640000000000
01884503604700820000000000
0000440360AA84900000000000
0000530270A001A00000000000
0000620180A002800002620000
0000900090A0073000094A3000
00005969537009000073009000
000001310730090005603AB800
000000000C9519004700900550
0000000009035A057001C00530
0000000019006547000BA54720
000000004600A037007543A820
000000008200A00D8570006B20
00000001A00190093743208820
00000003700180029655B86540
00000000897960000000900360
000000000131000000005A9910
ENDCHAR
STARTCHAR onehalf
ENCODING 189
SWIDTH 771 0
DWIDTH 25 0
BBX 24 24 0 -1
BITMAP
000004400000000000000000
000048690000242000000000
000670083004A58900000000
039400075004500740000000
480002968006300A00000000
550039118009102800000000
1A23B402700A006400000000
018845036047008200000000
0000440360AA849000000000
0000530270A001A000000000
0000620180A0028000000000
0000900090A0073698877860
000059695370090900022081
000001310730091800000063
000000000C95190A356642A1
0000000009035A0164A347D0
000000001900650004600730
000000004600A00019003600
000000008200A00091009000
00000001A00190083006A894
000000037001800920090009
0000000089796006C6840009
0000000001310001AAB88667
000000000000000022000250
ENDCHAR
STARTCHAR threequarters
ENCODING 190
SWIDTH 817 0
DWIDTH 26 0
BBX 26 23 0 0
BITMAP
00100000000000000000000000
0A888889600002430000000000
46000000B5003A589100000000
45000000990046006500000000
0A68887498005400A000000000
01367875270082019000000000
000802601700A0055000000000
00080350170370072000000000
000779400809A8581000000000
02988B30090A001A0000000000
091007401A0A00190000262000
0A00007AC70A00640000949300
05627887712800910006400900
0068200000640090004603AB81
0000000000B961900370091046
00000000009035A058001D0054
00000000009005637000AA6563
0000000003700A128007643982
0000000008200A00D8480005B2
000000001A000A009374320883
000000003800090028755B8745
00000000079796000000090027
0000000000131000000005A991
ENDCHAR
STARTCHAR questiondown
ENCODING 191
SWIDTH 455 0
DWIDTH 15 0
BBX 14 24 0 -1
BITMAP
00000000586100
00000009735C00
00000009200B00
0000000A100B00
0000000B523C20
00000001697200
00000000130000
0000001BA9C600
00000047000C00
00000028002900
0000005D812900
000004A15B1A00
00018800068B00
016B400003D200
3B7300003A5000
59CB823A830000
2E104ACC500000
290000137B9760
48000092003587
1C8610B000001B
0236B9A000002A
000006CB940076
0000000028B7C1
00000000003600
ENDCHAR
STARTCHAR Agrave
ENCODING 192
SWIDTH 507 0
DWIDTH 16 0
BBX 18 31 -1 0
BITMAP
000000001000000000
000001ABC200000000
00000B306400000000
00000A203800000000
000002B00B00000000
000000660660000000
0000000B03A0000000
00000006BA10000000
000000353000000000
00000AA8AC30000000
00000B1002C1000000
00000C0002DAA00000
00000C000840C00000
000039000C00C00000
000094000C00B10000
0002EA822A00750000
0004A2483A002A0000
000480007C486A2000
00057000CC92084000
00084002A760074000
000B100571B0057740
003B100664D56AD6B2
007BBB66EBC7520039
0084004850B000000B
0093001C008200001B
00C00057005127ABC6
02A00094467BA53B30
094000BB854A400570
1C0000B000075000C1
0A7000C100066016C2
007CCB600003ACB610
ENDCHAR
STARTCHAR Aacute
ENCODING 193
SWIDTH 507 0
DWIDTH 16 0
BBX 18 30 -1 0
BITMAP
000000000008B70000
00000000002A067000
00000000009302B000
0000000005802B1000
000000002B01B20000
000000007608400000
0000000009B9000000
000000353000000000
00000AA8AC30000000
00000B1002C1000000
00000C0002DAA00000
00000C000840C00000
000039000C00C00000
000094000C00B10000
0002EA822A00750000
0004A2483A002A0000
000480007C486A2000
00057000CC92084000
00084002A760074000
000B100571B0057740
003B100664D56AD6B2
007BBB66EBC7520039
0084004850B000000B
0093001C008200001B
00C00057005127ABC6
02A00094467BA53B30
094000BB854A400570
1C0000B000075000C1
0A7000C100066016C2
007CCB600003ACB610
ENDCHAR
STARTCHAR Acircumflex
ENCODING 194
SWIDTH 507 0
DWIDTH 16 0
BBX 18 31 -1 0
BITMAP
00000007BCB2000000
0000001B01D8000000
0000008401CB100000
000003A00A33A00000
00001B107D10870000
00008301A4700B2000
0000580920B00B1000
000007B8005BB40000
000000353000000000
00000AA8AC30000000
00000B1002C1000000
00000C0002DAA00000
00000C000840C00000
000039000C00C00000
000094000C00B10000
0002EA822A00750000
0004A2483A002A0000
000480007C486A2000
00057000CC92084000
00084002A760074000
000B100571B0057740
003B100664D56AD6B2
007BBB66EBC7520039
0084004850B000000B
0093001C008200001B
00C00057005127ABC6
02A00094467BA53B30
094000BB854A400570
1C0000B000075000C1
0A7000C100066016C2
007CCB600003ACB610
ENDCHAR
STARTCHAR Atilde
ENCODING 195
SWIDTH 507 0
DWIDTH 16 0
BBX 18 32 -1 0
BITMAP
000000000000010000
000000BACA008AB500
000004803F40B00B10
00000B103BA5601B10
00008502B17C009400
0005900BA00A148000
000B00669302AA1000
000941B02902C80000
00019B4009ACC20000
000000353000000000
00000AA8AC30000000
00000B1002C1000000
00000C0002DAA00000
00000C000840C00000
000039000C00C00000
000094000C00B10000
0002EA822A00750000
0004A2483A002A0000
000480007C486A2000
00057000CC92084000
00084002A760074000
000B100571B0057740
003B100664D56AD6B2
007BBB66EBC7520039
0084004850B000000B
0093001C008200001B
00C00057005127ABC6
02A00094467BA53B30
094000BB854A400570
1C0000B000075000C1
0A7000C100066016C2
007CCB600003ACB610
ENDCHAR
STARTCHAR Adieresis
ENCODING 196
SWIDTH 507 0
DWIDTH 16 0
BBX 18 29 -1 0
BITMAP
00006AAB806BBA3000
0002C000B1B002C000
0000B10290B0057000
0000830380B0074000
00005BAB406BBA1000
000000000000000000
000000353000000000
00000AA8AC30000000
00000B1002C1000000
00000C0002DAA00000
00000C000840C00000
000039000C00C00000
000094000C00B10000
0002EA822A00750000
0004A2483A002A0000
000480007C486A2000
00057000CC92084000
00084002A760074000
000B100571B0057740
003B100664D56AD6B2
007BBB66EBC7520039
0084004850B000000B
0093001C008200001B
00C00057005127ABC6
02A00094467BA53B30
094000BB854A400570
1C0000B000075000C1
0A7000C100066016C2
007CCB600003ACB610
ENDCHAR
STARTCHAR Aring
ENCODING 197
SWIDTH 507 0
DWIDTH 16 0
BBX 18 33 -1 0
BITMAP
000000021001000000
0000001CAABB400000
000000840662A00000
000003A00760A20000
00002B106B702B0000
00007502B1B1083000
00001C7B99983B1000
00000B420008980000
00000A345542660000
000002976669800000
000000353000000000
00000AA8AC30000000
00000B1002C1000000
00000C0002DAA00000
00000C000840C00000
000039000C00C00000
000094000C00B10000
0002EA822A00750000
0004A2483A002A0000
000480007C486A2000
00057000CC92084000
00084002A760074000
000B100571B0057740
003B100664D56AD6B2
007BBB66EBC7520039
0084004850B000000B
0093001C008200001B
00C00057005127ABC6
02A00094467BA53B30
094000BB854A400570
1C0000B000075000C1
0A7000C100066016C2
007CCB600003ACB610
ENDCHAR
STARTCHAR AE
ENCODING 198
SWIDTH 797 0
DWIDTH 26 0
BBX 27 24 -1 -1
BITMAP
0000000000000156400110002100
0000000003656C769CBCDBBCAB00
000000000C68E6000842A0000840
000000002A001C200B00B0000570
00000000850006800C0190000650
00000001C0002C100D6558BA7C10
0000000B4000B6000D5773124300
0000009C2004F8761C0000000000
000000C5A909E6443B1000000000
00000390043CA2000E867A900000
00000940008775001B3541A30000
00002C0003A066002A0000560000
0000B4000B2075001A0000660000
0006D2003D76B3000C6641B20000
000B5A917634DCBA4A657B800000
001B0045B100A2011B0000000000
00850006900083001B3400000000
03B0002D7898B4003D9DCA8AC400
1C2000B74222A300390741311B00
950002B00000B1002A0640000B00
690006600000B0000C0810000B00
09A32A300002C1001D9579745900
0038A70000005CBBC5364348B100
0000000000000011000000000000
ENDCHAR
STARTCHAR Ccedilla
ENCODING 199
SWIDTH 515 0
DWIDTH 16 0
BBX 17 31 0 -8
BITMAP
0006B6210200000000
003B269BBDD8657500
007400000663665B10
009300000560000740
007500000830000750
002D9BBA6345310A10
0059300C69768BB800
00B8520C0000001000
00D6684C0000000000
00C0002B0000000000
00C000660000000000
00C000930000000000
02A000A20000000000
079410930000000000
098798850000000000
084000C10000000000
09300390000004A300
0C000697CDCCC83C00
490007B51C00000750
A40005700A10000570
3C633A600910000840
04DA94011349BBBC00
00C34ACCEB8B000000
001A8300A10B000000
00000000B00B000000
00000015C00A000000
00003BA6A88C100000
0000640003A4000000
00004804AA61000000
000009B71000000000
000000100000000000
ENDCHAR
STARTCHAR Egrave
ENCODING 200
SWIDTH 490 0
DWIDTH 16 0
BBX 15 33 1 -1
BITMAP
0000001000000000
00006BA800000000
0005800A00000000
0005800B00000000
0000940650000000
00001B01B0000000
00000750B1000000
000001CB50000000
0000000000000000
0156400110002200
4C768CBCEBBCAC10
57000661B0000660
2A000A20B0000390
1B000C00A0000470
2A000D6548AA8B20
48000C5674124400
89772A2000000000
B844493000000000
75000C867AA00000
57000B3542750000
48000B0000390000
58000B0000380000
66000B6641840000
9CBA68857B900000
84002A2000000000
66000D3410000000
56000E9CCA99C500
75001B0571320C00
84000C0460000A10
C0000B1630000B10
D1000BA679843B00
4CBBC6364347B200
0011000000000000
ENDCHAR
STARTCHAR Eacute
ENCODING 201
SWIDTH 490 0
DWIDTH 16 0
BBX 15 32 1 -1
BITMAP
000000009B700000
00000002A0770000
0000000A202B0000
0000005802B10000
000003B01B100000
0000076094000000
0000019B90000000
0000000000000000
0156400110002200
4C768CBCEBBCAC10
57000661B0000660
2A000A20B0000390
1B000C00A0000470
2A000D6548AA8B20
48000C5674124400
89772A2000000000
B844493000000000
75000C867AA00000
57000B3542750000
48000B0000390000
58000B0000380000
66000B6641840000
9CBA68857B900000
84002A2000000000
66000D3410000000
56000E9CCA99C500
75001B0571320C00
84000C0460000A10
C0000B1630000B10
D1000BA679843B00
4CBBC6364347B200
0011000000000000
ENDCHAR
STARTCHAR Ecircumflex
ENCODING 202
SWIDTH 490 0
DWIDTH 16 0
BBX 15 32 1 -1
BITMAP
000008BCB1000000
00001B01E7000000
00009301CB100000
0004900A24900000
002B108C00960000
00920295600B1000
00570A20B01B0000
0008B8006BB30000
0156400110002200
4C768CBCEBBCAC10
57000661B0000660
2A000A20B0000390
1B000C00A0000470
2A000D6548AA8B20
48000C5674124400
89772A2000000000
B844493000000000
75000C867AA00000
57000B3542750000
48000B0000390000
58000B0000380000
66000B6641840000
9CBA68857B900000
84002A2000000000
66000D3410000000
56000E9CCA99C500
75001B0571320C00
84000C0460000A10
C0000B1630000B10
D1000BA679843B00
4CBBC6364347B200
0011000000000000
ENDCHAR
STARTCHAR Edieresis
ENCODING 203
SWIDTH 490 0
DWIDTH 16 0
BBX 15 30 1 -1
BITMAP
007AAB707BBA2000
03B001B2A003B000
00B00380B0065000
00A10470B0092000
006BAA307BBA1000
0000000000000000
0156400110002200
4C768CBCEBBCAC10
57000661B0000660
2A000A20B0000390
1B000C00A0000470
2A000D6548AA8B20
48000C5674124400
89772A2000000000
B844493000000000
75000C867AA00000
57000B3542750000
48000B0000390000
58000B0000380000
66000B6641840000
9CBA68857B900000
84002A2000000000
66000D3410000000
56000E9CCA99C500
75001B0571320C00
84000C0460000A10
C0000B1630000B10
D1000BA679843B00
4CBBC6364347B200
0011000000000000
ENDCHAR
STARTCHAR Igrave
ENCODING 204
SWIDTH 266 0
DWIDTH 9 0
BBX 8 32 0 0
BITMAP
00010000
2ABD1000
B2083000
B2047000
2A00B000
07507500
01B04900
007B9100
00000000
00157500
04C757C3
05700066
02A000A2
01B000C0
02A000C0
048000C0
08A873A2
0B733493
075000C0
057000C0
048000C0
057000C0
075000B1
09CBA684
084001A2
066000C0
056000B0
075001B0
094000C0
0C0000B1
0D2001B3
03BBBC50
ENDCHAR
STARTCHAR Iacute
ENCODING 205
SWIDTH 266 0
DWIDTH 9 0
BBX 9 31 1 0
BITMAP
00000BB500
0000570940
0000B10580
0008504A00
005902B000
00A30B2000
002BB60000
0000000000
0157500000
4C757C3000
5700066000
2A000A2000
1B000C0000
2A000C0000
48000C0000
8A873A2000
B733493000
75000C0000
57000C0000
48000C0000
57000C0000
75000B1000
9CBA684000
84001A2000
66000C0000
56000B0000
75001B0000
94000C0000
C0000B1000
D2001B3000
3BBBC50000
ENDCHAR
STARTCHAR Icircumflex
ENCODING 206
SWIDTH 266 0
DWIDTH 9 0
BBX 11 32 -1 0
BITMAP
0001CBD70000
0008407E1000
002B007A7000
00A30490A200
08601D602C10
1A0093B10490
0B1290560670
02AB200BB900
000000000000
000157500000
004C757C3000
005700066000
002A000A2000
001B000C0000
002A000C0000
0048000C0000
008A873A2000
00B733493000
0075000C0000
0057000C0000
0048000C0000
0057000C0000
0075000B1000
009CBA684000
0084001A2000
0066000C0000
0056000B0000
0075001B0000
0094000C0000
00C0000B1000
00D2001B3000
003BBBC50000
ENDCHAR
STARTCHAR Idieresis
ENCODING 207
SWIDTH 266 0
DWIDTH 9 0
BBX 11 29 -1 0
BITMAP
5AAA915BBA40
D100B0C001D0
9300B0B00290
6501B0B00560
4BAB505BBB20
000000000000
000157500000
004C757C3000
005700066000
002A000A2000
001B000C0000
002A000C0000
0048000C0000
008A873A2000
00B733493000
0075000C0000
0057000C0000
0048000C0000
0057000C0000
0075000B1000
009CBA684000
0084001A2000
0066000C0000
0056000B0000
0075001B0000
0094000C0000
00C0000B1000
00D2001B3000
003BBBC50000
ENDCHAR
STARTCHAR Eth
ENCODING 208
SWIDTH 669 0
DWIDTH 21 0
BBX 23 25 -1 -1
BITMAP
000000000000310000000000
00000000258C9B0000000000
00000006CBA0077000000000
000000084C1000A500000000
000000057C00001A70000000
0000000488A200008B100000
00000005703C30000D900000
000000075002E30085A40000
0000000B7761DC28601C3000
0010000D6443B4B20001B700
0AAA976C8A10C04C500007A0
580012332492A001B6000390
7500000000C390001C401C30
6600000000C2A0005BC6C980
1B589A985870C006B14613B0
0263212DFF94B2C800005B30
0000000B1011CB8C30079000
000000093002F801A1590000
000000083003B00023C00000
00000009200480003C400000
0000000B1002A005B1000000
0000001B0000C04B10000000
0000003B0001D2C100000000
00000005CBBE7A4000000000
000000000114970000000000
ENDCHAR
STARTCHAR Ntilde
ENCODING 209
SWIDTH 598 0
DWIDTH 19 0
BBX 18 33 1 -1
BITMAP
000000000000010000
000000AACA007AB600
000003802F50B00A10
00000B103BA5700B10
00007601B16C108400
0004900AA00A139000
000B00568302BA1000
000840B02A02C90000
00018B4009ACC30000
015640000000256300
3C868DC40007B76AA0
57000699000A2000B1
2A000A3C00075000C0
1B000C0A20066002A0
2A000C049007500390
48000C00B4093002A0
89762A233C0D6761C0
B84449D72B2E6452C0
85000B00076C0002A0
57000C0002CA200480
48000E60009D300570
58000CC1001D300480
66000B850024A002A0
9CB9586A7B82DA93C0
84012A2D8000B222C0
66000C059000570480
56000C00B3000C1560
65001B00390004A660
84000C000C00008A70
C0000B10092001C3B0
D1000B3007835C42C0
4CBAC6000169EBBB30
001100000000011000
ENDCHAR
STARTCHAR Ograve
ENCODING 210
SWIDTH 612 0
DWIDTH 20 0
BBX 19 33 0 -1
BITMAP
00000000011000000000
00000005BA9000000000
0000004900B000000000
0000004900A100000000
00000008505600000000
00000000B00B00000000
00000000660A20000000
000000000BB600000000
00000000000000000000
0006B621020000000000
003B269BBDD868BA6000
007400000663665CA800
0093000005600007A600
0075000008300007C400
002D9BBA6345310A8400
0059300C6976CBB85600
00B8520C0000C1312A00
00D6684C0000ECA93C00
00C0002B0000D0001C00
00C00066000093001B00
00C00093000056000C00
02A000A2000048000C00
07941093000048000840
0987988500005B9A9580
084000C100004B201660
0930039000001C396840
0C0006859ECCBC83BB40
490007B6257000004F60
A400057001A000002CB0
3C633A6000A0000049D0
04DA94001135ABDDDE60
00C349CCBBB620576100
001A9300000000000000
ENDCHAR
STARTCHAR Oacute
ENCODING 211
SWIDTH 612 0
DWIDTH 20 0
BBX 19 32 0 -1
BITMAP
000000000002CA300000
00000000000931B10000
00000000002A00940000
0000000000B208600000
00000000094067000000
000000000C12B0000000
0000000004BC20000000
00000000000000000000
0006B621020000000000
003B269BBDD868BA6000
007400000663665CA800
0093000005600007A600
0075000008300007C400
002D9BBA6345310A8400
0059300C6976CBB85600
00B8520C0000C1312A00
00D6684C0000ECA93C00
00C0002B0000D0001C00
00C00066000093001B00
00C00093000056000C00
02A000A2000048000C00
07941093000048000840
0987988500005B9A9580
084000C100004B201660
0930039000001C396840
0C0006859ECCBC83BB40
490007B6257000004F60
A400057001A000002CB0
3C633A6000A0000049D0
04DA94001135ABDDDE60
00C349CCBBB620576100
001A9300000000000000
ENDCHAR
STARTCHAR Ocircumflex
ENCODING 212
SWIDTH 612 0
DWIDTH 20 0
BBX 19 32 0 -1
BITMAP
000000007BCB20000000
00000001B01D80000000
00000008501BB1000000
0000003A00A33A000000
000001B107D108700000
000008401A4700B20000
00000480930B00B10000
0000007B9005BB400000
0006B621020000000000
003B269BBDD868BA6000
007400000663665CA800
0093000005600007A600
0075000008300007C400
002D9BBA6345310A8400
0059300C6976CBB85600
00B8520C0000C1312A00
00D6684C0000ECA93C00
00C0002B0000D0001C00
00C00066000093001B00
00C00093000056000C00
02A000A2000048000C00
07941093000048000840
0987988500005B9A9580
084000C100004B201660
0930039000001C396840
0C0006859ECCBC83BB40
490007B6257000004F60
A400057001A000002CB0
3C633A6000A0000049D0
04DA94001135ABDDDE60
00C349CCBBB620576100
001A9300000000000000
ENDCHAR
STARTCHAR Otilde
ENCODING 213
SWIDTH 612 0
DWIDTH 20 0
BBX 19 33 0 -1
BITMAP
00000000000000010000
00000006BCC303BA9000
0000000B00CA08305600
0000007500BB3B008500
000003A00942E4049000
00001B106D10750B1000
00007401A3800A860000
0000390930A10BC00000
000006B8005BBD600000
0006B621020000000000
003B269BBDD868BA6000
007400000663665CA800
0093000005600007A600
0075000008300007C400
002D9BBA6345310A8400
0059300C6976CBB85600
00B8520C0000C1312A00
00D6684C0000ECA93C00
00C0002B0000D0001C00
00C00066000093001B00
00C00093000056000C00
02A000A2000048000C00
07941093000048000840
0987988500005B9A9580
084000C100004B201660
0930039000001C396840
0C0006859ECCBC83BB40
490007B6257000004F60
A400057001A000002CB0
3C633A6000A0000049D0
04DA94001135ABDDDE60
00C349CCBBB620576100
001A9300000000000000
ENDCHAR
STARTCHAR Odieresis
ENCODING 214
SWIDTH 612 0
DWIDTH 20 0
BBX 19 30 0 -1
BITMAP
00003AAAA23ABB600000
0000B20093B100B20000
00006600B09200B00000
00003800B08302900000
00002BAB703ABB400000
00000000000000000000
0006B621020000000000
003B269BBDD868BA6000
007400000663665CA800
0093000005600007A600
0075000008300007C400
002D9BBA6345310A8400
0059300C6976CBB85600
00B8520C0000C1312A00
00D6684C0000ECA93C00
00C0002B0000D0001C00
00C00066000093001B00
00C00093000056000C00
02A000A2000048000C00
07941093000048000840
0987988500005B9A9580
084000C100004B201660
0930039000001C396840
0C0006859ECCBC83BB40
490007B6257000004F60
A400057001A000002CB0
3C633A6000A0000049D0
04DA94001135ABDDDE60
00C349CCBBB620576100
001A9300000000000000
ENDCHAR
STARTCHAR multiply
ENCODING 215
SWIDTH 421 0
DWIDTH 14 0
BBX 13 13 0 4
BITMAP
00024100010000
009B8B00ABC400
07800966602D30
0C0000BB000480
2A000009A00390
08B20001E67A20
002C300A3C7000
0089C19302C500
1C404B10001970
1B0005E4000660
0B301B3B202C10
02C7A402B8C300
00054000440000
ENDCHAR
STARTCHAR Oslash
ENCODING 216
SWIDTH 612 0
DWIDTH 20 0
BBX 19 25 0 -2
BITMAP
0006B621020000000000
003B269BBDD869CD8000
0074000006637B01A700
00930000056075001C00
007500000831B0003B00
002D9BBA644A4001D500
0059300C69C9000A9600
00B8520C04D200492B00
00D6683C0B7C80A93C00
00C0001B2A0073901C00
00C0006693000A301B00
00C00086A00088000C00
02A000AC2003C8000C00
079410A6000B58000840
09879AF810485B9A9580
08400937D2924B201660
09302B0035B01C396840
0C0093001CDCBC83BB40
49059000997000004F60
A43B000491A000002CB0
3CC1000B10A0000049D0
03A000481135ABDDDE60
00C4009CBBB620576100
002CBAB0000000000000
00002200000000000000
ENDCHAR
STARTCHAR Ugrave
ENCODING 217
SWIDTH 583 0
DWIDTH 19 0
BBX 18 32 0 -1
BITMAP
000000001000000000
0000006BA900000000
000005800B00000000
000005800B00000000
000000940650000000
0000001B01B0000000
0000000750B2000000
00000001CB50000000
000255200000255200
007B77B80008B76A90
0093000B300D0000C0
0075000C000A2002A0
008400390008400390
009300570007500390
00C0006600075001B0
03D77357000A6662C1
06A44748000C9553B1
0390008400093000C0
02A000B100057000C0
039000C000039000C0
056000B00002A000B1
0A7310B00003A00085
0B7896A20005CAA949
0A2000C00003B10167
0A2004800000C9D475
0C000687CCBC931C84
2B0007B558000008A5
850005800B00000798
5A2007900A00012A3C
05ECB700025BEA982C
00B317BBCC827CABB2
001BB5100000001100
ENDCHAR
STARTCHAR Uacute
ENCODING 218
SWIDTH 583 0
DWIDTH 19 0
BBX 18 32 0 -1
BITMAP
00000000006B810000
0000000001B0490000
0000000007501C0000
000000003A01B30000
00000001B10A300000
000000049066000000
000000008BB0000000
000000000000000000
000255200000255200
007B77B80008B76A90
0093000B300D0000C0
0075000C000A2002A0
008400390008400390
009300570007500390
00C0006600075001B0
03D77357000A6662C1
06A44748000C9553B1
0390008400093000C0
02A000B100057000C0
039000C000039000C0
056000B00002A000B1
0A7310B00003A00085
0B7896A20005CAA949
0A2000C00003B10167
0A2004800000C9D475
0C000687CCBC931C84
2B0007B558000008A5
850005800B00000798
5A2007900A00012A3C
05ECB700025BEA982C
00B317BBCC827CABB2
001BB5100000001100
ENDCHAR
STARTCHAR Ucircumflex
ENCODING 219
SWIDTH 583 0
DWIDTH 19 0
BBX 18 32 0 -1
BITMAP
00000009BCB1000000
0000002A02E7000000
0000009302CB000000
000005800A24800000
00002B009B00950000
0000A20396600C1000
0000660A10B01B0000
000008B7006BB30000
000255200000255200
007B77B80008B76A90
0093000B300D0000C0
0075000C000A2002A0
008400390008400390
009300570007500390
00C0006600075001B0
03D77357000A6662C1
06A44748000C9553B1
0390008400093000C0
02A000B100057000C0
039000C000039000C0
056000B00002A000B1
0A7310B00003A00085
0B7896A20005CAA949
0A2000C00003B10167
0A2004800000C9D475
0C000687CCBC931C84
2B0007B558000008A5
850005800B00000798
5A2007900A00012A3C
05ECB700025BEA982C
00B317BBCC827CABB2
001BB5100000001100
ENDCHAR
STARTCHAR Udieresis
ENCODING 220
SWIDTH 583 0
DWIDTH 19 0
BBX 18 30 0 -1
BITMAP
00007AAB617BB92000
0004A001A39004A000
0000B00471A0074000
0000A10560B0092000
00007BAA207BBA0000
000000000000000000
000255200000255200
007B77B80008B76A90
0093000B300D0000C0
0075000C000A2002A0
008400390008400390
009300570007500390
00C0006600075001B0
03D77357000A6662C1
06A44748000C9553B1
0390008400093000C0
02A000B100057000C0
039000C000039000C0
056000B00002A000B1
0A7310B00003A00085
0B7896A20005CAA949
0A2000C00003B10167
0A2004800000C9D475
0C000687CCBC931C84
2B0007B558000008A5
850005800B00000798
5A2007900A00012A3C
05ECB700025BEA982C
00B317BBCC827CABB2
001BB5100000001100
ENDCHAR
STARTCHAR Yacute
ENCODING 221
SWIDTH 484 0
DWIDTH 16 0
BBX 18 29 -1 0
BITMAP
0000000000BB500000
000000000570940000
000000000B10580000
000000008504A00000
00000005902B000000
0000000A30B2000000
00000002BB60000000
004991000002BCA400
099476000005703B70
48001C0000084000B3
A3000680000C0001C1
3C2000A60067000A40
02C1000A62C1003A00
00490173BCC6108400
000B4B305C26B2C000
0004E200490003B000
0000A60094000B3000
00000A41C000580000
000001BA5000B10000
0000005E5001B00000
000000776B54800000
000000B10058500000
000002B0004B000000
00000A4000C2000000
00005A000490000000
0001D1000930000000
0000C3000C00000000
00003C734C00000000
000000598200000000
ENDCHAR
STARTCHAR Thorn
ENCODING 222
SWIDTH 520 0
DWIDTH 17 0
BBX 16 24 1 -1
BITMAP
0002000000000000
1ACAC91000000000
6800087000000000
3908DD3000000000
1B8707C610000000
1BC00017BC600000
3BA000000AAA2000
77B000000C03ACA5
ACBCB7105700002B
94001CC83000000C
67000C06CC820049
48000C0003CB82D3
48000C006B205CA4
66000C4C600002B4
896529BA80007A30
97466930940A6000
75000C0014950000
56000C003B700000
66001B06B2000000
84000B8800000000
B1000C8000000000
D0000A3000000000
7B66AA0000000000
0266300000000000
ENDCHAR
STARTCHAR germandbls
ENCODING 223
SWIDTH 884 0
DWIDTH 28 0
BBX 29 24 0 -1
BITMAP
00000034236BB000000024235AC100
02B99CAE88617701A99BAE89614900
0A47820B10001B0867830920000C00
0DC6690820001C0BC65B0640000C00
4A000C061355783C100B1422555A00
950007B9B86671770005B9B9667200
1B3001C30000000A4000C310000000
02B0005A00000001C1003B10000000
008400376000000067003580000000
002A5B62B00000000B4B71C0000000
000CA000A20000000AB10085000000
0005A0003B00000004B1001C100000
000077000790000000590005A00000
00000B200085000000093000670000
000004829A3900000002A18A3B0000
000000CB300B10000000BC400A2000
000000690005800000004A0003A000
021149BE500096021149BD70007800
6BAA73C2C0000B6BAA84C3C1000940
B00000A293001CB100008475000C20
C00000825702C4B00000643901B600
B1000134AEEF40930001249EDF6000
4B5BBAB82001003C4ABAA930010000
037100000000000282000000000000
ENDCHAR
STARTCHAR agrave
ENCODING 224
SWIDTH 507 0
DWIDTH 16 0
BBX 18 31 -1 0
BITMAP
000000001000000000
000001ABC200000000
00000B306400000000
00000A203800000000
000002B00B00000000
000000660660000000
0000000B03A0000000
00000006BA10000000
000000353000000000
00000AA8AC30000000
00000B1002C1000000
00000C0002DAA00000
00000C000840C00000
000039000C00C00000
000094000C00B10000
0002EA822A00750000
0004A2483A002A0000
000480007C486A2000
00057000CC92084000
00084002A760074000
000B100571B0057740
003B100664D56AD6B2
007BBB66EBC7520039
0084004850B000000B
0093001C008200001B
00C00057005127ABC6
02A00094467BA53B30
094000BB854A400570
1C0000B000075000C1
0A7000C100066016C2
007CCB600003ACB610
ENDCHAR
STARTCHAR aacute
ENCODING 225
SWIDTH 507 0
DWIDTH 16 0
BBX 18 30 -1 0
BITMAP
000000000008B70000
00000000002A067000
00000000009302B000
0000000005802B1000
000000002B01B20000
000000007608400000
0000000009B9000000
000000353000000000
00000AA8AC30000000
00000B1002C1000000
00000C0002DAA00000
00000C000840C00000
000039000C00C00000
000094000C00B10000
0002EA822A00750000
0004A2483A002A0000
000480007C486A2000
00057000CC92084000
00084002A760074000
000B100571B0057740
003B100664D56AD6B2
007BBB66EBC7520039
0084004850B000000B
0093001C008200001B
00C00057005127ABC6
02A00094467BA53B30
094000BB854A400570
1C0000B000075000C1
0A7000C100066016C2
007CCB600003ACB610
ENDCHAR
STARTCHAR acircumflex
ENCODING 226
SWIDTH 507 0
DWIDTH 16 0
BBX 18 31 -1 0
BITMAP
00000007BCB2000000
0000001B01D8000000
0000008401CB100000
000003A00A33A00000
00001B107D10870000
00008301A4700B2000
0000580920B00B1000
000007B8005BB40000
000000353000000000
00000AA8AC30000000
00000B1002C1000000
00000C0002DAA00000
00000C000840C00000
000039000C00C00000
000094000C00B10000
0002EA822A00750000
0004A2483A002A0000
000480007C486A2000
00057000CC92084000
00084002A760074000
000B100571B0057740
003B100664D56AD6B2
007BBB66EBC7520039
0084004850B000000B
0093001C008200001B
00C00057005127ABC6
02A00094467BA53B30
094000BB854A400570
1C0000B000075000C1
0A7000C100066016C2
007CCB600003ACB610
ENDCHAR
STARTCHAR atilde
ENCODING 227
SWIDTH 507 0
DWIDTH 16 0
BBX 18 32 -1 0
BITMAP
000000000000010000
000000BACA008AB500
000004803F40B00B10
00000B103BA5601B10
00008502B17C009400
0005900BA00A148000
000B00669302AA1000
000941B02902C80000
00019B4009ACC20000
000000353000000000
00000AA8AC30000000
00000B1002C1000000
00000C0002DAA00000
00000C000840C00000
000039000C00C00000
000094000C00B10000
0002EA822A00750000
0004A2483A002A0000
000480007C486A2000
00057000CC92084000
00084002A760074000
000B100571B0057740
003B100664D56AD6B2
007BBB66EBC7520039
0084004850B000000B
0093001C008200001B
00C00057005127ABC6
02A00094467BA53B30
094000BB854A400570
1C0000B000075000C1
0A7000C100066016C2
007CCB600003ACB610
ENDCHAR
STARTCHAR adieresis
ENCODING 228
SWIDTH 507 0
DWIDTH 16 0
BBX 18 29 -1 0
BITMAP
00006AAB806BBA3000
0002C000B1B002C000
0000B10290B0057000
0000830380B0074000
00005BAB406BBA1000
000000000000000000
000000353000000000
00000AA8AC30000000
00000B1002C1000000
00000C0002DAA00000
00000C000840C00000
000039000C00C00000
000094000C00B10000
0002EA822A00750000
0004A2483A002A0000
000480007C486A2000
00057000CC92084000
00084002A760074000
000B100571B0057740
003B100664D56AD6B2
007BBB66EBC7520039
0084004850B000000B
0093001C008200001B
00C00057005127ABC6
02A00094467BA53B30
094000BB854A400570
1C0000B000075000C1
0A7000C100066016C2
007CCB600003ACB610
ENDCHAR
STARTCHAR aring
ENCODING 229
SWIDTH 507 0
DWIDTH 16 0
BBX 18 33 -1 0
BITMAP
000000021001000000
0000001CAABB400000
000000840662A00000
000003A00760A20000
00002B106B702B0000
00007502B1B1083000
00001C7B99983B1000
00000B420008980000
00000A345542660000
000002976669800000
000000353000000000
00000AA8AC30000000
00000B1002C1000000
00000C0002DAA00000
00000C000840C00000
000039000C00C00000
000094000C00B10000
0002EA822A00750000
0004A2483A002A0000
000480007C486A2000
00057000CC92084000
00084002A760074000
000B100571B0057740
003B100664D56AD6B2
007BBB66EBC7520039
0084004850B000000B
0093001C008200001B
00C00057005127ABC6
02A00094467BA53B30
094000BB854A400570
1C0000B000075000C1
0A7000C100066016C2
007CCB600003ACB610
ENDCHAR
STARTCHAR ae
ENCODING 230
SWIDTH 797 0
DWIDTH 26 0
BBX 27 24 -1 -1
BITMAP
0000000000000156400110002100
0000000003656C769CBCDBBCAB00
000000000C68E6000842A0000840
000000002A001C200B00B0000570
00000000850006800C0190000650
00000001C0002C100D6558BA7C10
0000000B4000B6000D5773124300
0000009C2004F8761C0000000000
000000C5A909E6443B1000000000
00000390043CA2000E867A900000
00000940008775001B3541A30000
00002C0003A066002A0000560000
0000B4000B2075001A0000660000
0006D2003D76B3000C6641B20000
000B5A917634DCBA4A657B800000
001B0045B100A2011B0000000000
00850006900083001B3400000000
03B0002D7898B4003D9DCA8AC400
1C2000B74222A300390741311B00
950002B00000B1002A0640000B00
690006600000B0000C0810000B00
09A32A300002C1001D9579745900
0038A70000005CBBC5364348B100
0000000000000011000000000000
ENDCHAR
STARTCHAR ccedilla
ENCODING 231
SWIDTH 515 0
DWIDTH 16 0
BBX 17 31 0 -8
BITMAP
0006B6210200000000
003B269BBDD8657500
007400000663665B10
009300000560000740
007500000830000750
002D9BBA6345310A10
0059300C69768BB800
00B8520C0000001000
00D6684C0000000000
00C0002B0000000000
00C000660000000000
00C000930000000000
02A000A20000000000
079410930000000000
098798850000000000
084000C10000000000
09300390000004A300
0C000697CDCCC83C00
490007B51C00000750
A40005700A10000570
3C633A600910000840
04DA94011349BBBC00
00C34ACCEB8B000000
001A8300A10B000000
00000000B00B000000
00000015C00A000000
00003BA6A88C100000
0000640003A4000000
00004804AA61000000
000009B71000000000
000000100000000000
ENDCHAR
STARTCHAR egrave
ENCODING 232
SWIDTH 490 0
DWIDTH 16 0
BBX 15 33 1 -1
BITMAP
0000001000000000
00006BA800000000
0005800A00000000
0005800B00000000
0000940650000000
00001B01B0000000
00000750B1000000
000001CB50000000
0000000000000000
0156400110002200
4C768CBCEBBCAC10
57000661B0000660
2A000A20B0000390
1B000C00A0000470
2A000D6548AA8B20
48000C5674124400
89772A2000000000
B844493000000000
75000C867AA00000
57000B3542750000
48000B0000390000
58000B0000380000
66000B6641840000
9CBA68857B900000
84002A2000000000
66000D3410000000
56000E9CCA99C500
75001B0571320C00
84000C0460000A10
C0000B1630000B10
D1000BA679843B00
4CBBC6364347B200
0011000000000000
ENDCHAR
STARTCHAR eacute
ENCODING 233
SWIDTH 490 0
DWIDTH 16 0
BBX 15 32 1 -1
BITMAP
000000009B700000
00000002A0770000
0000000A202B0000
0000005802B10000
000003B01B100000
0000076094000000
0000019B90000000
0000000000000000
0156400110002200
4C768CBCEBBCAC10
57000661B0000660
2A000A20B0000390
1B000C00A0000470
2A000D6548AA8B20
48000C5674124400
89772A2000000000
B844493000000000
75000C867AA00000
57000B3542750000
48000B0000390000
58000B0000380000
66000B6641840000
9CBA68857B900000
84002A2000000000
66000D3410000000
56000E9CCA99C500
75001B0571320C00
84000C0460000A10
C0000B1630000B10
D1000BA679843B00
4CBBC6364347B200
0011000000000000
ENDCHAR
STARTCHAR ecircumflex
ENCODING 234
SWIDTH 490 0
DWIDTH 16 0
BBX 15 32 1 -1
BITMAP
000008BCB1000000
00001B01E7000000
00009301CB100000
0004900A24900000
002B108C00960000
00920295600B1000
00570A20B01B0000
0008B8006BB30000
0156400110002200
4C768CBCEBBCAC10
57000661B0000660
2A000A20B0000390
1B000C00A0000470
2A000D6548AA8B20
48000C5674124400
89772A2000000000
B844493000000000
75000C867AA00000
57000B3542750000
48000B0000390000
58000B0000380000
66000B6641840000
9CBA68857B900000
84002A2000000000
66000D3410000000
56000E9CCA99C500
75001B0571320C00
84000C0460000A10
C0000B1630000B10
D1000BA679843B00
4CBBC6364347B200
0011000000000000
ENDCHAR
STARTCHAR edieresis
ENCODING 235
SWIDTH 490 0
DWIDTH 16 0
BBX 15 30 1 -1
BITMAP
007AAB707BBA2000
03B001B2A003B000
00B00380B0065000
00A10470B0092000
006BAA307BBA1000
0000000000000000
0156400110002200
4C768CBCEBBCAC10
57000661B0000660
2A000A20B0000390
1B000C00A0000470
2A000D6548AA8B20
48000C5674124400
89772A2000000000
B844493000000000
75000C867AA00000
57000B3542750000
48000B0000390000
58000B0000380000
66000B6641840000
9CBA68857B900000
84002A2000000000
66000D3410000000
56000E9CCA99C500
75001B0571320C00
84000C0460000A10
C0000B1630000B10
D1000BA679843B00
4CBBC6364347B200
0011000000000000
ENDCHAR
STARTCHAR igrave
ENCODING 236
SWIDTH 266 0
DWIDTH 9 0
BBX 8 32 0 0
BITMAP
00010000
2ABD1000
B2083000
B2047000
2A00B000
07507500
01B04900
007B9100
00000000
00157500
04C757C3
05700066
02A000A2
01B000C0
02A000C0
048000C0
08A873A2
0B733493
075000C0
057000C0
048000C0
057000C0
075000B1
09CBA684
084001A2
066000C0
056000B0
075001B0
094000C0
0C0000B1
0D2001B3
03BBBC50
ENDCHAR
STARTCHAR iacute
ENCODING 237
SWIDTH 266 0
DWIDTH 9 0
BBX 9 31 1 0
BITMAP
00000BB500
0000570940
0000B10580
0008504A00
005902B000
00A30B2000
002BB60000
0000000000
0157500000
4C757C3000
5700066000
2A000A2000
1B000C0000
2A000C0000
48000C0000
8A873A2000
B733493000
75000C0000
57000C0000
48000C0000
57000C0000
75000B1000
9CBA684000
84001A2000
66000C0000
56000B0000
75001B0000
94000C0000
C0000B1000
D2001B3000
3BBBC50000
ENDCHAR
STARTCHAR icircumflex
ENCODING 238
SWIDTH 266 0
DWIDTH 9 0
BBX 11 32 -1 0
BITMAP
0001CBD70000
0008407E1000
002B007A7000
00A30490A200
08601D602C10
1A0093B10490
0B1290560670
02AB200BB900
000000000000
000157500000
004C757C3000
005700066000
002A000A2000
001B000C0000
002A000C0000
0048000C0000
008A873A2000
00B733493000
0075000C0000
0057000C0000
0048000C0000
0057000C0000
0075000B1000
009CBA684000
0084001A2000
0066000C0000
0056000B0000
0075001B0000
0094000C0000
00C0000B1000
00D2001B3000
003BBBC50000
ENDCHAR
STARTCHAR idieresis
ENCODING 239
SWIDTH 266 0
DWIDTH 9 0
BBX 11 29 -1 0
BITMAP
5AAA915BBA40
D100B0C001D0
9300B0B00290
6501B0B00560
4BAB505BBB20
000000000000
000157500000
004C757C3000
005700066000
002A000A2000
001B000C0000
002A000C0000
0048000C0000
008A873A2000
00B733493000
0075000C0000
0057000C0000
0048000C0000
0057000C0000
0075000B1000
009CBA684000
0084001A2000
0066000C0000
0056000B0000
0075001B0000
0094000C0000
00C0000B1000
00D2001B3000
003BBBC50000
ENDCHAR
STARTCHAR eth
ENCODING 240
SWIDTH 669 0
DWIDTH 21 0
BBX 23 25 -1 -1
BITMAP
000000000000310000000000
00000000258C9B0000000000
00000006CBA0077000000000
000000084C1000A500000000
000000057C00001A70000000
0000000488A200008B100000
00000005703C30000D900000
000000075002E30085A40000
0000000B7761DC28601C3000
0010000D6443B4B20001B700
0AAA976C8A10C04C500007A0
580012332492A001B6000390
7500000000C390001C401C30
6600000000C2A0005BC6C980
1B589A985870C006B14613B0
0263212DFF94B2C800005B30
0000000B1011CB8C30079000
000000093002F801A1590000
000000083003B00023C00000
00000009200480003C400000
0000000B1002A005B1000000
0000001B0000C04B10000000
0000003B0001D2C100000000
00000005CBBE7A4000000000
000000000114970000000000
ENDCHAR
STARTCHAR ntilde
ENCODING 241
SWIDTH 598 0
DWIDTH 19 0
BBX 18 33 1 -1
BITMAP
000000000000010000
000000AACA007AB600
000003802F50B00A10
00000B103BA5700B10
00007601B16C108400
0004900AA00A139000
000B00568302BA1000
000840B02A02C90000
00018B4009ACC30000
015640000000256300
3C868DC40007B76AA0
57000699000A2000B1
2A000A3C00075000C0
1B000C0A20066002A0
2A000C049007500390
48000C00B4093002A0
89762A233C0D6761C0
B84449D72B2E6452C0
85000B00076C0002A0
57000C0002CA200480
48000E60009D300570
58000CC1001D300480
66000B850024A002A0
9CB9586A7B82DA93C0
84012A2D8000B222C0
66000C059000570480
56000C00B3000C1560
65001B00390004A660
84000C000C00008A70
C0000B10092001C3B0
D1000B3007835C42C0
4CBAC6000169EBBB30
001100000000011000
ENDCHAR
STARTCHAR ograve
ENCODING 242
SWIDTH 612 0
DWIDTH 20 0
BBX 19 33 0 -1
BITMAP
00000000011000000000
00000005BA9000000000
0000004900B000000000
0000004900A100000000
00000008505600000000
00000000B00B00000000
00000000660A20000000
000000000BB600000000
00000000000000000000
0006B621020000000000
003B269BBDD868BA6000
007400000663665CA800
0093000005600007A600
0075000008300007C400
002D9BBA6345310A8400
0059300C6976CBB85600
00B8520C0000C1312A00
00D6684C0000ECA93C00
00C0002B0000D0001C00
00C00066000093001B00
00C00093000056000C00
02A000A2000048000C00
07941093000048000840
0987988500005B9A9580
084000C100004B201660
0930039000001C396840
0C0006859ECCBC83BB40
490007B6257000004F60
A400057001A000002CB0
3C633A6000A0000049D0
04DA94001135ABDDDE60
00C349CCBBB620576100
001A9300000000000000
ENDCHAR
STARTCHAR oacute
ENCODING 243
SWIDTH 612 0
DWIDTH 20 0
BBX 19 32 0 -1
BITMAP
000000000002CA300000
00000000000931B10000
00000000002A00940000
0000000000B208600000
00000000094067000000
000000000C12B0000000
0000000004BC20000000
00000000000000000000
0006B621020000000000
003B269BBDD868BA6000
007400000663665CA800
0093000005600007A600
0075000008300007C400
002D9BBA6345310A8400
0059300C6976CBB85600
00B8520C0000C1312A00
00D6684C0000ECA93C00
00C0002B0000D0001C00
00C00066000093001B00
00C00093000056000C00
02A000A2000048000C00
07941093000048000840
0987988500005B9A9580
084000C100004B201660
0930039000001C396840
0C0006859ECCBC83BB40
490007B6257000004F60
A400057001A000002CB0
3C633A6000A0000049D0
04DA94001135ABDDDE60
00C349CCBBB620576100
001A9300000000000000
ENDCHAR
STARTCHAR ocircumflex
ENCODING 244
SWIDTH 612 0
DWIDTH 20 0
BBX 19 32 0 -1
BITMAP
000000007BCB20000000
00000001B01D80000000
00000008501BB1000000
0000003A00A33A000000
000001B107D108700000
000008401A4700B20000
00000480930B00B10000
0000007B9005BB400000
0006B621020000000000
003B269BBDD868BA6000
007400000663665CA800
0093000005600007A600
0075000008300007C400
002D9BBA6345310A8400
0059300C6976CBB85600
00B8520C0000C1312A00
00D6684C0000ECA93C00
00C0002B0000D0001C00
00C00066000093001B00
00C00093000056000C00
02A000A2000048000C00
07941093000048000840
0987988500005B9A9580
084000C100004B201660
0930039000001C396840
0C0006859ECCBC83BB40
490007B6257000004F60
A400057001A000002CB0
3C633A6000A0000049D0
04DA94001135ABDDDE60
00C349CCBBB620576100
001A9300000000000000
ENDCHAR
STARTCHAR otilde
ENCODING 245
SWIDTH 612 0
DWIDTH 20 0
BBX 19 33 0 -1
BITMAP
00000000000000010000
00000006BCC303BA9000
0000000B00CA08305600
0000007500BB3B008500
000003A00942E4049000
00001B106D10750B1000
00007401A3800A860000
0000390930A10BC00000
000006B8005BBD600000
0006B621020000000000
003B269BBDD868BA6000
007400000663665CA800
0093000005600007A600
0075000008300007C400
002D9BBA6345310A8400
0059300C6976CBB85600
00B8520C0000C1312A00
00D6684C0000ECA93C00
00C0002B0000D0001C00
00C00066000093001B00
00C00093000056000C00
02A000A2000048000C00
07941093000048000840
0987988500005B9A9580
084000C100004B201660
0930039000001C396840
0C0006859ECCBC83BB40
490007B6257000004F60
A400057001A000002CB0
3C633A6000A0000049D0
04DA94001135ABDDDE60
00C349CCBBB620576100
001A9300000000000000
ENDCHAR
STARTCHAR odieresis
ENCODING 246
SWIDTH 612 0
DWIDTH 20 0
BBX 19 30 0 -1
BITMAP
00003AAAA23ABB600000
0000B20093B100B20000
00006600B09200B00000
00003800B08302900000
00002BAB703ABB400000
00000000000000000000
0006B621020000000000
003B269BBDD868BA6000
007400000663665CA800
0093000005600007A600
0075000008300007C400
002D9BBA6345310A8400
0059300C6976CBB85600
00B8520C0000C1312A00
00D6684C0000ECA93C00
00C0002B0000D0001C00
00C00066000093001B00
00C00093000056000C00
02A000A2000048000C00
07941093000048000840
0987988500005B9A9580
084000C100004B201660
0930039000001C396840
0C0006859ECCBC83BB40
490007B6257000004F60
A400057001A000002CB0
3C633A6000A0000049D0
04DA94001135ABDDDE60
00C349CCBBB620576100
001A9300000000000000
ENDCHAR
STARTCHAR divide
ENCODING 247
SWIDTH 457 0
DWIDTH 15 0
BBX 14 19 0 1
BITMAP
00000279610000
00001C325B0000
00000B00190000
00000B00290000
00000C53790000
00000167400000
02953358411360
0C46876B9AB987
4800000650000C
5800000550000C
2A00000520001B
0A79BBB9ABBBB5
01630003100130
000005AA930000
00002B002C0000
00000B00290000
00000B00290000
00000A86A70000
00000034200000
ENDCHAR
STARTCHAR oslash
ENCODING 248
SWIDTH 612 0
DWIDTH 20 0
BBX 19 25 0 -2
BITMAP
0006B621020000000000
003B269BBDD869CD8000
0074000006637B01A700
00930000056075001C00
007500000831B0003B00
002D9BBA644A4001D500
0059300C69C9000A9600
00B8520C04D200492B00
00D6683C0B7C80A93C00
00C0001B2A0073901C00
00C0006693000A301B00
00C00086A00088000C00
02A000AC2003C8000C00
079410A6000B58000840
09879AF810485B9A9580
08400937D2924B201660
09302B0035B01C396840
0C0093001CDCBC83BB40
49059000997000004F60
A43B000491A000002CB0
3CC1000B10A0000049D0
03A000481135ABDDDE60
00C4009CBBB620576100
002CBAB0000000000000
00002200000000000000
ENDCHAR
STARTCHAR ugrave
ENCODING 249
SWIDTH 583 0
DWIDTH 19 0
BBX 18 32 0 -1
BITMAP
000000001000000000
0000006BA900000000
000005800B00000000
000005800B00000000
000000940650000000
0000001B01B0000000
0000000750B2000000
00000001CB50000000
000255200000255200
007B77B80008B76A90
0093000B300D0000C0
0075000C000A2002A0
008400390008400390
009300570007500390
00C0006600075001B0
03D77357000A6662C1
06A44748000C9553B1
0390008400093000C0
02A000B100057000C0
039000C000039000C0
056000B00002A000B1
0A7310B00003A00085
0B7896A20005CAA949
0A2000C00003B10167
0A2004800000C9D475
0C000687CCBC931C84
2B0007B558000008A5
850005800B00000798
5A2007900A00012A3C
05ECB700025BEA982C
00B317BBCC827CABB2
001BB5100000001100
ENDCHAR
STARTCHAR uacute
ENCODING 250
SWIDTH 583 0
DWIDTH 19 0
BBX 18 32 0 -1
BITMAP
00000000006B810000
0000000001B0490000
0000000007501C0000
000000003A01B30000
00000001B10A300000
000000049066000000
000000008BB0000000
000000000000000000
000255200000255200
007B77B80008B76A90
0093000B300D0000C0
0075000C000A2002A0
008400390008400390
009300570007500390
00C0006600075001B0
03D77357000A6662C1
06A44748000C9553B1
0390008400093000C0
02A000B100057000C0
039000C000039000C0
056000B00002A000B1
0A7310B00003A00085
0B7896A20005CAA949
0A2000C00003B10167
0A2004800000C9D475
0C000687CCBC931C84
2B0007B558000008A5
850005800B00000798
5A2007900A00012A3C
05ECB700025BEA982C
00B317BBCC827CABB2
001BB5100000001100
ENDCHAR
STARTCHAR ucircumflex
ENCODING 251
SWIDTH 583 0
DWIDTH 19 0
BBX 18 32 0 -1
BITMAP
00000009BCB1000000
0000002A02E7000000
0000009302CB000000
000005800A24800000
00002B009B00950000
0000A20396600C1000
0000660A10B01B0000
000008B7006BB30000
000255200000255200
007B77B80008B76A90
0093000B300D0000C0
0075000C000A2002A0
008400390008400390
009300570007500390
00C0006600075001B0
03D77357000A6662C1
06A44748000C9553B1
0390008400093000C0
02A000B100057000C0
039000C000039000C0
056000B00002A000B1
0A7310B00003A00085
0B7896A20005CAA949
0A2000C00003B10167
0A2004800000C9D475
0C000687CCBC931C84
2B0007B558000008A5
850005800B00000798
5A2007900A00012A3C
05ECB700025BEA982C
00B317BBCC827CABB2
001BB5100000001100
ENDCHAR
STARTCHAR udieresis
ENCODING 252
SWIDTH 583 0
DWIDTH 19 0
BBX 18 30 0 -1
BITMAP
00007AAB617BB92000
0004A001A39004A000
0000B00471A0074000
0000A10560B0092000
00007BAA207BBA0000
000000000000000000
000255200000255200
007B77B80008B76A90
0093000B300D0000C0
0075000C000A2002A0
008400390008400390
009300570007500390
00C0006600075001B0
03D77357000A6662C1
06A44748000C9553B1
0390008400093000C0
02A000B100057000C0
039000C000039000C0
056000B00002A000B1
0A7310B00003A00085
0B7896A20005CAA949
0A2000C00003B10167
0A2004800000C9D475
0C000687CCBC931C84
2B0007B558000008A5
850005800B00000798
5A2007900A00012A3C
05ECB700025BEA982C
00B317BBCC827CABB2
001BB5100000001100
ENDCHAR
STARTCHAR yacute
ENCODING 253
SWIDTH 484 0
DWIDTH 16 0
BBX 18 29 -1 0
BITMAP
0000000000BB500000
000000000570940000
000000000B10580000
000000008504A00000
00000005902B000000
0000000A30B2000000
00000002BB60000000
004991000002BCA400
099476000005703B70
48001C0000084000B3
A3000680000C0001C1
3C2000A60067000A40
02C1000A62C1003A00
00490173BCC6108400
000B4B305C26B2C000
0004E200490003B000
0000A60094000B3000
00000A41C000580000
000001BA5000B10000
0000005E5001B00000
000000776B54800000
000000B10058500000
000002B0004B000000
00000A4000C2000000
00005A000490000000
0001D1000930000000
0000C3000C00000000
00003C734C00000000
000000598200000000
ENDCHAR
STARTCHAR thorn
ENCODING 254
SWIDTH 520 0
DWIDTH 17 0
BBX 16 24 1 -1
BITMAP
0002000000000000
1ACAC91000000000
6800087000000000
3908DD3000000000
1B8707C610000000
1BC00017BC600000
3BA000000AAA2000
77B000000C03ACA5
ACBCB7105700002B
94001CC83000000C
67000C06CC820049
48000C0003CB82D3
48000C006B205CA4
66000C4C600002B4
896529BA80007A30
97466930940A6000
75000C0014950000
56000C003B700000
66001B06B2000000
84000B8800000000
B1000C8000000000
D0000A3000000000
7B66AA0000000000
0266300000000000
ENDCHAR
STARTCHAR ydieresis
ENCODING 255
SWIDTH 484 0
DWIDTH 16 0
BBX 18 28 -1 0
BITMAP
00029AAA33ABB70000
000A400749300A4000
0004700A17400B0000
0001A00B06500A0000
0001BAB802ABB60000
000000000000000000
004991000002BCA400
099476000005703B70
48001C0000084000B3
A3000680000C0001C1
3C2000A60067000A40
02C1000A62C1003A00
00490173BCC6108400
000B4B305C26B2C000
0004E200490003B000
0000A60094000B3000
00000A41C000580000
000001BA5000B10000
0000005E5001B00000
000000776B54800000
000000B10058500000
000002B0004B000000
00000A4000C2000000
00005A000490000000
0001D1000930000000
0000C3000C00000000
00003C734C00000000
000000598200000000
ENDCHAR
STARTCHAR Amacron
ENCODING 256
SWIDTH 507 0
DWIDTH 16 0
BBX 18 28 -1 0
BITMAP
000000310001100000
0000089ABBB9A00000
00001B000000740000
00000B023210830000
000005A989AB900000
000000353000000000
00000AA8AC30000000
00000B1002C1000000
00000C0002DAA00000
00000C000840C00000
000039000C00C00000
000094000C00B10000
0002EA822A00750000
0004A2483A002A0000
000480007C486A2000
00057000CC92084000
00084002A760074000
000B100571B0057740
003B100664D56AD6B2
007BBB66EBC7520039
0084004850B000000B
0093001C008200001B
00C00057005127ABC6
02A00094467BA53B30
094000BB854A400570
1C0000B000075000C1
0A7000C100066016C2
007CCB600003ACB610
ENDCHAR
STARTCHAR amacron
ENCODING 257
SWIDTH 507 0
DWIDTH 16 0
BBX 18 28 -1 0
BITMAP
000000310001100000
0000089ABBB9A00000
00001B000000740000
00000B023210830000
000005A989AB900000
000000353000000000
00000AA8AC30000000
00000B1002C1000000
00000C0002DAA00000
00000C000840C00000
000039000C00C00000
000094000C00B10000
0002EA822A00750000
0004A2483A002A0000
000480007C486A2000
00057000CC92084000
00084002A760074000
000B100571B0057740
003B100664D56AD6B2
007BBB66EBC7520039
0084004850B000000B
0093001C008200001B
00C00057005127ABC6
02A00094467BA53B30
094000BB854A400570
1C0000B000075000C1
0A7000C100066016C2
007CCB600003ACB610
ENDCHAR
STARTCHAR Abreve
ENCODING 258
SWIDTH 507 0
DWIDTH 16 0
BBX 18 31 -1 0
BITMAP
000028840027610000
0001C42B00955B2000
0000B00A00A0083000
0000920A00B01B0000
00006508BBCC660000
000046056005E30000
00003C8C3005D00000
0000018A9ABC100000
000000353000000000
00000AA8AC30000000
00000B1002C1000000
00000C0002DAA00000
00000C000840C00000
000039000C00C00000
000094000C00B10000
0002EA822A00750000
0004A2483A002A0000
000480007C486A2000
00057000CC92084000
00084002A760074000
000B100571B0057740
003B100664D56AD6B2
007BBB66EBC7520039
0084004850B000000B
0093001C008200001B
00C00057005127ABC6
02A00094467BA53B30
094000BB854A400570
1C0000B000075000C1
0A7000C100066016C2
007CCB600003ACB610
ENDCHAR
STARTCHAR abreve
ENCODING 259
SWIDTH 507 0
DWIDTH 16 0
BBX 18 31 -1 0
BITMAP
000028840027610000
0001C42B00955B2000
0000B00A00A0083000
0000920A00B01B0000
00006508BBCC660000
000046056005E30000
00003C8C3005D00000
0000018A9ABC100000
000000353000000000
00000AA8AC30000000
00000B1002C1000000
00000C0002DAA00000
00000C000840C00000
000039000C00C00000
000094000C00B10000
0002EA822A00750000
0004A2483A002A0000
000480007C486A2000
00057000CC92084000
00084002A760074000
000B100571B0057740
003B100664D56AD6B2
007BBB66EBC7520039
0084004850B000000B
0093001C008200001B
00C00057005127ABC6
02A00094467BA53B30
094000BB854A400570
1C0000B000075000C1
0A7000C100066016C2
007CCB600003ACB610
ENDCHAR
STARTCHAR Aogonek
ENCODING 260
SWIDTH 507 0
DWIDTH 16 0
BBX 19 30 -1 -7
BITMAP
00000035300000000000
00000AA8AC3000000000
00000B1002C100000000
00000C0002DAA0000000
00000C000840C0000000
000039000C00C0000000
000094000C00B1000000
0002EA822A0075000000
0004A2483A002A000000
000480007C486A200000
00057000CC9208400000
00084002A76007400000
000B100571B005774000
003B100664D56AD6B200
007BBB66EBC752003900
0084004850B000000B00
0093001C008200001B00
00C00057005127ABC600
02A00094467BA53B3000
094000BB854A40057000
1C0000B000075000C100
0A7000C100066016C200
007CCB600003ECBE2000
00000000000470480000
00000000000B10A40000
00000000000A64BB5000
000000000002E9207B10
0000000000002B400A10
00000000000000A45900
00000000000000097000
ENDCHAR
STARTCHAR aogonek
ENCODING 261
SWIDTH 507 0
DWIDTH 16 0
BBX 19 30 -1 -7
BITMAP
00000035300000000000
00000AA8AC3000000000
00000B1002C100000000
00000C0002DAA0000000
00000C000840C0000000
000039000C00C0000000
000094000C00B1000000
0002EA822A0075000000
0004A2483A002A000000
000480007C486A200000
00057000CC9208400000
00084002A76007400000
000B100571B005774000
003B100664D56AD6B200
007BBB66EBC752003900
0084004850B000000B00
0093001C008200001B00
00C00057005127ABC600
02A00094467BA53B3000
094000BB854A40057000
1C0000B000075000C100
0A7000C100066016C200
007CCB600003ECBE2000
00000000000470480000
00000000000B10A40000
00000000000A64BB5000
000000000002E9207B10
0000000000002B400A10
00000000000000A45900
00000000000000097000
ENDCHAR
STARTCHAR Cacute
ENCODING 262
SWIDTH 515 0
DWIDTH 16 0
BBX 17 31 0 -1
BITMAP
00000000001CA30000
0000000000841B1000
0000000002B0085000
000000000B30780000
000000008605900000
00000000C11B000000
000000003BC3000000
0006B6210210000000
003B269BBDD8657500
007400000663665B10
009300000560000740
007500000830000750
002D9BBA6345310A10
0059300C69768BB800
00B8520C0000001000
00D6684C0000000000
00C0002B0000000000
00C000660000000000
00C000930000000000
02A000A20000000000
079410930000000000
098798850000000000
084000C10000000000
09300390000004A300
0C000697CDCCC83C00
490007B51C00000750
A40005700A10000570
3C633A600910000840
04DA94011349BBBC00
00C34ACBBB83000000
001A83000000000000
ENDCHAR
STARTCHAR cacute
ENCODING 263
SWIDTH 515 0
DWIDTH 16 0
BBX 17 31 0 -1
BITMAP
00000000001CA30000
0000000000841B1000
0000000002B0085000
000000000B30780000
000000008605900000
00000000C11B000000
000000003BC3000000
0006B6210210000000
003B269BBDD8657500
007400000663665B10
009300000560000740
007500000830000750
002D9BBA6345310A10
0059300C69768BB800
00B8520C0000001000
00D6684C0000000000
00C0002B0000000000
00C000660000000000
00C000930000000000
02A000A20000000000
079410930000000000
098798850000000000
084000C10000000000
09300390000004A300
0C000697CDCCC83C00
490007B51C00000750
A40005700A10000570
3C633A600910000840
04DA94011349BBBC00
00C34ACBBB83000000
001A83000000000000
ENDCHAR
STARTCHAR Ccircumflex
ENCODING 264
SWIDTH 515 0
DWIDTH 16 0
BBX 17 32 0 -1
BITMAP
00000000ABCA000000
00000003903F500000
0000000B203BB00000
0000006701B1660000
000004A00AA00B3000
00000B10478401C000
00000840B01A02B000
0000019B6008AA2000
0006B6210200000000
003B269BBDD8657500
007400000663665B10
009300000560000740
007500000830000750
002D9BBA6345310A10
0059300C69768BB800
00B8520C0000001000
00D6684C0000000000
00C0002B0000000000
00C000660000000000
00C000930000000000
02A000A20000000000
079410930000000000
098798850000000000
084000C10000000000
09300390000004A300
0C000697CDCCC83C00
490007B51C00000750
A40005700A10000570
3C633A600910000840
04DA94011349BBBC00
00C34ACBBB83000000
001A83000000000000
ENDCHAR
STARTCHAR ccircumflex
ENCODING 265
SWIDTH 515 0
DWIDTH 16 0
BBX 17 32 0 -1
BITMAP
00000000ABCA000000
00000003903F500000
0000000B203BB00000
0000006701B1660000
000004A00AA00B3000
00000B10478401C000
00000840B01A02B000
0000019B6008AA2000
0006B6210200000000
003B269BBDD8657500
007400000663665B10
009300000560000740
007500000830000750
002D9BBA6345310A10
0059300C69768BB800
00B8520C0000001000
00D6684C0000000000
00C0002B0000000000
00C000660000000000
00C000930000000000
02A000A20000000000
079410930000000000
098798850000000000
084000C10000000000
09300390000004A300
0C000697CDCCC83C00
490007B51C00000750
A40005700A10000570
3C633A600910000840
04DA94011349BBBC00
00C34ACBBB83000000
001A83000000000000
ENDCHAR
STARTCHAR Cdotaccent
ENCODING 266
SWIDTH 515 0
DWIDTH 16 0
BBX 17 29 0 -1
BITMAP
00000003AAAA200000
0000000B3008300000
00000005600B000000
00000003800B000000
00000002BAB7000000
0006B6210200000000
003B269BBDD8657500
007400000663665B10
009300000560000740
007500000830000750
002D9BBA6345310A10
0059300C69768BB800
00B8520C0000001000
00D6684C0000000000
00C0002B0000000000
00C000660000000000
00C000930000000000
02A000A20000000000
079410930000000000
098798850000000000
084000C10000000000
09300390000004A300
0C000697CDCCC83C00
490007B51C00000750
A40005700A10000570
3C633A600910000840
04DA94011349BBBC00
00C34ACBBB83000000
001A83000000000000
ENDCHAR
STARTCHAR cdotaccent
ENCODING 267
SWIDTH 515 0
DWIDTH 16 0
BBX 17 29 0 -1
BITMAP
00000003AAAA200000
0000000B3008300000
00000005600B000000
00000003800B000000
00000002BAB7000000
0006B6210200000000
003B269BBDD8657500
007400000663665B10
009300000560000740
007500000830000750
002D9BBA6345310A10
0059300C69768BB800
00B8520C0000001000
00D6684C0000000000
00C0002B0000000000
00C000660000000000
00C000930000000000
02A000A20000000000
079410930000000000
098798850000000000
084000C10000000000
09300390000004A300
0C000697CDCCC83C00
490007B51C00000750
A40005700A10000570
3C633A600910000840
04DA94011349BBBC00
00C34ACBBB83000000
001A83000000000000
ENDCHAR
STARTCHAR Ccaron
ENCODING 268
SWIDTH 515 0
DWIDTH 16 0
BBX 17 33 0 -1
BITMAP
000000130001310000
000007A8A00B8B3000
00000B00824701B000
0000085028B1049000
000000B10A602A0000
0000005701A0B20000
0000000B007A800000
0000000842BD100000
000000029AA5000000
0006B6210200000000
003B269BBDD8657500
007400000663665B10
009300000560000740
007500000830000750
002D9BBA6345310A10
0059300C69768BB800
00B8520C0000001000
00D6684C0000000000
00C0002B0000000000
00C000660000000000
00C000930000000000
02A000A20000000000
079410930000000000
098798850000000000
084000C10000000000
09300390000004A300
0C000697CDCCC83C00
490007B51C00000750
A40005700A10000570
3C633A600910000840
04DA94011349BBBC00
00C34ACBBB83000000
001A83000000000000
ENDCHAR
STARTCHAR ccaron
ENCODING 269
SWIDTH 515 0
DWIDTH 16 0
BBX 17 33 0 -1
BITMAP
000000130001310000
000007A8A00B8B3000
00000B00824701B000
0000085028B1049000
000000B10A602A0000
0000005701A0B20000
0000000B007A800000
0000000842BD100000
000000029AA5000000
0006B6210200000000
003B269BBDD8657500
007400000663665B10
009300000560000740
007500000830000750
002D9BBA6345310A10
0059300C69768BB800
00B8520C0000001000
00D6684C0000000000
00C0002B0000000000
00C000660000000000
00C000930000000000
02A000A20000000000
079410930000000000
098798850000000000
084000C10000000000
09300390000004A300
0C000697CDCCC83C00
490007B51C00000750
A40005700A10000570
3C633A600910000840
04DA94011349BBBC00
00C34ACBBB83000000
001A83000000000000
ENDCHAR
STARTCHAR Dcaron
ENCODING 270
SWIDTH 520 0
DWIDTH 17 0
BBX 16 34 1 -1
BITMAP
0000310003200000
002B7B2079A70000
00830370B0092000
003A00A7601B1000
0007504C00A30000
0001B00926700000
00007401BB000000
00002A17D6000000
000007AA90000000
0000021000000000
0157C9C100000000
4C9D104A00000000
5793000880000000
2AB0000089000000
1B6B300006C20000
2A02B50000AB0000
48000D5005877000
89772AD46800A600
B844494C30000991
75000B02B700005C
57000C000880001B
48000C0000A60096
58000C0003CC6B9B
66000B105C22621D
9CBA684AB10003C5
84002AA9B5004B10
66000EB00933B100
56000D10013B2000
75001B0002B60000
84000C003C300000
C0000B12C2000000
D1000B3C30000000
4CBBE97700000000
0011388000000000
ENDCHAR
STARTCHAR dcaron
ENCODING 271
SWIDTH 520 0
DWIDTH 17 0
BBX 16 34 1 -1
BITMAP
0000310003200000
002B7B2079A70000
00830370B0092000
003A00A7601B1000
0007504C00A30000
0001B00926700000
00007401BB000000
00002A17D6000000
000007AA90000000
0000021000000000
0157C9C100000000
4C9D104A00000000
5793000880000000
2AB0000089000000
1B6B300006C20000
2A02B50000AB0000
48000D5005877000
89772AD46800A600
B844494C30000991
75000B02B700005C
57000C000880001B
48000C0000A60096
58000C0003CC6B9B
66000B105C22621D
9CBA684AB10003C5
84002AA9B5004B10
66000EB00933B100
56000D10013B2000
75001B0002B60000
84000C003C300000
C0000B12C2000000
D1000B3C30000000
4CBBE97700000000
0011388000000000
ENDCHAR
STARTCHAR Dcroat
ENCODING 272
SWIDTH 669 0
DWIDTH 21 0
BBX 23 25 -1 -1
BITMAP
000000000000310000000000
00000000258C9B0000000000
00000006CBA0077000000000
000000084C1000A500000000
000000057C00001A70000000
0000000488A200008B100000
00000005703C30000D900000
000000075002E30085A40000
0000000B7761DC28601C3000
0010000D6443B4B20001B700
0AAA976C8A10C04C500007A0
580012332492A001B6000390
7500000000C390001C401C30
6600000000C2A0005BC6C980
1B589A985870C006B14613B0
0263212DFF94B2C800005B30
0000000B1011CB8C30079000
000000093002F801A1590000
000000083003B00023C00000
00000009200480003C400000
0000000B1002A005B1000000
0000001B0000C04B10000000
0000003B0001D2C100000000
00000005CBBE7A4000000000
000000000114970000000000
ENDCHAR
STARTCHAR dcroat
ENCODING 273
SWIDTH 669 0
DWIDTH 21 0
BBX 23 25 -1 -1
BITMAP
000000000000310000000000
00000000258C9B0000000000
00000006CBA0077000000000
000000084C1000A500000000
000000057C00001A70000000
0000000488A200008B100000
00000005703C30000D900000
000000075002E30085A40000
0000000B7761DC28601C3000
0010000D6443B4B20001B700
0AAA976C8A10C04C500007A0
580012332492A001B6000390
7500000000C390001C401C30
6600000000C2A0005BC6C980
1B589A985870C006B14613B0
0263212DFF94B2C800005B30
0000000B1011CB8C30079000
000000093002F801A1590000
000000083003B00023C00000
00000009200480003C400000
0000000B1002A005B1000000
0000001B0000C04B10000000
0000003B0001D2C100000000
00000005CBBE7A4000000000
000000000114970000000000
ENDCHAR
STARTCHAR Emacron
ENCODING 274
SWIDTH 490 0
DWIDTH 16 0
BBX 15 30 1 -1
BITMAP
0000310001000000
000A8ABBB9900000
0038000000A20000
0029022200A10000
0007A989BB700000
0000000000000000
0156400110002200
4C768CBCEBBCAC10
57000661B0000660
2A000A20B0000390
1B000C00A0000470
2A000D6548AA8B20
48000C5674124400
89772A2000000000
B844493000000000
75000C867AA00000
57000B3542750000
48000B0000390000
58000B0000380000
66000B6641840000
9CBA68857B900000
84002A2000000000
66000D3410000000
56000E9CCA99C500
75001B0571320C00
84000C0460000A10
C0000B1630000B10
D1000BA679843B00
4CBBC6364347B200
0011000000000000
ENDCHAR
STARTCHAR emacron
ENCODING 275
SWIDTH 490 0
DWIDTH 16 0
BBX 15 30 1 -1
BITMAP
0000310001000000
000A8ABBB9900000
0038000000A20000
0029022200A10000
0007A989BB700000
0000000000000000
0156400110002200
4C768CBCEBBCAC10
57000661B0000660
2A000A20B0000390
1B000C00A0000470
2A000D6548AA8B20
48000C5674124400
89772A2000000000
B844493000000000
75000C867AA00000
57000B3542750000
48000B0000390000
58000B0000380000
66000B6641840000
9CBA68857B900000
84002A2000000000
66000D3410000000
56000E9CCA99C500
75001B0571320C00
84000C0460000A10
C0000B1630000B10
D1000BA679843B00
4CBBC6364347B200
0011000000000000
ENDCHAR
STARTCHAR Ebreve
ENCODING 276
SWIDTH 490 0
DWIDTH 16 0
BBX 15 32 1 -1
BITMAP
0005971005740000
009728402A498000
007405504702A000
0029046074084000
000B01DACB7B0000
000B00B000CA0000
000A9A7100D50000
00004BAABC600000
0156400110002200
4C768CBCEBBCAC10
57000661B0000660
2A000A20B0000390
1B000C00A0000470
2A000D6548AA8B20
48000C5674124400
89772A2000000000
B844493000000000
75000C867AA00000
57000B3542750000
48000B0000390000
58000B0000380000
66000B6641840000
9CBA68857B900000
84002A2000000000
66000D3410000000
56000E9CCA99C500
75001B0571320C00
84000C0460000A10
C0000B1630000B10
D1000BA679843B00
4CBBC6364347B200
0011000000000000
ENDCHAR
STARTCHAR ebreve
ENCODING 277
SWIDTH 490 0
DWIDTH 16 0
BBX 15 32 1 -1
BITMAP
0005971005740000
009728402A498000
007405504702A000
0029046074084000
000B01DACB7B0000
000B00B000CA0000
000A9A7100D50000
00004BAABC600000
0156400110002200
4C768CBCEBBCAC10
57000661B0000660
2A000A20B0000390
1B000C00A0000470
2A000D6548AA8B20
48000C5674124400
89772A2000000000
B844493000000000
75000C867AA00000
57000B3542750000
48000B0000390000
58000B0000380000
66000B6641840000
9CBA68857B900000
84002A2000000000
66000D3410000000
56000E9CCA99C500
75001B0571320C00
84000C0460000A10
C0000B1630000B10
D1000BA679843B00
4CBBC6364347B200
0011000000000000
ENDCHAR
STARTCHAR Edotaccent
ENCODING 278
SWIDTH 490 0
DWIDTH 16 0
BBX 15 30 1 -1
BITMAP
00003AAAA2000000
0000A40074000000
00004700A1000000
00002900B0000000
00001BAB80000000
0000000000000000
0156400110002200
4C768CBCEBBCAC10
57000661B0000660
2A000A20B0000390
1B000C00A0000470
2A000D6548AA8B20
48000C5674124400
89772A2000000000
B844493000000000
75000C867AA00000
57000B3542750000
48000B0000390000
58000B0000380000
66000B6641840000
9CBA68857B900000
84002A2000000000
66000D3410000000
56000E9CCA99C500
75001B0571320C00
84000C0460000A10
C0000B1630000B10
D1000BA679843B00
4CBBC6364347B200
0011000000000000
ENDCHAR
STARTCHAR edotaccent
ENCODING 279
SWIDTH 490 0
DWIDTH 16 0
BBX 15 30 1 -1
BITMAP
00003AAAA2000000
0000A40074000000
00004700A1000000
00002900B0000000
00001BAB80000000
0000000000000000
0156400110002200
4C768CBCEBBCAC10
57000661B0000660
2A000A20B0000390
1B000C00A0000470
2A000D6548AA8B20
48000C5674124400
89772A2000000000
B844493000000000
75000C867AA00000
57000B3542750000
48000B0000390000
58000B0000380000
66000B6641840000
9CBA68857B900000
84002A2000000000
66000D3410000000
56000E9CCA99C500
75001B0571320C00
84000C0460000A10
C0000B1630000B10
D1000BA679843B00
4CBBC6364347B200
0011000000000000
ENDCHAR
STARTCHAR Eogonek
ENCODING 280
SWIDTH 490 0
DWIDTH 16 0
BBX 15 30 1 -7
BITMAP
0156400110002200
4C768CBCEBBCAC10
57000661B0000660
2A000A20B0000390
1B000C00A0000470
2A000D6548AA8B20
48000C5674124400
89772A2000000000
B844493000000000
75000C867AA00000
57000B3542750000
48000B0000390000
58000B0000380000
66000B6641840000
9CBA68857B900000
84002A2000000000
66000D3410000000
56000E9CCA99C500
75001B0571320C00
84000C0460000A10
C0000B1630000B10
D1000BA679843B00
4CBBC636D34CB200
0011000390290000
0000000B10860000
0000000885BA7000
00000001EA205B20
000000001A700920
0000000000875900
0000000000087000
ENDCHAR
STARTCHAR eogonek
ENCODING 281
SWIDTH 490 0
DWIDTH 16 0
BBX 15 30 1 -7
BITMAP
0156400110002200
4C768CBCEBBCAC10
57000661B0000660
2A000A20B0000390
1B000C00A0000470
2A000D6548AA8B20
48000C5674124400
89772A2000000000
B844493000000000
75000C867AA00000
57000B3542750000
48000B0000390000
58000B0000380000
66000B6641840000
9CBA68857B900000
84002A2000000000
66000D3410000000
56000E9CCA99C500
75001B0571320C00
84000C0460000A10
C0000B1630000B10
D1000BA679843B00
4CBBC636D34CB200
0011000390290000
0000000B10860000
0000000885BA7000
00000001EA205B20
000000001A700920
0000000000875900
0000000000087000
ENDCHAR
STARTCHAR Ecaron
ENCODING 282
SWIDTH 490 0
DWIDTH 16 0
BBX 15 33 1 -1
BITMAP
0000220002300000
000A89702C8B1000
003800A083048000
000B2066A0085000
0002A01D30580000
0000930471B00000
00002900AA400000
00000B13CB000000
000004AAA3000000
0156400110002200
4C768CBCEBBCAC10
57000661B0000660
2A000A20B0000390
1B000C00A0000470
2A000D6548AA8B20
48000C5674124400
89772A2000000000
B844493000000000
75000C867AA00000
57000B3542750000
48000B0000390000
58000B0000380000
66000B6641840000
9CBA68857B900000
84002A2000000000
66000D3410000000
56000E9CCA99C500
75001B0571320C00
84000C0460000A10
C0000B1630000B10
D1000BA679843B00
4CBBC6364347B200
0011000000000000
ENDCHAR
STARTCHAR ecaron
ENCODING 283
SWIDTH 490 0
DWIDTH 16 0
BBX 15 33 1 -1
BITMAP
0000220002300000
000A89702C8B1000
003800A083048000
000B2066A0085000
0002A01D30580000
0000930471B00000
00002900AA400000
00000B13CB000000
000004AAA3000000
0156400110002200
4C768CBCEBBCAC10
57000661B0000660
2A000A20B0000390
1B000C00A0000470
2A000D6548AA8B20
48000C5674124400
89772A2000000000
B844493000000000
75000C867AA00000
57000B3542750000
48000B0000390000
58000B0000380000
66000B6641840000
9CBA68857B900000
84002A2000000000
66000D3410000000
56000E9CCA99C500
75001B0571320C00
84000C0460000A10
C0000B1630000B10
D1000BA679843B00
4CBBC6364347B200
0011000000000000
ENDCHAR
STARTCHAR Gcircumflex
ENCODING 284
SWIDTH 557 0
DWIDTH 18 0
BBX 18 32 0 -1
BITMAP
00000002CBD6000000
00000009308E000000
0000002A008A700000
000000B20580A20000
000009502D502B1000
00002A0093B0058000
00000B138065076000
000003BB201BB80000
0006B6210200000000
003B269BBDD8657500
007400000663665B10
009300000560000740
007500000830000750
002D9BBA6345310A10
0059300C69768BB800
00B8520C0000001000
00D6684C0000000000
00C0002B0000023000
00C000660004C99B70
00C00093000C1000B0
02A000A20008400290
079410930005700380
0987988500046001A0
084000C100077673C1
09300390000AA432B0
0C000697CDCD5000B0
490007B51C048000C0
A40005700A138000B1
3C633A600914700076
04DA9401134B600095
00C34ACBBB839BBB50
001A83000000000000
ENDCHAR
STARTCHAR gcircumflex
ENCODING 285
SWIDTH 557 0
DWIDTH 18 0
BBX 18 32 0 -1
BITMAP
00000002CBD6000000
00000009308E000000
0000002A008A700000
000000B20580A20000
000009502D502B1000
00002A0093B0058000
00000B138065076000
000003BB201BB80000
0006B6210200000000
003B269BBDD8657500
007400000663665B10
009300000560000740
007500000830000750
002D9BBA6345310A10
0059300C69768BB800
00B8520C0000001000
00D6684C0000000000
00C0002B0000023000
00C000660004C99B70
00C00093000C1000B0
02A000A20008400290
079410930005700380
0987988500046001A0
084000C100077673C1
09300390000AA432B0
0C000697CDCD5000B0
490007B51C048000C0
A40005700A138000B1
3C633A600914700076
04DA9401134B600095
00C34ACBBB839BBB50
001A83000000000000
ENDCHAR
STARTCHAR Gbreve
ENCODING 286
SWIDTH 557 0
DWIDTH 18 0
BBX 18 32 0 -1
BITMAP
000006971005730000
00009728402A498000
00007405504702A000
000029046074083000
00000B01DACB7B0000
00000B00B000C90000
00000A9A7100D50000
0000004BAABC600000
0006B6210200000000
003B269BBDD8657500
007400000663665B10
009300000560000740
007500000830000750
002D9BBA6345310A10
0059300C69768BB800
00B8520C0000001000
00D6684C0000000000
00C0002B0000023000
00C000660004C99B70
00C00093000C1000B0
02A000A20008400290
079410930005700380
0987988500046001A0
084000C100077673C1
09300390000AA432B0
0C000697CDCD5000B0
490007B51C048000C0
A40005700A138000B1
3C633A600914700076
04DA9401134B600095
00C34ACBBB839BBB50
001A83000000000000
ENDCHAR
STARTCHAR gbreve
ENCODING 287
SWIDTH 557 0
DWIDTH 18 0
BBX 18 32 0 -1
BITMAP
000006971005730000
00009728402A498000
00007405504702A000
000029046074083000
00000B01DACB7B0000
00000B00B000C90000
00000A9A7100D50000
0000004BAABC600000
0006B6210200000000
003B269BBDD8657500
007400000663665B10
009300000560000740
007500000830000750
002D9BBA6345310A10
0059300C69768BB800
00B8520C0000001000
00D6684C0000000000
00C0002B0000023000
00C000660004C99B70
00C00093000C1000B0
02A000A20008400290
079410930005700380
0987988500046001A0
084000C100077673C1
09300390000AA432B0
0C000697CDCD5000B0
490007B51C048000C0
A40005700A138000B1
3C633A600914700076
04DA9401134B600095
00C34ACBBB839BBB50
001A83000000000000
ENDCHAR
STARTCHAR Gdotaccent
ENCODING 288
SWIDTH 557 0
DWIDTH 18 0
BBX 18 30 0 -1
BITMAP
000000029AAA300000
0000000A4007400000
00000004700A100000
00000001A00B000000
00000001BAB8000000
000000000000000000
0006B6210200000000
003B269BBDD8657500
007400000663665B10
009300000560000740
007500000830000750
002D9BBA6345310A10
0059300C69768BB800
00B8520C0000001000
00D6684C0000000000
00C0002B0000023000
00C000660004C99B70
00C00093000C1000B0
02A000A20008400290
079410930005700380
0987988500046001A0
084000C100077673C1
09300390000AA432B0
0C000697CDCD5000B0
490007B51C048000C0
A40005700A138000B1
3C633A600914700076
04DA9401134B600095
00C34ACBBB839BBB50
001A83000000000000
ENDCHAR
STARTCHAR gdotaccent
ENCODING 289
SWIDTH 557 0
DWIDTH 18 0
BBX 18 30 0 -1
BITMAP
000000029AAA300000
0000000A4007400000
00000004700A100000
00000001A00B000000
00000001BAB8000000
000000000000000000
0006B6210200000000
003B269BBDD8657500
007400000663665B10
009300000560000740
007500000830000750
002D9BBA6345310A10
0059300C69768BB800
00B8520C0000001000
00D6684C0000000000
00C0002B0000023000
00C000660004C99B70
00C00093000C1000B0
02A000A20008400290
079410930005700380
0987988500046001A0
084000C100077673C1
09300390000AA432B0
0C000697CDCD5000B0
490007B51C048000C0
A40005700A138000B1
3C633A600914700076
04DA9401134B600095
00C34ACBBB839BBB50
001A83000000000000
ENDCHAR
STARTCHAR Gcommaaccent
ENCODING 290
SWIDTH 557 0
DWIDTH 18 0
BBX 18 32 0 -9
BITMAP
0006B6210200000000
003B269BBDD8657500
007400000663665B10
009300000560000740
007500000830000750
002D9BBA6345310A10
0059300C69768BB800
00B8520C0000001000
00D6684C0000000000
00C0002B0000023000
00C000660004C99B70
00C00093000C1000B0
02A000A20008400290
079410930005700380
0987988500046001A0
084000C100077673C1
09300390000AA432B0
0C000697CDCD5000B0
490007B51C048000C0
A40005700A138000B1
3C633A600914700076
04DA9401134B600095
00C34ACBBB839BBB50
001A83000000000000
00000002CA20000000
0000000A32B0000000
0000003900A3000000
000001B10960000000
00000A406700000000
00001C02A000000000
000005BC2000000000
000000010000000000
ENDCHAR
STARTCHAR gcommaaccent
ENCODING 291
SWIDTH 557 0
DWIDTH 18 0
BBX 18 32 0 -9
BITMAP
0006B6210200000000
003B269BBDD8657500
007400000663665B10
009300000560000740
007500000830000750
002D9BBA6345310A10
0059300C69768BB800
00B8520C0000001000
00D6684C0000000000
00C0002B0000023000
00C000660004C99B70
00C00093000C1000B0
02A000A20008400290
079410930005700380
0987988500046001A0
084000C100077673C1
09300390000AA432B0
0C000697CDCD5000B0
490007B51C048000C0
A40005700A138000B1
3C633A600914700076
04DA9401134B600095
00C34ACBBB839BBB50
001A83000000000000
00000002CA20000000
0000000A32B0000000
0000003900A3000000
000001B10960000000
00000A406700000000
00001C02A000000000
000005BC2000000000
000000010000000000
ENDCHAR
STARTCHAR Hcircumflex
ENCODING 292
SWIDTH 611 0
DWIDTH 20 0
BBX 19 31 1 0
BITMAP
0000001CBD7000000000
0000008407E100000000
000002B007A700000000
00000A30490A20000000
00008601D602C1000000
0001A0093B1049000000
0000B129056067000000
00002AB200BB90000000
01575000000279830000
4C757C30004C534A8000
5700066000660000C000
2A000A20002B00039000
1B000C00000C00066000
2A000C00000C00075000
48000C00000C00075000
8A873A20003C54157000
B7334930005C66949000
75000C00002A00075000
57000C00000C00095000
48000D00000C003CBA00
57000D00000DBCA30940
75000B4458B6B0000470
9CBA68DB6300B0000570
84001A2B000090135B30
66000C0A00025ABC8600
56000C065BCD82083000
75001ECC713900084000
94000D00005700075000
C0000B10009300048000
D2001B3000A600197000
3BBBC5000018CCC60000
ENDCHAR
STARTCHAR hcircumflex
ENCODING 293
SWIDTH 611 0
DWIDTH 20 0
BBX 19 31 1 0
BITMAP
0000001CBD7000000000
0000008407E100000000
000002B007A700000000
00000A30490A20000000
00008601D602C1000000
0001A0093B1049000000
0000B129056067000000
00002AB200BB90000000
01575000000279830000
4C757C30004C534A8000
5700066000660000C000
2A000A20002B00039000
1B000C00000C00066000
2A000C00000C00075000
48000C00000C00075000
8A873A20003C54157000
B7334930005C66949000
75000C00002A00075000
57000C00000C00095000
48000D00000C003CBA00
57000D00000DBCA30940
75000B4458B6B0000470
9CBA68DB6300B0000570
84001A2B000090135B30
66000C0A00025ABC8600
56000C065BCD82083000
75001ECC713900084000
94000D00005700075000
C0000B10009300048000
D2001B3000A600197000
3BBBC5000018CCC60000
ENDCHAR
STARTCHAR Hbar
ENCODING 294
SWIDTH 706 0
DWIDTH 23 0
BBX 23 23 0 0
BITMAP
000016750000002897200000
0005C658C20005C535B70000
0006600085000750001B0000
00039000B10003A000570000
02BAA000D63224D730752300
0B259000E989975D8BBB8B10
1A057000D600000B00000560
1A099872B400000A00000470
0B1C7343A113320412100750
03CD4000DB988ADBA9DBBB00
00066000B00001B000B41100
00057001C00000C003DB9000
00066000D00001EBC930A300
00084000C4458B7A00006600
000ACBA59DB5200B00007500
00093001B2A000090135C200
00074000C0A00135BAC75000
00075002B066BCC820A20000
00084002ECC7148000920000
000A2001C000066000840000
000C0000C0000A2000670000
001C1001C2000B5001A60000
0004BBBC4000019CCC600000
ENDCHAR
STARTCHAR hbar
ENCODING 295
SWIDTH 706 0
DWIDTH 23 0
BBX 23 23 0 0
BITMAP
000016750000002897200000
0005C658C20005C535B70000
0006600085000750001B0000
00039000B10003A000570000
02BAA000D63224D730752300
0B259000E989975D8BBB8B10
1A057000D600000B00000560
1A099872B400000A00000470
0B1C7343A113320412100750
03CD4000DB988ADBA9DBBB00
00066000B00001B000B41100
00057001C00000C003DB9000
00066000D00001EBC930A300
00084000C4458B7A00006600
000ACBA59DB5200B00007500
00093001B2A000090135C200
00074000C0A00135BAC75000
00075002B066BCC820A20000
00084002ECC7148000920000
000A2001C000066000840000
000C0000C0000A2000670000
001C1001C2000B5001A60000
0004BBBC4000019CCC600000
ENDCHAR
STARTCHAR Itilde
ENCODING 296
SWIDTH 266 0
DWIDTH 9 0
BBX 14 32 -2 0
BITMAP
00000000000100
0007BCC204BA90
001B01D9092065
008401BB3A0094
03A00A33E30480
2B107D10841B00
8302A4700A8500
480920B00BB000
06B7005BBD6000
00001575000000
0004C757C30000
00057000660000
0002A000A20000
0001B000C00000
0002A000C00000
00048000C00000
0008A873A20000
000B7334930000
00075000C00000
00057000C00000
00048000C00000
00057000C00000
00075000B10000
0009CBA6840000
00084001A20000
00066000C00000
00056000B00000
00075001B00000
00094000C00000
000C0000B10000
000D2001B30000
0003BBBC500000
ENDCHAR
STARTCHAR itilde
ENCODING 297
SWIDTH 266 0
DWIDTH 9 0
BBX 14 32 -2 0
BITMAP
00000000000100
0007BCC204BA90
001B01D9092065
008401BB3A0094
03A00A33E30480
2B107D10841B00
8302A4700A8500
480920B00BB000
06B7005BBD6000
00001575000000
0004C757C30000
00057000660000
0002A000A20000
0001B000C00000
0002A000C00000
00048000C00000
0008A873A20000
000B7334930000
00075000C00000
00057000C00000
00048000C00000
00057000C00000
00075000B10000
0009CBA6840000
00084001A20000
00066000C00000
00056000B00000
00075001B00000
00094000C00000
000C0000B10000
000D2001B30000
0003BBBC500000
ENDCHAR
STARTCHAR Imacron
ENCODING 298
SWIDTH 266 0
DWIDTH 9 0
BBX 9 28 0 0
BITMAP
0220000100
3B9BBBAB30
A100000290
9212210380
2A989ABB20
0015750000
04C757C300
0570006600
02A000A200
01B000C000
02A000C000
048000C000
08A873A200
0B73349300
075000C000
057000C000
048000C000
057000C000
075000B100
09CBA68400
084001A200
066000C000
056000B000
075001B000
094000C000
0C0000B100
0D2001B300
03BBBC5000
ENDCHAR
STARTCHAR imacron
ENCODING 299
SWIDTH 266 0
DWIDTH 9 0
BBX 9 28 0 0
BITMAP
0220000100
3B9BBBAB30
A100000290
9212210380
2A989ABB20
0015750000
04C757C300
0570006600
02A000A200
01B000C000
02A000C000
048000C000
08A873A200
0B73349300
075000C000
057000C000
048000C000
057000C000
075000B100
09CBA68400
084001A200
066000C000
056000B000
075001B000
094000C000
0C0000B100
0D2001B300
03BBBC5000
ENDCHAR
STARTCHAR Ibreve
ENCODING 300
SWIDTH 266 0
DWIDTH 9 0
BBX 11 31 -1 0
BITMAP
059710047400
7926700C37A0
5703701901B0
0B0280560660
0B00CACB9A10
0A00B000BB00
08A99100B700
003AAABB8000
000157510000
004C757C3000
005700066000
002A000A2000
001B000C0000
002A000C0000
0048000C0000
008A873A2000
00B733493000
0075000C0000
0057000C0000
0048000C0000
0057000C0000
0075000B1000
009CBA684000
0084001A2000
0066000C0000
0056000B0000
0075001B0000
0094000C0000
00C0000B1000
00D2001B3000
003BBBC50000
ENDCHAR
STARTCHAR ibreve
ENCODING 301
SWIDTH 266 0
DWIDTH 9 0
BBX 11 31 -1 0
BITMAP
059710047400
7926700C37A0
5703701901B0
0B0280560660
0B00CACB9A10
0A00B000BB00
08A99100B700
003AAABB8000
000157510000
004C757C3000
005700066000
002A000A2000
001B000C0000
002A000C0000
0048000C0000
008A873A2000
00B733493000
0075000C0000
0057000C0000
0048000C0000
0057000C0000
0075000B1000
009CBA684000
0084001A2000
0066000C0000
0056000B0000
0075001B0000
0094000C0000
00C0000B1000
00D2001B3000
003BBBC50000
ENDCHAR
STARTCHAR Iogonek
ENCODING 302
SWIDTH 266 0
DWIDTH 9 0
BBX 8 31 0 -8
BITMAP
00157500
04C757C3
05700066
02A000A2
01B000C0
02A000C0
048000C0
08A873A2
0B733493
075000C0
057000C0
048000C0
057000C0
075000B1
09CBA684
084001A2
066000C0
056000B0
075001B0
094000C0
0C0000B1
0D2001B3
04EBBE50
07506700
0B00B000
7604B000
2C6B7B30
08D302A6
005B1056
0003B4B1
00003710
ENDCHAR
STARTCHAR iogonek
ENCODING 303
SWIDTH 266 0
DWIDTH 9 0
BBX 8 31 0 -8
BITMAP
00157500
04C757C3
05700066
02A000A2
01B000C0
02A000C0
048000C0
08A873A2
0B733493
075000C0
057000C0
048000C0
057000C0
075000B1
09CBA684
084001A2
066000C0
056000B0
075001B0
094000C0
0C0000B1
0D2001B3
04EBBE50
07506700
0B00B000
7604B000
2C6B7B30
08D302A6
005B1056
0003B4B1
00003710
ENDCHAR
STARTCHAR Idotaccent
ENCODING 304
SWIDTH 266 0
DWIDTH 9 0
BBX 7 29 1 0
BITMAP
07AAB600
4A001A00
0B004700
0B005600
07BAA200
00000000
01575000
4C757C30
57000660
2A000A20
1B000C00
2A000C00
48000C00
8A873A20
B7334930
75000C00
57000C00
48000C00
57000C00
75000B10
9CBA6840
84001A20
66000C00
56000B00
75001B00
94000C00
C0000B10
D2001B30
3BBBC500
ENDCHAR
STARTCHAR dotlessi
ENCODING 305
SWIDTH 266 0
DWIDTH 9 0
BBX 7 23 1 0
BITMAP
01575000
4C757C30
57000660
2A000A20
1B000C00
2A000C00
48000C00
8A873A20
B7334930
75000C00
57000C00
48000C00
57000C00
75000B10
9CBA6840
84001A20
66000C00
56000B00
75001B00
94000C00
C0000B10
D2001B30
3BBBC500
ENDCHAR
STARTCHAR IJ
ENCODING 306
SWIDTH 750 0
DWIDTH 24 0
BBX 22 25 1 -2
BITMAP
0157500000000000036630
4C757C30000000009A66A9
5700066000000000B1000C
2A000A200000000083001B
1B000C0000000000740039
2A000C0000000000840048
48000C0000000000A20038
8A873A2000000000D6751B
B733493000000002D5452C
75000C0000000000C00039
57000C0000000000B10057
48000C0006A60000A20066
57000C01B72C1000B10057
75000B1950059000C00039
9CBA684C00008800EBB93C
84001A28A10007B0C0012B
66000C005B002677C00057
56000B000674B20CD00075
75001B0000BC1003E10075
94000C00004C10003C4066
C0000B100003B10002A03A
D2001B3000004A0006803C
3BBBC50000000A304EBCB2
00000000000003CAB22100
0000000000000011000000
ENDCHAR
STARTCHAR ij
ENCODING 307
SWIDTH 749 0
DWIDTH 24 0
BBX 22 25 1 -2
BITMAP
0157500000000000036630
4C757C30000000009A66A9
5700066000000000B1000C
2A000A200000000083001B
1B000C0000000000740039
2A000C0000000000840048
48000C0000000000A20038
8A873A2000000000D6751B
B733493000000002D5452C
75000C0000000000C00039
57000C0000000000B10057
48000C0006A60000A20066
57000C01B72C1000B10057
75000B1950059000C00039
9CBA684C00008800EBB93C
84001A28A10007B0C0012B
66000C005B002677C00057
56000B000674B20CD00075
75001B0000BC1003E10075
94000C00004C10003C4066
C0000B100003B10002A03A
D2001B3000004A0006803C
3BBBC50000000A304EBCB2
00000000000003CAB22100
0000000000000011000000
ENDCHAR
STARTCHAR Jcircumflex
ENCODING 308
SWIDTH 484 0
DWIDTH 16 0
BBX 18 33 -1 -2
BITMAP
00000000006BCC3000
0000000000B00CA000
0000000006600BB200
000000002B00942B00
00000001B206D10680
00000007501B3900A4
0000000390740A10B2
000000006BA004BB50
000000000015650000
0000000003C868C300
000000000480005700
0000000001B0009300
0000000000B000B100
0000000001B000C000
00000000039000B100
0000000007A7739300
000000000A94448400
00000000076000B100
00000000048000C000
0028A100039000C000
05B46700048000C000
2B000B20057000B100
750002C208CBA67500
3C40002C4750029300
01B40053C67000C000
001C1A706D8000C000
0005D7000A9000C000
0000C600009900C000
00000A60000A30A200
000000B2001C10A400
0000003A00AEBC6000
0000000AAC61100000
000000002000000000
ENDCHAR
STARTCHAR jcircumflex
ENCODING 309
SWIDTH 482 0
DWIDTH 15 0
BBX 18 33 -1 -2
BITMAP
00000000006BCC3000
0000000000B00CA000
0000000006600BB200
000000002B00942B00
00000001B206D10680
00000007501B3900A4
0000000390740A10B2
000000006BA004BB50
000000000015650000
0000000003C868C300
000000000480005700
0000000001B0009300
0000000000B000B100
0000000001B000C000
00000000039000B100
0000000007A7739300
000000000A94448400
00000000076000B100
00000000048000C000
0028A100039000C000
05B46700048000C000
2B000B20057000B100
750002C208CBA67500
3C40002C4750029300
01B40053C67000C000
001C1A706D8000C000
0005D7000A9000C000
0000C600009900C000
00000A60000A30A200
000000B2001C10A400
0000003A00AEBC6000
0000000AAC61100000
000000002000000000
ENDCHAR
STARTCHAR Kcommaaccent
ENCODING 310
SWIDTH 541 0
DWIDTH 17 0
BBX 17 32 1 -9
BITMAP
015640000000000000
4C768C300001B94000
57000660000773A800
2A000A20002C000A40
1B000C0001C30002A0
2A000C003C40002B60
48000C04F70002C300
89772A2B48900C3000
B84449890066770000
75000CC10003C00000
57000D20004B200000
48000B0003D8000000
58000D301C2C000000
66000BB28607600000
9CBA6854C000C20000
84002A6D9178570000
66000EB2DC502B0000
56000D10C3000C1000
75001B003A00068000
84000C000A2000B400
C0000B100570004900
D1000B3002A001C300
4CBBC60000C9AB4000
001100000003200000
0000008B7000000000
000002A07700000000
000009302B00000000
00005902B200000000
0002B00B2000000000
000760840000000000
0001AA900000000000
000001000000000000
ENDCHAR
STARTCHAR kcommaaccent
ENCODING 311
SWIDTH 541 0
DWIDTH 17 0
BBX 17 32 1 -9
BITMAP
015640000000000000
4C768C300001B94000
57000660000773A800
2A000A20002C000A40
1B000C0001C30002A0
2A000C003C40002B60
48000C04F70002C300
89772A2B48900C3000
B84449890066770000
75000CC10003C00000
57000D20004B200000
48000B0003D8000000
58000D301C2C000000
66000BB28607600000
9CBA6854C000C20000
84002A6D9178570000
66000EB2DC502B0000
56000D10C3000C1000
75001B003A00068000
84000C000A2000B400
C0000B100570004900
D1000B3002A001C300
4CBBC60000C9AB4000
001100000003200000
0000008B7000000000
000002A07700000000
000009302B00000000
00005902B200000000
0002B00B2000000000
000760840000000000
0001AA900000000000
000001000000000000
ENDCHAR
STARTCHAR kgreenlandic
ENCODING 312
SWIDTH 541 0
DWIDTH 17 0
BBX 17 24 1 -1
BITMAP
015640000000000000
4C768C300001B94000
57000660000773A800
2A000A20002C000A40
1B000C0001C30002A0
2A000C003C40002B60
48000C04F70002C300
89772A2B48900C3000
B84449890066770000
75000CC10003C00000
57000D20004B200000
48000B0003D8000000
58000D301C2C000000
66000BB28607600000
9CBA6854C000C20000
84002A6D9178570000
66000EB2DC502B0000
56000D10C3000C1000
75001B003A00068000
84000C000A2000B400
C0000B100570004900
D1000B3002A001C300
4CBBC60000C9AB4000
001100000003200000
ENDCHAR
STARTCHAR Lacute
ENCODING 313
SWIDTH 467 0
DWIDTH 15 0
BBX 15 30 1 0
BITMAP
000001CA40000000
00000751A2000000
00001B0076000000
0000A30680000000
0007604900000000
000C21B100000000
0003BC4000000000
0157510000000000
4C757C3000000000
5700066000000000
2A000A2000000000
1B000C0000000000
2A000C0000000000
48000C0000000000
8A873A2000000000
B733493000000000
75000C0000000000
57000C0000000000
48000C0000000000
57000C0000000000
75000B1000000000
9CBA684000000000
84001A1000000000
66000C1000000000
56000EDDA878BA00
75001B4924431850
94000C2900000480
C0000B4800000480
D2001B6356530940
3BBBC7996568B900
ENDCHAR
STARTCHAR lacute
ENCODING 314
SWIDTH 467 0
DWIDTH 15 0
BBX 15 30 1 0
BITMAP
000001CA40000000
00000751A2000000
00001B0076000000
0000A30680000000
0007604900000000
000C21B100000000
0003BC4000000000
0157510000000000
4C757C3000000000
5700066000000000
2A000A2000000000
1B000C0000000000
2A000C0000000000
48000C0000000000
8A873A2000000000
B733493000000000
75000C0000000000
57000C0000000000
48000C0000000000
57000C0000000000
75000B1000000000
9CBA684000000000
84001A1000000000
66000C1000000000
56000EDDA878BA00
75001B4924431850
94000C2900000480
C0000B4800000480
D2001B6356530940
3BBBC7996568B900
ENDCHAR
STARTCHAR Lcommaaccent
ENCODING 315
SWIDTH 467 0
DWIDTH 15 0
BBX 15 32 1 -9
BITMAP
0157500000000000
4C757C3000000000
5700066000000000
2A000A2000000000
1B000C0000000000
2A000C0000000000
48000C0000000000
8A873A2000000000
B733493000000000
75000C0000000000
57000C0000000000
48000C0000000000
57000C0000000000
75000B1000000000
9CBA684000000000
84001A1000000000
66000C1000000000
56000EDDA878BA00
75001B4924431850
94000C2900000480
C0000B4800000480
D2001B6356530940
3BBBC7996568B900
0000000000000000
00000AA500000000
0000480940000000
0000B10480000000
0008604A10000000
004902B100000000
00A30A2000000000
002BB70000000000
0000100000000000
ENDCHAR
STARTCHAR lcommaaccent
ENCODING 316
SWIDTH 467 0
DWIDTH 15 0
BBX 15 32 1 -9
BITMAP
0157500000000000
4C757C3000000000
5700066000000000
2A000A2000000000
1B000C0000000000
2A000C0000000000
48000C0000000000
8A873A2000000000
B733493000000000
75000C0000000000
57000C0000000000
48000C0000000000
57000C0000000000
75000B1000000000
9CBA684000000000
84001A1000000000
66000C1000000000
56000EDDA878BA00
75001B4924431850
94000C2900000480
C0000B4800000480
D2001B6356530940
3BBBC7996568B900
0000000000000000
00000AA500000000
0000480940000000
0000B10480000000
0008604A10000000
004902B100000000
00A30A2000000000
002BB70000000000
0000100000000000
ENDCHAR
STARTCHAR Lcaron
ENCODING 317
SWIDTH 467 0
DWIDTH 15 0
BBX 15 25 1 0
BITMAP
0000000000540000
0000000002B7A000
015750000A206500
4C757C304901B300
57000662B10B3000
2A000A2B20850000
1B000C0874900000
2A000C0069100000
48000C0000000000
8A873A2000000000
B733493000000000
75000C0000000000
57000C0000000000
48000C0000000000
57000C0000000000
75000B1000000000
9CBA684000000000
84001A1000000000
66000C1000000000
56000EDDA878BA00
75001B4924431850
94000C2900000480
C0000B4800000480
D2001B6356530940
3BBBC7996568B900
ENDCHAR
STARTCHAR lcaron
ENCODING 318
SWIDTH 467 0
DWIDTH 15 0
BBX 15 25 1 0
BITMAP
0000000000540000
0000000002B7A000
015750000A206500
4C757C304901B300
57000662B10B3000
2A000A2B20850000
1B000C0874900000
2A000C0069100000
48000C0000000000
8A873A2000000000
B733493000000000
75000C0000000000
57000C0000000000
48000C0000000000
57000C0000000000
75000B1000000000
9CBA684000000000
84001A1000000000
66000C1000000000
56000EDDA878BA00
75001B4924431850
94000C2900000480
C0000B4800000480
D2001B6356530940
3BBBC7996568B900
ENDCHAR
STARTCHAR Ldot
ENCODING 319
SWIDTH 611 0
DWIDTH 20 0
BBX 18 23 1 0
BITMAP
015750000000000000
4C757C300000000000
570006600000000000
2A000A200000000000
1B000C000000000000
2A000C000000000000
48000C000000000000
8A873A200000000000
B73349300000003310
75000C0000003B77B6
57000C000000380047
48000C0000001A0065
57000C0000003A0076
75000B10000006AB81
9CBA68400000000000
84001A100000000000
66000C100000000000
56000EDDA878BA0000
75001B492443185000
94000C290000048000
C0000B480000048000
D2001B635653094000
3BBBC7996568B90000
ENDCHAR
STARTCHAR ldotaccent
ENCODING 320
SWIDTH 611 0
DWIDTH 20 0
BBX 18 23 1 0
BITMAP
015750000000000000
4C757C300000000000
570006600000000000
2A000A200000000000
1B000C000000000000
2A000C000000000000
48000C000000000000
8A873A200000000000
B73349300000003310
75000C0000003B77B6
57000C000000380047
48000C0000001A0065
57000C0000003A0076
75000B10000006AB81
9CBA68400000000000
84001A100000000000
66000C100000000000
56000EDDA878BA0000
75001B492443185000
94000C290000048000
C0000B480000048000
D2001B635653094000
3BBBC7996568B90000
ENDCHAR
STARTCHAR Lslash
ENCODING 321
SWIDTH 505 0
DWIDTH 16 0
BBX 18 24 -1 -1
BITMAP
000004651000000000
0001C867C500000000
0002B0003A00000000
0000C0006600000000
0000C0008400000000
0000C0009300000000
0000B0009300000000
0004B7746600000000
0007A4455996000000
01258000893B500000
1B99B000A103B00000
6700C000B101C00000
7601B000A337700000
4A0390008B77000000
099BDBA85700000000
004680027500000000
00029000A210000200
0002A000CCEBAABBA0
00039000C0B12100A2
00057000B183000065
000930008591000084
000B300089358985C1
0002ACBC9797323640
000001200000000000
ENDCHAR
STARTCHAR lslash
ENCODING 322
SWIDTH 505 0
DWIDTH 16 0
BBX 18 24 -1 -1
BITMAP
000004651000000000
0001C867C500000000
0002B0003A00000000
0000C0006600000000
0000C0008400000000
0000C0009300000000
0000B0009300000000
0004B7746600000000
0007A4455996000000
01258000893B500000
1B99B000A103B00000
6700C000B101C00000
7601B000A337700000
4A0390008B77000000
099BDBA85700000000
004680027500000000
00029000A210000200
0002A000CCEBAABBA0
00039000C0B12100A2
00057000B183000065
000930008591000084
000B300089358985C1
0002ACBC9797323640
000001200000000000
ENDCHAR
STARTCHAR Nacute
ENCODING 323
SWIDTH 598 0
DWIDTH 19 0
BBX 18 31 1 -1
BITMAP
0000000000AB600000
000000000390850000
000000000B10390000
000000007703B10000
00000004A01B100000
0000000850A3000000
00000001AB80000000
015640000000256300
3C868DC40007B76AA0
57000699000A2000B1
2A000A3C00075000C0
1B000C0A20066002A0
2A000C049007500390
48000C00B4093002A0
89762A233C0D6761C0
B84449D72B2E6452C0
85000B00076C0002A0
57000C0002CA200480
48000E60009D300570
58000CC1001D300480
66000B850024A002A0
9CB9586A7B82DA93C0
84012A2D8000B222C0
66000C059000570480
56000C00B3000C1560
65001B00390004A660
84000C000C00008A70
C0000B10092001C3B0
D1000B3007835C42C0
4CBAC6000169EBBB30
001100000000011000
ENDCHAR
STARTCHAR nacute
ENCODING 324
SWIDTH 598 0
DWIDTH 19 0
BBX 18 31 1 -1
BITMAP
0000000000AB600000
000000000390850000
000000000B10390000
000000007703B10000
00000004A01B100000
0000000850A3000000
00000001AB80000000
015640000000256300
3C868DC40007B76AA0
57000699000A2000B1
2A000A3C00075000C0
1B000C0A20066002A0
2A000C049007500390
48000C00B4093002A0
89762A233C0D6761C0
B84449D72B2E6452C0
85000B00076C0002A0
57000C0002CA200480
48000E60009D300570
58000CC1001D300480
66000B850024A002A0
9CB9586A7B82DA93C0
84012A2D8000B222C0
66000C059000570480
56000C00B3000C1560
65001B00390004A660
84000C000C00008A70
C0000B10092001C3B0
D1000B3007835C42C0
4CBAC6000169EBBB30
001100000000011000
ENDCHAR
STARTCHAR Ncommaaccent
ENCODING 325
SWIDTH 598 0
DWIDTH 19 0
BBX 18 32 1 -9
BITMAP
015640000000256300
3C868DC40007B76AA0
57000699000A2000B1
2A000A3C00075000C0
1B000C0A20066002A0
2A000C049007500390
48000C00B4093002A0
89762A233C0D6761C0
B84449D72B2E6452C0
85000B00076C0002A0
57000C0002CA200480
48000E60009D300570
58000CC1001D300480
66000B850024A002A0
9CB9586A7B82DA93C0
84012A2D8000B222C0
66000C059000570480
56000C00B3000C1560
65001B00390004A660
84000C000C00008A70
C0000B10092001C3B0
D1000B3007835C42C0
4CBAC6000169EBBB30
001100000000011000
00000009B600000000
000000390850000000
000000A203A0000000
000006703B10000000
00003A01B100000000
0000950A3000000000
00001AA80000000000
000000100000000000
ENDCHAR
STARTCHAR ncommaaccent
ENCODING 326
SWIDTH 598 0
DWIDTH 19 0
BBX 18 32 1 -9
BITMAP
015640000000256300
3C868DC40007B76AA0
57000699000A2000B1
2A000A3C00075000C0
1B000C0A20066002A0
2A000C049007500390
48000C00B4093002A0
89762A233C0D6761C0
B84449D72B2E6452C0
85000B00076C0002A0
57000C0002CA200480
48000E60009D300570
58000CC1001D300480
66000B850024A002A0
9CB9586A7B82DA93C0
84012A2D8000B222C0
66000C059000570480
56000C00B3000C1560
65001B00390004A660
84000C000C00008A70
C0000B10092001C3B0
D1000B3007835C42C0
4CBAC6000169EBBB30
001100000000011000
00000009B600000000
000000390850000000
000000A203A0000000
000006703B10000000
00003A01B100000000
0000950A3000000000
00001AA80000000000
000000100000000000
ENDCHAR
STARTCHAR Ncaron
ENCODING 327
SWIDTH 598 0
DWIDTH 19 0
BBX 18 33 1 -1
BITMAP
000001300013100000
00006A8B00B8B40000
0000B00733800B0000
000076019A203A0000
00000B109801B10000
000004801A0A200000
000000B105A9000000
000000651AD2000000
00000019AA60000000
015640000000256300
3C868DC40007B76AA0
57000699000A2000B1
2A000A3C00075000C0
1B000C0A20066002A0
2A000C049007500390
48000C00B4093002A0
89762A233C0D6761C0
B84449D72B2E6452C0
85000B00076C0002A0
57000C0002CA200480
48000E60009D300570
58000CC1001D300480
66000B850024A002A0
9CB9586A7B82DA93C0
84012A2D8000B222C0
66000C059000570480
56000C00B3000C1560
65001B00390004A660
84000C000C00008A70
C0000B10092001C3B0
D1000B3007835C42C0
4CBAC6000169EBBB30
001100000000011000
ENDCHAR
STARTCHAR ncaron
ENCODING 328
SWIDTH 598 0
DWIDTH 19 0
BBX 18 33 1 -1
BITMAP
000001300013100000
00006A8B00B8B40000
0000B00733800B0000
000076019A203A0000
00000B109801B10000
000004801A0A200000
000000B105A9000000
000000651AD2000000
00000019AA60000000
015640000000256300
3C868DC40007B76AA0
57000699000A2000B1
2A000A3C00075000C0
1B000C0A20066002A0
2A000C049007500390
48000C00B4093002A0
89762A233C0D6761C0
B84449D72B2E6452C0
85000B00076C0002A0
57000C0002CA200480
48000E60009D300570
58000CC1001D300480
66000B850024A002A0
9CB9586A7B82DA93C0
84012A2D8000B222C0
66000C059000570480
56000C00B3000C1560
65001B00390004A660
84000C000C00008A70
C0000B10092001C3B0
D1000B3007835C42C0
4CBAC6000169EBBB30
001100000000011000
ENDCHAR
STARTCHAR napostrophe
ENCODING 329
SWIDTH 807 0
DWIDTH 26 0
BBX 25 24 0 -1
BITMAP
00053000025630000000365100
003A89007B76ADB1001B967C60
00B20740A2000B95000C0001C0
05801B3075000C58000C000580
2B01B20066002A1C000B100750
B209400076003909500C000840
9659000084002A01C10C000750
06910000C6761C14683C774580
00000000E6453DB61C5C546490
00000000C0001A000C3A000760
00000000A2003900068C000830
0000000093004E2000CD000930
0000000093003CA0004D000930
00000000B1001AB10038500760
00000000EBA93C779B64DA7490
00000000C1022C3E4001B12570
00000000B100480A5000A20830
00000000A2005701C0003A0A20
00000000B10057008500086A10
00000000C00048003A0000DA30
00000002A0001B000C0004B660
00000004A0002D000C537B1680
000000007CABC300028BEAC910
00000000002100000000020000
ENDCHAR
STARTCHAR Eng
ENCODING 330
SWIDTH 595 0
DWIDTH 19 0
BBX 18 32 1 -9
BITMAP
015640000000000000
3C868DC400018BC810
67000699000B7227C1
2A000A3C000B1000C0
1B000C0A20083001B0
2A000C049007500390
48000C00B407500480
89762A333C09300480
B85559D72B1B1002A0
75000B00076EBCA2C0
57000D0002CD2021C0
48000E60009E000390
57000CC1001D200570
66000B850024A00660
9BA9586A6B82C00570
85002A2D8000B20480
66000C0590005701B0
56000B00B3000DC4C0
66000B00390004B2B0
84000C000C00008A70
C1000B10092001C760
D1000B3007836C4650
4CBAC600016E610660
00110000001D9B1480
00000005BACC54A1B0
00188AC7A50000A7B0
009531002A00008B10
00C000000A00009200
00B10000034ABB9000
0067006ACC81000000
000B8C720000000000
000051000000000000
ENDCHAR
STARTCHAR eng
ENCODING 331
SWIDTH 595 0
DWIDTH 19 0
BBX 18 32 1 -9
BITMAP
015640000000000000
3C868DC400018BC810
67000699000B7227C1
2A000A3C000B1000C0
1B000C0A20083001B0
2A000C049007500390
48000C00B407500480
89762A333C09300480
B85559D72B1B1002A0
75000B00076EBCA2C0
57000D0002CD2021C0
48000E60009E000390
57000CC1001D200570
66000B850024A00660
9BA9586A6B82C00570
85002A2D8000B20480
66000C0590005701B0
56000B00B3000DC4C0
66000B00390004B2B0
84000C000C00008A70
C1000B10092001C760
D1000B3007836C4650
4CBAC600016E610660
00110000001D9B1480
00000005BACC54A1B0
00188AC7A50000A7B0
009531002A00008B10
00C000000A00009200
00B10000034ABB9000
0067006ACC81000000
000B8C720000000000
000051000000000000
ENDCHAR
STARTCHAR Omacron
ENCODING 332
SWIDTH 612 0
DWIDTH 20 0
BBX 19 29 0 -1
BITMAP
00000003100011000000
00000089ABBB9B000000
000000B0000007400000
000000B0232108300000
0000005A989AB9000000
0006B621020000000000
003B269BBDD868BA6000
007400000663665CA800
0093000005600007A600
0075000008300007C400
002D9BBA6345310A8400
0059300C6976CBB85600
00B8520C0000C1312A00
00D6684C0000ECA93C00
00C0002B0000D0001C00
00C00066000093001B00
00C00093000056000C00
02A000A2000048000C00
07941093000048000840
0987988500005B9A9580
084000C100004B201660
0930039000001C396840
0C0006859ECCBC83BB40
490007B6257000004F60
A400057001A000002CB0
3C633A6000A0000049D0
04DA94001135ABDDDE60
00C349CCBBB620576100
001A9300000000000000
ENDCHAR
STARTCHAR omacron
ENCODING 333
SWIDTH 612 0
DWIDTH 20 0
BBX 19 29 0 -1
BITMAP
00000003100011000000
00000089ABBB9B000000
000000B0000007400000
000000B0232108300000
0000005A989AB9000000
0006B621020000000000
003B269BBDD868BA6000
007400000663665CA800
0093000005600007A600
0075000008300007C400
002D9BBA6345310A8400
0059300C6976CBB85600
00B8520C0000C1312A00
00D6684C0000ECA93C00
00C0002B0000D0001C00
00C00066000093001B00
00C00093000056000C00
02A000A2000048000C00
07941093000048000840
0987988500005B9A9580
084000C100004B201660
0930039000001C396840
0C0006859ECCBC83BB40
490007B6257000004F60
A400057001A000002CB0
3C633A6000A0000049D0
04DA94001135ABDDDE60
00C349CCBBB620576100
001A9300000000000000
ENDCHAR
STARTCHAR Obreve
ENCODING 334
SWIDTH 612 0
DWIDTH 20 0
BBX 19 32 0 -1
BITMAP
00000279400276100000
00001C42B00865B30000
00000B00A00A10840000
00000830A00B00B00000
000005607BACC6700000
0000047047004E400000
000002C8C3005D100000
00000017A9ABC1000000
0006B621020000000000
003B269BBDD868BA6000
007400000663665CA800
0093000005600007A600
0075000008300007C400
002D9BBA6345310A8400
0059300C6976CBB85600
00B8520C0000C1312A00
00D6684C0000ECA93C00
00C0002B0000D0001C00
00C00066000093001B00
00C00093000056000C00
02A000A2000048000C00
07941093000048000840
0987988500005B9A9580
084000C100004B201660
0930039000001C396840
0C0006859ECCBC83BB40
490007B6257000004F60
A400057001A000002CB0
3C633A6000A0000049D0
04DA94001135ABDDDE60
00C349CCBBB620576100
001A9300000000000000
ENDCHAR
STARTCHAR obreve
ENCODING 335
SWIDTH 612 0
DWIDTH 20 0
BBX 19 32 0 -1
BITMAP
00000279400276100000
00001C42B00865B30000
00000B00A00A10840000
00000830A00B00B00000
000005607BACC6700000
0000047047004E400000
000002C8C3005D100000
00000017A9ABC1000000
0006B621020000000000
003B269BBDD868BA6000
007400000663665CA800
0093000005600007A600
0075000008300007C400
002D9BBA6345310A8400
0059300C6976CBB85600
00B8520C0000C1312A00
00D6684C0000ECA93C00
00C0002B0000D0001C00
00C00066000093001B00
00C00093000056000C00
02A000A2000048000C00
07941093000048000840
0987988500005B9A9580
084000C100004B201660
0930039000001C396840
0C0006859ECCBC83BB40
490007B6257000004F60
A400057001A000002CB0
3C633A6000A0000049D0
04DA94001135ABDDDE60
00C349CCBBB620576100
001A9300000000000000
ENDCHAR
STARTCHAR Ohungarumlaut
ENCODING 336
SWIDTH 612 0
DWIDTH 20 0
BBX 19 31 0 -1
BITMAP
0000000009B6008B7000
00000000390852B06700
00000000A203A9302B00
00000007703B6902B200
0000003A01B3B00B2000
000000850A3660840000
0000001AB8009B900000
0006B621120000000000
003B269BBDD868BA6000
007400000663665CA800
0093000005600007A600
0075000008300007C400
002D9BBA6345310A8400
0059300C6976CBB85600
00B8520C0000C1312A00
00D6684C0000ECA93C00
00C0002B0000D0001C00
00C00066000093001B00
00C00093000056000C00
02A000A2000048000C00
07941093000048000840
0987988500005B9A9580
084000C100004B201660
0930039000001C396840
0C0006859ECCBC83BB40
490007B6257000004F60
A400057001A000002CB0
3C633A6000A0000049D0
04DA94001135ABDDDE60
00C349CCBBB620576100
001A9300000000000000
ENDCHAR
STARTCHAR ohungarumlaut
ENCODING 337
SWIDTH 612 0
DWIDTH 20 0
BBX 19 31 0 -1
BITMAP
0000000009B6008B7000
00000000390852B06700
00000000A203A9302B00
00000007703B6902B200
0000003A01B3B00B2000
000000850A3660840000
0000001AB8009B900000
0006B621120000000000
003B269BBDD868BA6000
007400000663665CA800
0093000005600007A600
0075000008300007C400
002D9BBA6345310A8400
0059300C6976CBB85600
00B8520C0000C1312A00
00D6684C0000ECA93C00
00C0002B0000D0001C00
00C00066000093001B00
00C00093000056000C00
02A000A2000048000C00
07941093000048000840
0987988500005B9A9580
084000C100004B201660
0930039000001C396840
0C0006859ECCBC83BB40
490007B6257000004F60
A400057001A000002CB0
3C633A6000A0000049D0
04DA94001135ABDDDE60
00C349CCBBB620576100
001A9300000000000000
ENDCHAR
STARTCHAR OE
ENCODING 338
SWIDTH 831 0
DWIDTH 27 0
BBX 27 24 0 -1
BITMAP
0006B62102000157500110002200
003B269BBDD87EEB8CBCDBBCAC00
007400000663665B1852A0000750
00930000056000074C10B0000480
00750000083000075C00A0000660
002D9BBA6345310A1D6558AA7C10
0059300C6976ADB80D5774124300
00B8520C000098962B1000000000
00D6684C0000C7443B1000000000
00C0002B000093000D867A900000
00C00066000065000C3541940000
00C00093000056001B0000570000
02A000A2000066000B0000570000
07941093000084000C6641A30000
098798850000BCBA5A757B800000
084000C10000A3012C1000000000
09300390000089910C3410000000
0C000696BECCC7692D9CCA8AC400
490007B51B10000C290751321B00
A40005700830000A2B0650000B00
3C633A600630000C0C0720000C00
04DA94001249CCC81CA679744900
00C349CBBB935CBBC5364347B100
001A830000000011000000000000
ENDCHAR
STARTCHAR oe
ENCODING 339
SWIDTH 831 0
DWIDTH 27 0
BBX 27 24 0 -1
BITMAP
0006B62102000157500110002200
003B269BBDD87EEB8CBCDBBCAC00
007400000663665B1852A0000750
00930000056000074C10B0000480
00750000083000075C00A0000660
002D9BBA6345310A1D6558AA7C10
0059300C6976ADB80D5774124300
00B8520C000098962B1000000000
00D6684C0000C7443B1000000000
00C0002B000093000D867A900000
00C00066000065000C3541940000
00C00093000056001B0000570000
02A000A2000066000B0000570000
07941093000084000C6641A30000
098798850000BCBA5A757B800000
084000C10000A3012C1000000000
09300390000089910C3410000000
0C000696BECCC7692D9CCA8AC400
490007B51B10000C290751321B00
A40005700830000A2B0650000B00
3C633A600630000C0C0720000C00
04DA94001249CCC81CA679744900
00C349CBBB935CBBC5364347B100
001A830000000011000000000000
ENDCHAR
STARTCHAR Racute
ENCODING 340
SWIDTH 532 0
DWIDTH 17 0
BBX 18 31 0 -1
BITMAP
00000000004C910000
0000000000B13A0000
0000000005700B1000
000000002B00A40000
00000000B209400000
00000002B049000000
000003006BC1000000
0002CAA10000000000
007D404B8420000000
07AB000037D9000000
04B9000000B6C61000
02BC200001B016BC70
02A5ABA407400000B0
039000C9B4100001B0
066000C039BB500670
0ADBB693006A8B6E20
0A3000B12A80038840
066000C7E311005C20
057000E98DBB6B7000
048000C2C203E30000
066000B95000B10000
086320A3C1004A0000
0AA89794BA00067000
084000CB4A2792B000
066000F406D4009300
066001A002C1002B00
084001B0004A0005A0
0B2000C0000A300093
1C0000A200048002B0
0B7336C10000C57B20
006996100000253000
ENDCHAR
STARTCHAR racute
ENCODING 341
SWIDTH 532 0
DWIDTH 17 0
BBX 18 31 0 -1
BITMAP
00000000004C910000
0000000000B13A0000
0000000005700B1000
000000002B00A40000
00000000B209400000
00000002B049000000
000003006BC1000000
0002CAA10000000000
007D404B8420000000
07AB000037D9000000
04B9000000B6C61000
02BC200001B016BC70
02A5ABA407400000B0
039000C9B4100001B0
066000C039BB500670
0ADBB693006A8B6E20
0A3000B12A80038840
066000C7E311005C20
057000E98DBB6B7000
048000C2C203E30000
066000B95000B10000
086320A3C1004A0000
0AA89794BA00067000
084000CB4A2792B000
066000F406D4009300
066001A002C1002B00
084001B0004A0005A0
0B2000C0000A300093
1C0000A200048002B0
0B7336C10000C57B20
006996100000253000
ENDCHAR
STARTCHAR Rcommaaccent
ENCODING 342
SWIDTH 532 0
DWIDTH 17 0
BBX 18 33 0 -9
BITMAP
000003000000000000
0002CAA10000000000
007D404B8420000000
07AB000037D9000000
04B9000000B6C61000
02BC200001B016BC70
02A5ABA407400000B0
039000C9B4100001B0
066000C039BB500670
0ADBB693006A8B6E20
0A3000B12A80038840
066000C7E311005C20
057000E98DBB6B7000
048000C2C203E30000
066000B95000B10000
086320A3C1004A0000
0AA89794BA00067000
084000CB4A2792B000
066000F406D4009300
066001A002C1002B00
084001B0004A0005A0
0B2000C0000A300093
1C0000A200048002B0
0B7336C10000C57B20
006996100000253000
0000000AA500000000
000000480940000000
000000B10490000000
000007604A10000000
00004A02B100000000
0000940A2000000000
00002BB70000000000
000000100000000000
ENDCHAR
STARTCHAR rcommaaccent
ENCODING 343
SWIDTH 532 0
DWIDTH 17 0
BBX 18 33 0 -9
BITMAP
000003000000000000
0002CAA10000000000
007D404B8420000000
07AB000037D9000000
04B9000000B6C61000
02BC200001B016BC70
02A5ABA407400000B0
039000C9B4100001B0
066000C039BB500670
0ADBB693006A8B6E20
0A3000B12A80038840
066000C7E311005C20
057000E98DBB6B7000
048000C2C203E30000
066000B95000B10000
086320A3C1004A0000
0AA89794BA00067000
084000CB4A2792B000
066000F406D4009300
066001A002C1002B00
084001B0004A0005A0
0B2000C0000A300093
1C0000A200048002B0
0B7336C10000C57B20
006996100000253000
0000000AA500000000
000000480940000000
000000B10490000000
000007604A10000000
00004A02B100000000
0000940A2000000000
00002BB70000000000
000000100000000000
ENDCHAR
STARTCHAR Rcaron
ENCODING 344
SWIDTH 532 0
DWIDTH 17 0
BBX 18 33 0 -1
BITMAP
000001300013100000
00006A8A00B8B30000
0000B00824701B0000
000085028B10490000
00000B10A702A00000
000005701A0A200000
000000B006A8000000
000000742BD1000000
00000329AA50000000
0002CAA10000000000
007D404B8420000000
07AB000037D9000000
04B9000000B6C61000
02BC200001B016BC70
02A5ABA407400000B0
039000C9B4100001B0
066000C039BB500670
0ADBB693006A8B6E20
0A3000B12A80038840
066000C7E311005C20
057000E98DBB6B7000
048000C2C203E30000
066000B95000B10000
086320A3C1004A0000
0AA89794BA00067000
084000CB4A2792B000
066000F406D4009300
066001A002C1002B00
084001B0004A0005A0
0B2000C0000A300093
1C0000A200048002B0
0B7336C10000C57B20
006996100000253000
ENDCHAR
STARTCHAR rcaron
ENCODING 345
SWIDTH 532 0
DWIDTH 17 0
BBX 18 33 0 -1
BITMAP
000001300013100000
00006A8A00B8B30000
0000B00824701B0000
000085028B10490000
00000B10A702A00000
000005701A0A200000
000000B006A8000000
000000742BD1000000
00000329AA50000000
0002CAA10000000000
007D404B8420000000
07AB000037D9000000
04B9000000B6C61000
02BC200001B016BC70
02A5ABA407400000B0
039000C9B4100001B0
066000C039BB500670
0ADBB693006A8B6E20
0A3000B12A80038840
066000C7E311005C20
057000E98DBB6B7000
048000C2C203E30000
066000B95000B10000
086320A3C1004A0000
0AA89794BA00067000
084000CB4A2792B000
066000F406D4009300
066001A002C1002B00
084001B0004A0005A0
0B2000C0000A300093
1C0000A200048002B0
0B7336C10000C57B20
006996100000253000
ENDCHAR
STARTCHAR Sacute
ENCODING 346
SWIDTH 442 0
DWIDTH 14 0
BBX 15 32 0 -1
BITMAP
00000000CA400000
0000000761A20000
0000001B00760000
000000A406900000
000007703A000000
00000B21B1000000
000002BC40000000
0000000000000000
00000034236BB000
02B99CAE88617700
0A47820B10001B00
0DC6690820001C00
4A000C0613557800
950007B9B8667100
1B3001C300000000
02B0005A00000000
0084003760000000
002A5B62B0000000
000CA000A2000000
0005A0003B000000
0000770007900000
00000B2000850000
000004829A390000
000000CB300B1000
0000006900058000
021149BE50009600
6BAA73C2C0000B20
B00000A293001C00
C00000825702C400
B1000134AEEF4000
4B5BBAB820010000
0371000000000000
ENDCHAR
STARTCHAR sacute
ENCODING 347
SWIDTH 442 0
DWIDTH 14 0
BBX 15 32 0 -1
BITMAP
00000000CA400000
0000000761A20000
0000001B00760000
000000A406900000
000007703A000000
00000B21B1000000
000002BC40000000
0000000000000000
00000034236BB000
02B99CAE88617700
0A47820B10001B00
0DC6690820001C00
4A000C0613557800
950007B9B8667100
1B3001C300000000
02B0005A00000000
0084003760000000
002A5B62B0000000
000CA000A2000000
0005A0003B000000
0000770007900000
00000B2000850000
000004829A390000
000000CB300B1000
0000006900058000
021149BE50009600
6BAA73C2C0000B20
B00000A293001C00
C00000825702C400
B1000134AEEF4000
4B5BBAB820010000
0371000000000000
ENDCHAR
STARTCHAR Scircumflex
ENCODING 348
SWIDTH 442 0
DWIDTH 14 0
BBX 15 33 0 -1
BITMAP
000009BCB1000000
00002A02E6000000
0000A202BB000000
0005801B25700000
003B009B00A40000
00A10387501C1000
00750A11B01B0000
0008B7007AA20000
0000000000000000
00000034236BB000
02B99CAE88617700
0A47820B10001B00
0DC6690820001C00
4A000C0613557800
950007B9B8667100
1B3001C300000000
02B0005A00000000
0084003760000000
002A5B62B0000000
000CA000A2000000
0005A0003B000000
0000770007900000
00000B2000850000
000004829A390000
000000CB300B1000
0000006900058000
021149BE50009600
6BAA73C2C0000B20
B00000A293001C00
C00000825702C400
B1000134AEEF4000
4B5BBAB820010000
0371000000000000
ENDCHAR
STARTCHAR scircumflex
ENCODING 349
SWIDTH 442 0
DWIDTH 14 0
BBX 15 33 0 -1
BITMAP
000009BCB1000000
00002A02E6000000
0000A202BB000000
0005801B25700000
003B009B00A40000
00A10387501C1000
00750A11B01B0000
0008B7007AA20000
0000000000000000
00000034236BB000
02B99CAE88617700
0A47820B10001B00
0DC6690820001C00
4A000C0613557800
950007B9B8667100
1B3001C300000000
02B0005A00000000
0084003760000000
002A5B62B0000000
000CA000A2000000
0005A0003B000000
0000770007900000
00000B2000850000
000004829A390000
000000CB300B1000
0000006900058000
021149BE50009600
6BAA73C2C0000B20
B00000A293001C00
C00000825702C400
B1000134AEEF4000
4B5BBAB820010000
0371000000000000
ENDCHAR
STARTCHAR Scedilla
ENCODING 350
SWIDTH 442 0
DWIDTH 14 0
BBX 15 30 0 -7
BITMAP
00000034236BB000
02B99CAE88617700
0A47820B10001B00
0DC6690820001C00
4A000C0613557800
950007B9B8667100
1B3001C300000000
02B0005A00000000
0084003760000000
002A5B62B0000000
000CA000A2000000
0005A0003B000000
0000770007900000
00000B2000850000
000004829A390000
000000CB300B1000
0000006900058000
021149BE50009600
6BAA73C2C0000B20
B00000A293001C00
C00000825702C400
B1000134AFEF4000
4B5BBACA28210000
0371004608300000
0000005507400000
00036AE405700000
000C5129BD100000
000A0016A8000000
000A58A510000000
0001840000000000
ENDCHAR
STARTCHAR scedilla
ENCODING 351
SWIDTH 442 0
DWIDTH 14 0
BBX 15 30 0 -7
BITMAP
00000034236BB000
02B99CAE88617700
0A47820B10001B00
0DC6690820001C00
4A000C0613557800
950007B9B8667100
1B3001C300000000
02B0005A00000000
0084003760000000
002A5B62B0000000
000CA000A2000000
0005A0003B000000
0000770007900000
00000B2000850000
000004829A390000
000000CB300B1000
0000006900058000
021149BE50009600
6BAA73C2C0000B20
B00000A293001C00
C00000825702C400
B1000134AFEF4000
4B5BBACA28210000
0371004608300000
0000005507400000
00036AE405700000
000C5129BD100000
000A0016A8000000
000A58A510000000
0001840000000000
ENDCHAR
STARTCHAR Scaron
ENCODING 352
SWIDTH 442 0
DWIDTH 14 0
BBX 15 33 0 -1
BITMAP
0001310013100000
004B8C00A8B50000
00B10542A00B0000
005800A9302B0000
000A207901B10000
0002A00A19400000
0000A204AA000000
00005719D3000000
000009AA70000000
00000034236BB000
02B99CAE88617700
0A47820B10001B00
0DC6690820001C00
4A000C0613557800
950007B9B8667100
1B3001C300000000
02B0005A00000000
0084003760000000
002A5B62B0000000
000CA000A2000000
0005A0003B000000
0000770007900000
00000B2000850000
000004829A390000
000000CB300B1000
0000006900058000
021149BE50009600
6BAA73C2C0000B20
B00000A293001C00
C00000825702C400
B1000134AEEF4000
4B5BBAB820010000
0371000000000000
ENDCHAR
STARTCHAR scaron
ENCODING 353
SWIDTH 442 0
DWIDTH 14 0
BBX 15 33 0 -1
BITMAP
0001310013100000
004B8C00A8B50000
00B10542A00B0000
005800A9302B0000
000A207901B10000
0002A00A19400000
0000A204AA000000
00005719D3000000
000009AA70000000
00000034236BB000
02B99CAE88617700
0A47820B10001B00
0DC6690820001C00
4A000C0613557800
950007B9B8667100
1B3001C300000000
02B0005A00000000
0084003760000000
002A5B62B0000000
000CA000A2000000
0005A0003B000000
0000770007900000
00000B2000850000
000004829A390000
000000CB300B1000
0000006900058000
021149BE50009600
6BAA73C2C0000B20
B00000A293001C00
C00000825702C400
B1000134AEEF4000
4B5BBAB820010000
0371000000000000
ENDCHAR
STARTCHAR Tcommaaccent
ENCODING 354
SWIDTH 453 0
DWIDTH 15 0
BBX 16 32 -1 -9
BITMAP
0185323573101450
0B468986D8ABA7A4
3A00000083000039
390000008300001A
1B00000050000047
089ABBDBABEBBBC1
004102B010C00010
0000049000C00000
000008A873930000
00000A8334830000
0000066000B00000
0000048000C00000
0000039000C00000
0000047000C00000
0000077430930000
000009A788840000
0000066000B10000
0000057000C00000
0000056000C00000
0000075000C00000
00000B1000B10000
00000D1000A40000
000003BBAC600000
0000000110000000
000000AA50000000
0000048094000000
00000B1048000000
00008604A1000000
0004902B10000000
000A30A200000000
0002BB7000000000
0000010000000000
ENDCHAR
STARTCHAR tcommaaccent
ENCODING 355
SWIDTH 453 0
DWIDTH 15 0
BBX 16 32 -1 -9
BITMAP
0185323573101450
0B468986D8ABA7A4
3A00000083000039
390000008300001A
1B00000050000047
089ABBDBABEBBBC1
004102B010C00010
0000049000C00000
000008A873930000
00000A8334830000
0000066000B00000
0000048000C00000
0000039000C00000
0000047000C00000
0000077430930000
000009A788840000
0000066000B10000
0000057000C00000
0000056000C00000
0000075000C00000
00000B1000B10000
00000D1000A40000
000003BBAC600000
0000000110000000
000000AA50000000
0000048094000000
00000B1048000000
00008604A1000000
0004902B10000000
000A30A200000000
0002BB7000000000
0000010000000000
ENDCHAR
STARTCHAR Tcaron
ENCODING 356
SWIDTH 453 0
DWIDTH 15 0
BBX 16 33 -1 -1
BITMAP
0000022000230000
0000A89702C8B100
0003800A08304800
0000B2066A008500
00002A01D3058000
00000930471B0000
000002900AA40000
000000B13CB00000
0000004AAA300000
0185323573101450
0B468986D8ABA7A4
3A00000083000039
390000008300001A
1B00000050000047
089ABBDBABEBBBC1
004102B010C00010
0000049000C00000
000008A873930000
00000A8334830000
0000066000B00000
0000048000C00000
0000039000C00000
0000047000C00000
0000077430930000
000009A788840000
0000066000B10000
0000057000C00000
0000056000C00000
0000075000C00000
00000B1000B10000
00000D1000A40000
000003BBAC600000
0000000110000000
ENDCHAR
STARTCHAR tcaron
ENCODING 357
SWIDTH 453 0
DWIDTH 15 0
BBX 16 33 -1 -1
BITMAP
0000022000230000
0000A89702C8B100
0003800A08304800
0000B2066A008500
00002A01D3058000
00000930471B0000
000002900AA40000
000000B13CB00000
0000004AAA300000
0185323573101450
0B468986D8ABA7A4
3A00000083000039
390000008300001A
1B00000050000047
089ABBDBABEBBBC1
004102B010C00010
0000049000C00000
000008A873930000
00000A8334830000
0000066000B00000
0000048000C00000
0000039000C00000
0000047000C00000
0000077430930000
000009A788840000
0000066000B10000
0000057000C00000
0000056000C00000
0000075000C00000
00000B1000B10000
00000D1000A40000
000003BBAC600000
0000000110000000
ENDCHAR
STARTCHAR Tbar
ENCODING 358
SWIDTH 455 0
DWIDTH 15 0
BBX 16 24 -1 -1
BITMAP
0031000120000010
089BBCCBEBBABBC2
1B00000093010048
390000007400001B
2B00000081000029
0B45899868ABA7A4
019632C364C01450
000002A000B00000
0000068320930000
000009C887750000
00048A6000A22000
002B368AAABAB300
0074000000002A00
0084000000000B00
0058001211004800
0009BDECCECBC200
0000075000A21000
0000057000C00000
0000047000C00000
0000066000C00000
0000093000B10000
00000D0000940000
000007B659B10000
0000002664000000
ENDCHAR
STARTCHAR tbar
ENCODING 359
SWIDTH 455 0
DWIDTH 15 0
BBX 16 24 -1 -1
BITMAP
0031000120000010
089BBCCBEBBABBC2
1B00000093010048
390000007400001B
2B00000081000029
0B45899868ABA7A4
019632C364C01450
000002A000B00000
0000068320930000
000009C887750000
00048A6000A22000
002B368AAABAB300
0074000000002A00
0084000000000B00
0058001211004800
0009BDECCECBC200
0000075000A21000
0000057000C00000
0000047000C00000
0000066000C00000
0000093000B10000
00000D0000940000
000007B659B10000
0000002664000000
ENDCHAR
STARTCHAR Utilde
ENCODING 360
SWIDTH 583 0
DWIDTH 19 0
BBX 18 33 0 -1
BITMAP
000000000000001000
0000000AACB106AB60
0000002902E60B0092
000000A202BB4800B2
000006701B15D10750
00004A00AB00A22A00
0000B10477401B9200
0000750B01A02C9000
000008B5008ACC3000
000255200000255200
007B77B80008B76A90
0093000B300D0000C0
0075000C000A2002A0
008400390008400390
009300570007500390
00C0006600075001B0
03D77357000A6662C1
06A44748000C9553B1
0390008400093000C0
02A000B100057000C0
039000C000039000C0
056000B00002A000B1
0A7310B00003A00085
0B7896A20005CAA949
0A2000C00003B10167
0A2004800000C9D475
0C000687CCBC931C84
2B0007B558000008A5
850005800B00000798
5A2007900A00012A3C
05ECB700025BEA982C
00B317BBCC827CABB2
001BB5100000001100
ENDCHAR
STARTCHAR utilde
ENCODING 361
SWIDTH 583 0
DWIDTH 19 0
BBX 18 33 0 -1
BITMAP
000000000000001000
0000000AACB106AB60
0000002902E60B0092
000000A202BB4800B2
000006701B15D10750
00004A00AB00A22A00
0000B10477401B9200
0000750B01A02C9000
000008B5008ACC3000
000255200000255200
007B77B80008B76A90
0093000B300D0000C0
0075000C000A2002A0
008400390008400390
009300570007500390
00C0006600075001B0
03D77357000A6662C1
06A44748000C9553B1
0390008400093000C0
02A000B100057000C0
039000C000039000C0
056000B00002A000B1
0A7310B00003A00085
0B7896A20005CAA949
0A2000C00003B10167
0A2004800000C9D475
0C000687CCBC931C84
2B0007B558000008A5
850005800B00000798
5A2007900A00012A3C
05ECB700025BEA982C
00B317BBCC827CABB2
001BB5100000001100
ENDCHAR
STARTCHAR Umacron
ENCODING 362
SWIDTH 583 0
DWIDTH 19 0
BBX 18 29 0 -1
BITMAP
000000120000200000
000002B9BBBAA50000
0000074000000B0000
0000065122101A0000
000001AA99ABB30000
000255200000255200
007B77B80008B76A90
0093000B300D0000C0
0075000C000A2002A0
008400390008400390
009300570007500390
00C0006600075001B0
03D77357000A6662C1
06A44748000C9553B1
0390008400093000C0
02A000B100057000C0
039000C000039000C0
056000B00002A000B1
0A7310B00003A00085
0B7896A20005CAA949
0A2000C00003B10167
0A2004800000C9D475
0C000687CCBC931C84
2B0007B558000008A5
850005800B00000798
5A2007900A00012A3C
05ECB700025BEA982C
00B317BBCC827CABB2
001BB5100000001100
ENDCHAR
STARTCHAR umacron
ENCODING 363
SWIDTH 583 0
DWIDTH 19 0
BBX 18 29 0 -1
BITMAP
000000120000200000
000002B9BBBAA50000
0000074000000B0000
0000065122101A0000
000001AA99ABB30000
000255200000255200
007B77B80008B76A90
0093000B300D0000C0
0075000C000A2002A0
008400390008400390
009300570007500390
00C0006600075001B0
03D77357000A6662C1
06A44748000C9553B1
0390008400093000C0
02A000B100057000C0
039000C000039000C0
056000B00002A000B1
0A7310B00003A00085
0B7896A20005CAA949
0A2000C00003B10167
0A2004800000C9D475
0C000687CCBC931C84
2B0007B558000008A5
850005800B00000798
5A2007900A00012A3C
05ECB700025BEA982C
00B317BBCC827CABB2
001BB5100000001100
ENDCHAR
STARTCHAR Ubreve
ENCODING 364
SWIDTH 583 0
DWIDTH 19 0
BBX 18 32 0 -1
BITMAP
000017960016720000
0000B52A10584A5000
0000A2082074047000
0000560730A10B1000
00002904CACC5A0000
00001A01A001E70000
00000C8B5102E30000
0000016B9ABC300000
000255200000255200
007B77B80008B76A90
0093000B300D0000C0
0075000C000A2002A0
008400390008400390
009300570007500390
00C0006600075001B0
03D77357000A6662C1
06A44748000C9553B1
0390008400093000C0
02A000B100057000C0
039000C000039000C0
056000B00002A000B1
0A7310B00003A00085
0B7896A20005CAA949
0A2000C00003B10167
0A2004800000C9D475
0C000687CCBC931C84
2B0007B558000008A5
850005800B00000798
5A2007900A00012A3C
05ECB700025BEA982C
00B317BBCC827CABB2
001BB5100000001100
ENDCHAR
STARTCHAR ubreve
ENCODING 365
SWIDTH 583 0
DWIDTH 19 0
BBX 18 32 0 -1
BITMAP
000017960016720000
0000B52A10584A5000
0000A2082074047000
0000560730A10B1000
00002904CACC5A0000
00001A01A001E70000
00000C8B5102E30000
0000016B9ABC300000
000255200000255200
007B77B80008B76A90
0093000B300D0000C0
0075000C000A2002A0
008400390008400390
009300570007500390
00C0006600075001B0
03D77357000A6662C1
06A44748000C9553B1
0390008400093000C0
02A000B100057000C0
039000C000039000C0
056000B00002A000B1
0A7310B00003A00085
0B7896A20005CAA949
0A2000C00003B10167
0A2004800000C9D475
0C000687CCBC931C84
2B0007B558000008A5
850005800B00000798
5A2007900A00012A3C
05ECB700025BEA982C
00B317BBCC827CABB2
001BB5100000001100
ENDCHAR
STARTCHAR Uring
ENCODING 366
SWIDTH 583 0
DWIDTH 19 0
BBX 18 34 0 -1
BITMAP
000000021001000000
0000001CAABB400000
000000840662A00000
000003A00760A20000
00002B106B702B0000
00007502B1B1083000
00001C7B99983B1000
00000B420008980000
00000A345542660000
000002976669800000
000255200000255200
007B77B80008B76A90
0093000B300D0000C0
0075000C000A2002A0
008400390008400390
009300570007500390
00C0006600075001B0
03D77357000A6662C1
06A44748000C9553B1
0390008400093000C0
02A000B100057000C0
039000C000039000C0
056000B00002A000B1
0A7310B00003A00085
0B7896A20005CAA949
0A2000C00003B10167
0A2004800000C9D475
0C000687CCBC931C84
2B0007B558000008A5
850005800B00000798
5A2007900A00012A3C
05ECB700025BEA982C
00B317BBCC827CABB2
001BB5100000001100
ENDCHAR
STARTCHAR uring
ENCODING 367
SWIDTH 583 0
DWIDTH 19 0
BBX 18 34 0 -1
BITMAP
000000021001000000
0000001CAABB400000
000000840662A00000
000003A00760A20000
00002B106B702B0000
00007502B1B1083000
00001C7B99983B1000
00000B420008980000
00000A345542660000
000002976669800000
000255200000255200
007B77B80008B76A90
0093000B300D0000C0
0075000C000A2002A0
008400390008400390
009300570007500390
00C0006600075001B0
03D77357000A6662C1
06A44748000C9553B1
0390008400093000C0
02A000B100057000C0
039000C000039000C0
056000B00002A000B1
0A7310B00003A00085
0B7896A20005CAA949
0A2000C00003B10167
0A2004800000C9D475
0C000687CCBC931C84
2B0007B558000008A5
850005800B00000798
5A2007900A00012A3C
05ECB700025BEA982C
00B317BBCC827CABB2
001BB5100000001100
ENDCHAR
STARTCHAR Uhungarumlaut
ENCODING 368
SWIDTH 583 0
DWIDTH 19 0
BBX 18 31 0 -1
BITMAP
00000000AB5009B700
0000000480943A0760
0000000B1049A203A0
0000008604A7803B10
000004902B3B01B100
00000940A275093000
000001AB701AB80000
000255200000255200
007B77B80008B76A90
0093000B300D0000C0
0075000C000A2002A0
008400390008400390
009300570007500390
00C0006600075001B0
03D77357000A6662C1
06A44748000C9553B1
0390008400093000C0
02A000B100057000C0
039000C000039000C0
056000B00002A000B1
0A7310B00003A00085
0B7896A20005CAA949
0A2000C00003B10167
0A2004800000C9D475
0C000687CCBC931C84
2B0007B558000008A5
850005800B00000798
5A2007900A00012A3C
05ECB700025BEA982C
00B317BBCC827CABB2
001BB5100000001100
ENDCHAR
STARTCHAR uhungarumlaut
ENCODING 369
SWIDTH 583 0
DWIDTH 19 0
BBX 18 31 0 -1
BITMAP
00000000AB5009B700
0000000480943A0760
0000000B1049A203A0
0000008604A7803B10
000004902B3B01B100
00000940A275093000
000001AB701AB80000
000255200000255200
007B77B80008B76A90
0093000B300D0000C0
0075000C000A2002A0
008400390008400390
009300570007500390
00C0006600075001B0
03D77357000A6662C1
06A44748000C9553B1
0390008400093000C0
02A000B100057000C0
039000C000039000C0
056000B00002A000B1
0A7310B00003A00085
0B7896A20005CAA949
0A2000C00003B10167
0A2004800000C9D475
0C000687CCBC931C84
2B0007B558000008A5
850005800B00000798
5A2007900A00012A3C
05ECB700025BEA982C
00B317BBCC827CABB2
001BB5100000001100
ENDCHAR
STARTCHAR Uogonek
ENCODING 370
SWIDTH 583 0
DWIDTH 19 0
BBX 19 31 0 -8
BITMAP
00025520000025520000
007B77B80008B76A9000
0093000B300D0000C000
0075000C000A2002A000
00840039000840039000
00930057000750039000
00C0006600075001B000
03D77357000A6662C100
06A44748000C9553B100
0390008400093000C000
02A000B100057000C000
039000C000039000C000
056000B00002A000B100
0A7310B00003A0008500
0B7896A20005CAA94900
0A2000C00003B1016700
0A2004800000C9D47500
0C000687CCBC931C8400
2B0007B558000008A500
850005800B0000079800
5A2007900A00012A3C00
05ECB700025BEA982C00
00B317BBCC82BCABC300
001BB5100000B02B1000
00000000000660570000
00000000000C00B50000
00000000000997AA7100
000000000002D8005C10
0000000000001A700B00
00000000000000978700
00000000000000074000
ENDCHAR
STARTCHAR uogonek
ENCODING 371
SWIDTH 583 0
DWIDTH 19 0
BBX 19 31 0 -8
BITMAP
00025520000025520000
007B77B80008B76A9000
0093000B300D0000C000
0075000C000A2002A000
00840039000840039000
00930057000750039000
00C0006600075001B000
03D77357000A6662C100
06A44748000C9553B100
0390008400093000C000
02A000B100057000C000
039000C000039000C000
056000B00002A000B100
0A7310B00003A0008500
0B7896A20005CAA94900
0A2000C00003B1016700
0A2004800000C9D47500
0C000687CCBC931C8400
2B0007B558000008A500
850005800B0000079800
5A2007900A00012A3C00
05ECB700025BEA982C00
00B317BBCC82BCABC300
001BB5100000B02B1000
00000000000660570000
00000000000C00B50000
00000000000997AA7100
000000000002D8005C10
0000000000001A700B00
00000000000000978700
00000000000000074000
ENDCHAR
STARTCHAR Wcircumflex
ENCODING 372
SWIDTH 735 0
DWIDTH 24 0
BBX 25 31 -1 -1
BITMAP
00000000002CBD600000000000
00000000008407E10000000000
0000000002B007A70000000000
000000000A20490A2000000000
000000008601D602C100000000
00000001A0093B004900000000
00000000B12905606700000000
000000002AB200BB9000000000
00389720000000000029BB6000
06B536B00000452000A5017B00
1D0001B0002B97B60093000B20
0A3000C000B2003700A2002A00
049000C000E5002800C0007500
00C0009403AB000B02B000A100
00C0003B097B1008486000B000
00B59A4B1D8C4573BDBBA3C000
00BA300A2B08D621BC0001C000
006700083B049000BB00048000
000C00067A00A1009B00093000
00094002E70065004A000C0000
00057000B510373595000C0000
00029013C9AA4E96D8410C0000
0001DBA7B0006E10C56A4C0000
0000C100B000B950C0003A0000
000067029001B391B000940000
00001B07500391A49000C00000
00000C0B100471A94000C00000
00000B58000471BC0000B00000
00000B2C5107704A0000B00000
00000A74DFB70009A547B00000
00000069720000003785000000
ENDCHAR
STARTCHAR wcircumflex
ENCODING 373
SWIDTH 735 0
DWIDTH 24 0
BBX 25 31 -1 -1
BITMAP
00000000002CBD600000000000
00000000008407E10000000000
0000000002B007A70000000000
000000000A20490A2000000000
000000008601D602C100000000
00000001A0093B004900000000
00000000B12905606700000000
000000002AB200BB9000000000
00389720000000000029BB6000
06B536B00000452000A5017B00
1D0001B0002B97B60093000B20
0A3000C000B2003700A2002A00
049000C000E5002800C0007500
00C0009403AB000B02B000A100
00C0003B097B1008486000B000
00B59A4B1D8C4573BDBBA3C000
00BA300A2B08D621BC0001C000
006700083B049000BB00048000
000C00067A00A1009B00093000
00094002E70065004A000C0000
00057000B510373595000C0000
00029013C9AA4E96D8410C0000
0001DBA7B0006E10C56A4C0000
0000C100B000B950C0003A0000
000067029001B391B000940000
00001B07500391A49000C00000
00000C0B100471A94000C00000
00000B58000471BC0000B00000
00000B2C5107704A0000B00000
00000A74DFB70009A547B00000
00000069720000003785000000
ENDCHAR
STARTCHAR Ycircumflex
ENCODING 374
SWIDTH 484 0
DWIDTH 16 0
BBX 18 31 -1 0
BITMAP
0000002CBD60000000
0000008308E1000000
000002A007A7000000
00000B20480A200000
00008502D602B10000
0002A0093B00580000
0000B1390650660000
00003BB201BB800000
000000000000000000
004991000002BCA400
099476000005703B70
48001C0000084000B3
A3000680000C0001C1
3C2000A60067000A40
02C1000A62C1003A00
00490173BCC6108400
000B4B305C26B2C000
0004E200490003B000
0000A60094000B3000
00000A41C000580000
000001BA5000B10000
0000005E5001B00000
000000776B54800000
000000B10058500000
000002B0004B000000
00000A4000C2000000
00005A000490000000
0001D1000930000000
0000C3000C00000000
00003C734C00000000
000000598200000000
ENDCHAR
STARTCHAR ycircumflex
ENCODING 375
SWIDTH 484 0
DWIDTH 16 0
BBX 18 31 -1 0
BITMAP
0000002CBD60000000
0000008308E1000000
000002A007A7000000
00000B20480A200000
00008502D602B10000
0002A0093B00580000
0000B1390650660000
00003BB201BB800000
000000000000000000
004991000002BCA400
099476000005703B70
48001C0000084000B3
A3000680000C0001C1
3C2000A60067000A40
02C1000A62C1003A00
00490173BCC6108400
000B4B305C26B2C000
0004E200490003B000
0000A60094000B3000
00000A41C000580000
000001BA5000B10000
0000005E5001B00000
000000776B54800000
000000B10058500000
000002B0004B000000
00000A4000C2000000
00005A000490000000
0001D1000930000000
0000C3000C00000000
00003C734C00000000
000000598200000000
ENDCHAR
STARTCHAR Ydieresis
ENCODING 376
SWIDTH 484 0
DWIDTH 16 0
BBX 18 28 -1 0
BITMAP
00029AAA33ABB70000
000A400749300A4000
0004700A17400B0000
0001A00B06500A0000
0001BAB802ABB60000
000000000000000000
004991000002BCA400
099476000005703B70
48001C0000084000B3
A3000680000C0001C1
3C2000A60067000A40
02C1000A62C1003A00
00490173BCC6108400
000B4B305C26B2C000
0004E200490003B000
0000A60094000B3000
00000A41C000580000
000001BA5000B10000
0000005E5001B00000
000000776B54800000
000000B10058500000
000002B0004B000000
00000A4000C2000000
00005A000490000000
0001D1000930000000
0000C3000C00000000
00003C734C00000000
000000598200000000
ENDCHAR
STARTCHAR Zacute
ENCODING 377
SWIDTH 458 0
DWIDTH 15 0
BBX 16 30 -1 0
BITMAP
0000000002CA3000
000000000931B100
000000002A009400
00000000B2086000
0000000940670000
0000000C12B00000
00000004BC200000
0001100020001200
001BBBBAEBBBAC10
00750000A2000570
00920000830002E3
00840000810004AA
003B379869AB9CC6
00059423D6002B70
00000009C2002B00
0000001C6B709400
000000580062C000
000000B200087000
00000680005A0000
00003C1001C10000
0000CA2007600000
0003A4C60C000000
000940074B000000
003B0001C3000000
01C2000AEA88BB00
1C400059A2320660
390000B183000290
0C3002A082000380
02B859A545886A30
0008C75686325600
ENDCHAR
STARTCHAR zacute
ENCODING 378
SWIDTH 458 0
DWIDTH 15 0
BBX 16 30 -1 0
BITMAP
0000000002CA3000
000000000931B100
000000002A009400
00000000B2086000
0000000940670000
0000000C12B00000
00000004BC200000
0001100020001200
001BBBBAEBBBAC10
00750000A2000570
00920000830002E3
00840000810004AA
003B379869AB9CC6
00059423D6002B70
00000009C2002B00
0000001C6B709400
000000580062C000
000000B200087000
00000680005A0000
00003C1001C10000
0000CA2007600000
0003A4C60C000000
000940074B000000
003B0001C3000000
01C2000AEA88BB00
1C400059A2320660
390000B183000290
0C3002A082000380
02B859A545886A30
0008C75686325600
ENDCHAR
STARTCHAR Zdotaccent
ENCODING 379
SWIDTH 458 0
DWIDTH 15 0
BBX 16 29 -1 0
BITMAP
0000005AAA910000
000000D100B00000
0000009300B00000
0000006501B00000
0000004BAB500000
0000000000000000
0001100020001200
001BBBBAEBBBAC10
00750000A2000570
00920000830002E3
00840000810004AA
003B379869AB9CC6
00059423D6002B70
00000009C2002B00
0000001C6B709400
000000580062C000
000000B200087000
00000680005A0000
00003C1001C10000
0000CA2007600000
0003A4C60C000000
000940074B000000
003B0001C3000000
01C2000AEA88BB00
1C400059A2320660
390000B183000290
0C3002A082000380
02B859A545886A30
0008C75686325600
ENDCHAR
STARTCHAR zdotaccent
ENCODING 380
SWIDTH 458 0
DWIDTH 15 0
BBX 16 29 -1 0
BITMAP
0000005AAA910000
000000D100B00000
0000009300B00000
0000006501B00000
0000004BAB500000
0000000000000000
0001100020001200
001BBBBAEBBBAC10
00750000A2000570
00920000830002E3
00840000810004AA
003B379869AB9CC6
00059423D6002B70
00000009C2002B00
0000001C6B709400
000000580062C000
000000B200087000
00000680005A0000
00003C1001C10000
0000CA2007600000
0003A4C60C000000
000940074B000000
003B0001C3000000
01C2000AEA88BB00
1C400059A2320660
390000B183000290
0C3002A082000380
02B859A545886A30
0008C75686325600
ENDCHAR
STARTCHAR Zcaron
ENCODING 381
SWIDTH 458 0
DWIDTH 15 0
BBX 16 32 -1 0
BITMAP
0000032000220000
0000A8A603B9A000
0004700A09205600
0001B10769009400
00004901E1066000
00000A20652A0000
000003800BA20000
000000B14CA00000
0000005AAA200000
0001100020001200
001BBBBAEBBBAC10
00750000A2000570
00920000830002E3
00840000810004AA
003B379869AB9CC6
00059423D6002B70
00000009C2002B00
0000001C6B709400
000000580062C000
000000B200087000
00000680005A0000
00003C1001C10000
0000CA2007600000
0003A4C60C000000
000940074B000000
003B0001C3000000
01C2000AEA88BB00
1C400059A2320660
390000B183000290
0C3002A082000380
02B859A545886A30
0008C75686325600
ENDCHAR
STARTCHAR zcaron
ENCODING 382
SWIDTH 458 0
DWIDTH 15 0
BBX 16 32 -1 0
BITMAP
0000032000220000
0000A8A603B9A000
0004700A09205600
0001B10769009400
00004901E1066000
00000A20652A0000
000003800BA20000
000000B14CA00000
0000005AAA200000
0001100020001200
001BBBBAEBBBAC10
00750000A2000570
00920000830002E3
00840000810004AA
003B379869AB9CC6
00059423D6002B70
00000009C2002B00
0000001C6B709400
000000580062C000
000000B200087000
00000680005A0000
00003C1001C10000
0000CA2007600000
0003A4C60C000000
000940074B000000
003B0001C3000000
01C2000AEA88BB00
1C400059A2320660
390000B183000290
0C3002A082000380
02B859A545886A30
0008C75686325600
ENDCHAR
STARTCHAR AEacute
ENCODING 508
SWIDTH 797 0
DWIDTH 26 0
BBX 27 32 -1 -1
BITMAP
0000000000000003CA2000000000
000000000000000A22B000000000
000000000000003900A300000000
00000000000001B1095000000000
0000000000000A30760000000000
0000000000001C03A00000000000
00000000000005BC100000000000
0000000000000000000000000000
0000000000000156400110002100
0000000003656C769CBCDBBCAB00
000000000C68E6000842A0000840
000000002A001C200B00B0000570
00000000850006800C0190000650
00000001C0002C100D6558BA7C10
0000000B4000B6000D5773124300
0000009C2004F8761C0000000000
000000C5A909E6443B1000000000
00000390043CA2000E867A900000
00000940008775001B3541A30000
00002C0003A066002A0000560000
0000B4000B2075001A0000660000
0006D2003D76B3000C6641B20000
000B5A917634DCBA4A657B800000
001B0045B100A2011B0000000000
00850006900083001B3400000000
03B0002D7898B4003D9DCA8AC400
1C2000B74222A300390741311B00
950002B00000B1002A0640000B00
690006600000B0000C0810000B00
09A32A300002C1001D9579745900
0038A70000005CBBC5364348B100
0000000000000011000000000000
ENDCHAR
STARTCHAR aeacute
ENCODING 509
SWIDTH 797 0
DWIDTH 26 0
BBX 27 32 -1 -1
BITMAP
0000000000000003CA2000000000
000000000000000A22B000000000
000000000000003900A300000000
00000000000001B1095000000000
0000000000000A30760000000000
0000000000001C03A00000000000
00000000000005BC100000000000
0000000000000000000000000000
0000000000000156400110002100
0000000003656C769CBCDBBCAB00
000000000C68E6000842A0000840
000000002A001C200B00B0000570
00000000850006800C0190000650
00000001C0002C100D6558BA7C10
0000000B4000B6000D5773124300
0000009C2004F8761C0000000000
000000C5A909E6443B1000000000
00000390043CA2000E867A900000
00000940008775001B3541A30000
00002C0003A066002A0000560000
0000B4000B2075001A0000660000
0006D2003D76B3000C6641B20000
000B5A917634DCBA4A657B800000
001B0045B100A2011B0000000000
00850006900083001B3400000000
03B0002D7898B4003D9DCA8AC400
1C2000B74222A300390741311B00
950002B00000B1002A0640000B00
690006600000B0000C0810000B00
09A32A300002C1001D9579745900
0038A70000005CBBC5364348B100
0000000000000011000000000000
ENDCHAR
STARTCHAR Oslashacute
ENCODING 510
SWIDTH 612 0
DWIDTH 20 0
BBX 19 32 0 -2
BITMAP
000000000007B8000000
00000000001B05900000
00000000008401C00000
0000000003A01B200000
000000001B10A3000000
00000000580760000000
0000000008BA00000000
0006B621020000000000
003B269BBDD869CD8000
0074000006637B01A700
00930000056075001C00
007500000831B0003B00
002D9BBA644A4001D500
0059300C69C9000A9600
00B8520C04D200492B00
00D6683C0B7C80A93C00
00C0001B2A0073901C00
00C0006693000A301B00
00C00086A00088000C00
02A000AC2003C8000C00
079410A6000B58000840
09879AF810485B9A9580
08400937D2924B201660
09302B0035B01C396840
0C0093001CDCBC83BB40
49059000997000004F60
A43B000491A000002CB0
3CC1000B10A0000049D0
03A000481135ABDDDE60
00C4009CBBB620576100
002CBAB0000000000000
00002200000000000000
ENDCHAR
STARTCHAR oslashacute
ENCODING 511
SWIDTH 612 0
DWIDTH 20 0
BBX 19 32 0 -2
BITMAP
000000000007B8000000
00000000001B05900000
00000000008401C00000
0000000003A01B200000
000000001B10A3000000
00000000580760000000
0000000008BA00000000
0006B621020000000000
003B269BBDD869CD8000
0074000006637B01A700
00930000056075001C00
007500000831B0003B00
002D9BBA644A4001D500
0059300C69C9000A9600
00B8520C04D200492B00
00D6683C0B7C80A93C00
00C0001B2A0073901C00
00C0006693000A301B00
00C00086A00088000C00
02A000AC2003C8000C00
079410A6000B58000840
09879AF810485B9A9580
08400937D2924B201660
09302B0035B01C396840
0C0093001CDCBC83BB40
49059000997000004F60
A43B000491A000002CB0
3CC1000B10A0000049D0
03A000481135ABDDDE60
00C4009CBBB620576100
002CBAB0000000000000
00002200000000000000
ENDCHAR
STARTCHAR dotlessj
ENCODING 567
SWIDTH 482 0
DWIDTH 15 0
BBX 16 25 -1 -2
BITMAP
0000000000156500
0000000003C868C3
0000000004800057
0000000001B00093
0000000000B000B1
0000000001B000C0
00000000039000B1
0000000007A77393
000000000A944484
00000000076000B1
00000000048000C0
0028A100039000C0
05B46700048000C0
2B000B20057000B1
750002C208CBA675
3C40002C47500293
01B40053C67000C0
001C1A706D8000C0
0005D7000A9000C0
0000C600009900C0
00000A60000A30A2
000000B2001C10A4
0000003A00AEBC60
0000000AAC611000
0000000020000000
ENDCHAR
STARTCHAR circumflex
ENCODING 710
SWIDTH 308 0
DWIDTH 10 0
BBX 10 8 0 24
BITMAP
000CBD8000
006605F200
01B004B900
09402A0840
6800C801C2
C0075A202B
A21A038049
1AB4009AA1
ENDCHAR
STARTCHAR caron
ENCODING 711
SWIDTH 310 0
DWIDTH 10 0
BBX 10 9 0 24
BITMAP
0130001310
6A8A00B8B3
B00824701B
85028B1049
0B10A702A0
05701A0A20
00B006A800
00742BD100
0029AA5000
ENDCHAR
STARTCHAR breve
ENCODING 728
SWIDTH 333 0
DWIDTH 11 0
BBX 11 8 0 24
BITMAP
179600167200
B52B10584A50
A10910740570
550830A10B10
2804CACC5900
1A029002E600
0D8B5002E200
016B9ABC3000
ENDCHAR
STARTCHAR dotaccent
ENCODING 729
SWIDTH 166 0
DWIDTH 5 0
BBX 6 5 0 24
BITMAP
4AAA91
C200A2
7500B0
4700B0
2BAB60
ENDCHAR
STARTCHAR ring
ENCODING 730
SWIDTH 309 0
DWIDTH 10 0
BBX 10 10 0 24
BITMAP
0002000000
006ABAAC00
00B00B1740
08501B21B0
6800BB2076
C00863A00B
5B7C99C378
39410039B2
1A245531B1
0586667940
ENDCHAR
STARTCHAR ogonek
ENCODING 731
SWIDTH 226 0
DWIDTH 7 0
BBX 8 11 0 -8
BITMAP
00340000
03A7B200
07404900
0B00A200
48038000
B1096000
7A6B9910
1DA104C2
018800A1
00078780
00006500
ENDCHAR
STARTCHAR tilde
ENCODING 732
SWIDTH 410 0
DWIDTH 13 0
BBX 13 9 0 24
BITMAP
00000000001000
000BAD90099B40
005704F31A00B0
01B104BA7501B0
09402A08B00A30
6800B901A15700
B0074A203AA000
A31A03803D7000
19B300AADC1000
ENDCHAR
STARTCHAR hungarumlaut
ENCODING 733
SWIDTH 361 0
DWIDTH 12 0
BBX 12 7 0 24
BITMAP
001CA300BB40
00851B2660A3
01B0086B0067
0A3078940590
860496803A00
C11B1B20B100
3BC302BC5000
ENDCHAR
STARTCHAR uni0312
ENCODING 786
SWIDTH 202 0
DWIDTH 6 0
BBX 7 8 0 15
BITMAP
00053000
003A8900
00B20740
05801B30
2B01B200
B2094000
96590000
06910000
ENDCHAR
STARTCHAR uni0315
ENCODING 789
SWIDTH 202 0
DWIDTH 6 0
BBX 7 8 0 15
BITMAP
00053000
003A8900
00B20740
05801B30
2B01B200
B2094000
96590000
06910000
ENDCHAR
STARTCHAR uni0326
ENCODING 806
SWIDTH 201 0
DWIDTH 6 0
BBX 7 8 0 -9
BITMAP
001CA300
00751B20
01B00750
0A306800
76049000
C11B1000
3BC40000
00100000
ENDCHAR
STARTCHAR Wgrave
ENCODING 7808
SWIDTH 735 0
DWIDTH 24 0
BBX 25 31 -1 -1
BITMAP
00000000000110000000000000
0000000003BAC0000000000000
000000001B10A1000000000000
000000001B1065000000000000
0000000004901A000000000000
00000000009309300000000000
00000000002A06700000000000
000000000009B8000000000000
00389720000000000029BB6000
06B536B00000452000A5017B00
1D0001B0002B97B60093000B20
0A3000C000B2003700A2002A00
049000C000E5002800C0007500
00C0009403AB000B02B000A100
00C0003B097B1008486000B000
00B59A4B1D8C4573BDBBA3C000
00BA300A2B08D621BC0001C000
006700083B049000BB00048000
000C00067A00A1009B00093000
00094002E70065004A000C0000
00057000B510373595000C0000
00029013C9AA4E96D8410C0000
0001DBA7B0006E10C56A4C0000
0000C100B000B950C0003A0000
000067029001B391B000940000
00001B07500391A49000C00000
00000C0B100471A94000C00000
00000B58000471BC0000B00000
00000B2C5107704A0000B00000
00000A74DFB70009A547B00000
00000069720000003785000000
ENDCHAR
STARTCHAR wgrave
ENCODING 7809
SWIDTH 735 0
DWIDTH 24 0
BBX 25 31 -1 -1
BITMAP
00000000000110000000000000
0000000003BAC0000000000000
000000001B10A1000000000000
000000001B1065000000000000
0000000004901A000000000000
00000000009309300000000000
00000000002A06700000000000
000000000009B8000000000000
00389720000000000029BB6000
06B536B00000452000A5017B00
1D0001B0002B97B60093000B20
0A3000C000B2003700A2002A00
049000C000E5002800C0007500
00C0009403AB000B02B000A100
00C0003B097B1008486000B000
00B59A4B1D8C4573BDBBA3C000
00BA300A2B08D621BC0001C000
006700083B049000BB00048000
000C00067A00A1009B00093000
00094002E70065004A000C0000
00057000B510373595000C0000
00029013C9AA4E96D8410C0000
0001DBA7B0006E10C56A4C0000
0000C100B000B950C0003A0000
000067029001B391B000940000
00001B07500391A49000C00000
00000C0B100471A94000C00000
00000B58000471BC0000B00000
00000B2C5107704A0000B00000
00000A74DFB70009A547B00000
00000069720000003785000000
ENDCHAR
STARTCHAR Wacute
ENCODING 7810
SWIDTH 735 0
DWIDTH 24 0
BBX 25 30 -1 -1
BITMAP
000000000000007B8000000000
00000000000001B05800000000
00000000000008401C00000000
0000000000004A01B200000000
000000000001B10B2000000000
00000000000580760000000000
0000000000008BA00000000000
00389720000000000029BB6000
06B536B00000452000A5017B00
1D0001B0002B97B60093000B20
0A3000C000B2003700A2002A00
049000C000E5002800C0007500
00C0009403AB000B02B000A100
00C0003B097B1008486000B000
00B59A4B1D8C4573BDBBA3C000
00BA300A2B08D621BC0001C000
006700083B049000BB00048000
000C00067A00A1009B00093000
00094002E70065004A000C0000
00057000B510373595000C0000
00029013C9AA4E96D8410C0000
0001DBA7B0006E10C56A4C0000
0000C100B000B950C0003A0000
000067029001B391B000940000
00001B07500391A49000C00000
00000C0B100471A94000C00000
00000B58000471BC0000B00000
00000B2C5107704A0000B00000
00000A74DFB70009A547B00000
00000069720000003785000000
ENDCHAR
STARTCHAR wacute
ENCODING 7811
SWIDTH 735 0
DWIDTH 24 0
BBX 25 30 -1 -1
BITMAP
000000000000007B8000000000
00000000000001B05800000000
00000000000008401C00000000
0000000000004A01B200000000
000000000001B10B2000000000
00000000000580760000000000
0000000000008BA00000000000
00389720000000000029BB6000
06B536B00000452000A5017B00
1D0001B0002B97B60093000B20
0A3000C000B2003700A2002A00
049000C000E5002800C0007500
00C0009403AB000B02B000A100
00C0003B097B1008486000B000
00B59A4B1D8C4573BDBBA3C000
00BA300A2B08D621BC0001C000
006700083B049000BB00048000
000C00067A00A1009B00093000
00094002E70065004A000C0000
00057000B510373595000C0000
00029013C9AA4E96D8410C0000
0001DBA7B0006E10C56A4C0000
0000C100B000B950C0003A0000
000067029001B391B000940000
00001B07500391A49000C00000
00000C0B100471A94000C00000
00000B58000471BC0000B00000
00000B2C5107704A0000B00000
00000A74DFB70009A547B00000
00000069720000003785000000
ENDCHAR
STARTCHAR Wdieresis
ENCODING 7812
SWIDTH 735 0
DWIDTH 24 0
BBX 25 28 -1 -1
BITMAP
00000003AAAA23ABB700000000
0000000A400849300A30000000
00000004700B07300B00000000
00000002900B07401A00000000
00000001BAB802ABB500000000
00389720000000000029BB6000
06B536B00000452000A5017B00
1D0001B0002B97B60093000B20
0A3000C000B2003700A2002A00
049000C000E5002800C0007500
00C0009403AB000B02B000A100
00C0003B097B1008486000B000
00B59A4B1D8C4573BDBBA3C000
00BA300A2B08D621BC0001C000
006700083B049000BB00048000
000C00067A00A1009B00093000
00094002E70065004A000C0000
00057000B510373595000C0000
00029013C9AA4E96D8410C0000
0001DBA7B0006E10C56A4C0000
0000C100B000B950C0003A0000
000067029001B391B000940000
00001B07500391A49000C00000
00000C0B100471A94000C00000
00000B58000471BC0000B00000
00000B2C5107704A0000B00000
00000A74DFB70009A547B00000
00000069720000003785000000
ENDCHAR
STARTCHAR wdieresis
ENCODING 7813
SWIDTH 735 0
DWIDTH 24 0
BBX 25 28 -1 -1
BITMAP
00000003AAAA23ABB700000000
0000000A400849300A30000000
00000004700B07300B00000000
00000002900B07401A00000000
00000001BAB802ABB500000000
00389720000000000029BB6000
06B536B00000452000A5017B00
1D0001B0002B97B60093000B20
0A3000C000B2003700A2002A00
049000C000E5002800C0007500
00C0009403AB000B02B000A100
00C0003B097B1008486000B000
00B59A4B1D8C4573BDBBA3C000
00BA300A2B08D621BC0001C000
006700083B049000BB00048000
000C00067A00A1009B00093000
00094002E70065004A000C0000
00057000B510373595000C0000
00029013C9AA4E96D8410C0000
0001DBA7B0006E10C56A4C0000
0000C100B000B950C0003A0000
000067029001B391B000940000
00001B07500391A49000C00000
00000C0B100471A94000C00000
00000B58000471BC0000B00000
00000B2C5107704A0000B00000
00000A74DFB70009A547B00000
00000069720000003785000000
ENDCHAR
STARTCHAR Ygrave
ENCODING 7922
SWIDTH 484 0
DWIDTH 16 0
BBX 18 30 -1 0
BITMAP
000000011000000000
000003BAC000000000
00001B10A100000000
00001B106500000000
000004901A00000000
000000930930000000
0000002A0670000000
00000009B800000000
004991000002BCA400
099476000005703B70
48001C0000084000B3
A3000680000C0001C1
3C2000A60067000A40
02C1000A62C1003A00
00490173BCC6108400
000B4B305C26B2C000
0004E200490003B000
0000A60094000B3000
00000A41C000580000
000001BA5000B10000
0000005E5001B00000
000000776B54800000
000000B10058500000
000002B0004B000000
00000A4000C2000000
00005A000490000000
0001D1000930000000
0000C3000C00000000
00003C734C00000000
000000598200000000
ENDCHAR
STARTCHAR ygrave
ENCODING 7923
SWIDTH 484 0
DWIDTH 16 0
BBX 18 30 -1 0
BITMAP
000000011000000000
000003BAC000000000
00001B10A100000000
00001B106500000000
000004901A00000000
000000930930000000
0000002A0670000000
00000009B800000000
004991000002BCA400
099476000005703B70
48001C0000084000B3
A3000680000C0001C1
3C2000A60067000A40
02C1000A62C1003A00
00490173BCC6108400
000B4B305C26B2C000
0004E200490003B000
0000A60094000B3000
00000A41C000580000
000001BA5000B10000
0000005E5001B00000
000000776B54800000
000000B10058500000
000002B0004B000000
00000A4000C2000000
00005A000490000000
0001D1000930000000
0000C3000C00000000
00003C734C00000000
000000598200000000
ENDCHAR
STARTCHAR endash
ENCODING 8211
SWIDTH 591 0
DWIDTH 19 0
BBX 19 7 0 7
BITMAP
04C95468534872015100
0C13675C7876B9BA8A00
2900000A0000A0000B00
2900000A0000A0000A10
0B013205021140000B00
05CB89BBB9ACBBBBA700
00000000000000003000
ENDCHAR
STARTCHAR emdash
ENCODING 8212
SWIDTH 726 0
DWIDTH 23 0
BBX 23 7 0 7
BITMAP
02A732125410025510001100
0B247998AAAAA98DABBBAB00
290000006400000B00000840
390000007300000A00000660
0B0012206001101500000840
05CB989BBBBAABBBBBBB9B00
000000000000000000002100
ENDCHAR
STARTCHAR quoteleft
ENCODING 8216
SWIDTH 291 0
DWIDTH 9 0
BBX 10 14 0 10
BITMAP
0000476100
0003B57D50
00047001C2
00084000B2
002B000760
00C9300B00
01C59A2A00
0470015800
092000B100
3A00056000
C1000A2000
A4000B0000
2C856C0000
0047510000
ENDCHAR
STARTCHAR quoteright
ENCODING 8217
SWIDTH 291 0
DWIDTH 9 0
BBX 10 14 0 10
BITMAP
0000476100
0003B57D50
00047001C2
00084000B2
002B000760
00C9300B00
01C59A2A00
0470015800
092000B100
3A00056000
C1000A2000
A4000B0000
2C856C0000
0047510000
ENDCHAR
STARTCHAR quotesinglbase
ENCODING 8218
SWIDTH 228 0
DWIDTH 7 0
BBX 8 10 -1 -5
BITMAP
00013100
000A8C80
002A00A5
00A2001B
08600097
96000960
B0005800
6600B000
09A97000
00220000
ENDCHAR
STARTCHAR quotedblleft
ENCODING 8220
SWIDTH 532 0
DWIDTH 17 0
BBX 17 14 0 10
BITMAP
000047610001674000
0003B57D5008859C20
00047001C2092004B0
00084000B20C0003B0
002B00076067000B10
00C9300B02E6203900
01C59A2A0686A76600
047001580920029300
092000B11B00039000
3A00056085000A2000
C1000A22B0000B0000
A4000B01C100290000
2C856C005C75970000
004751000167400000
ENDCHAR
STARTCHAR quotedblright
ENCODING 8221
SWIDTH 532 0
DWIDTH 17 0
BBX 17 14 0 10
BITMAP
000047610001674000
0003B57D5008859C20
00047001C2092004B0
00084000B20C0003B0
002B00076067000B10
00C9300B02E6203900
01C59A2A0686A76600
047001580920029300
092000B11B00039000
3A00056085000A2000
C1000A22B0000B0000
A4000B01C100290000
2C856C004C75970000
004751000167400000
ENDCHAR
STARTCHAR quotedblbase
ENCODING 8222
SWIDTH 448 0
DWIDTH 14 0
BBX 15 10 -1 -5
BITMAP
0001310000131000
000A8C800099C800
002A00A502A00960
00A2001B0A2001B0
0860009786000870
9600096870008600
B000580A00049000
6600B006700B1000
09A970009A970000
0022000001200000
ENDCHAR
STARTCHAR dagger
ENCODING 8224
SWIDTH 453 0
DWIDTH 15 0
BBX 14 27 0 -2
BITMAP
00000046400000
00002CA8AC1000
00006700077000
00003900084000
00002B000B1000
02843B000C0350
0C47AA000DB9A5
480048000C001B
670078651A200C
4900AB7768302A
0B68D4000BBAB4
017367000C0240
000048000C0000
000048000B0000
000057000C0000
000066000B1000
00009BA8484000
00009734593000
000066000C0000
000057000C0000
000056001B0000
000075000C0000
000083000C0000
0000C0000B1000
0000D0000A4000
00007C66AA0000
00000377400000
ENDCHAR
STARTCHAR daggerdbl
ENCODING 8225
SWIDTH 462 0
DWIDTH 15 0
BBX 14 27 0 -2
BITMAP
00000036400000
00001BB8AC3000
0000490004A000
00001B00067000
00000C00094000
01853C000A2260
0B568C000BBA98
2A001B000A200C
39005A6628400C
1B008C7786600C
0978C60008CAA6
007449000B1140
00002A000C0000
00001B000B0000
00002A000B1000
00004800093000
01858CA9566260
0B57B93467C988
2A0048000A200C
390039000C000C
1B0039000C000C
0979C8000DBBA6
006366000C0140
0000A200093000
0000C100076000
00005C769C1000
00000278500000
ENDCHAR
STARTCHAR bullet
ENCODING 8226
SWIDTH 275 0
DWIDTH 9 0
BBX 6 6 1 9
BITMAP
002420
1A97A9
0B000B
0B0019
0C102B
04ABA2
ENDCHAR
STARTCHAR ellipsis
ENCODING 8230
SWIDTH 605 0
DWIDTH 19 0
BBX 19 6 0 -1
BITMAP
049A71017A830049A600
3B215A0B412B24A11690
0A003708200B01900460
0B004608300B01A00560
1B549608846B02B54A50
01563000365100166300
ENDCHAR
STARTCHAR perthousand
ENCODING 8240
SWIDTH 1249 0
DWIDTH 40 0
BBX 40 23 0 0
BITMAP
0011000000000000000000000000000000000000
02A88888A3000014300000000000000000000000
07A820001B3000B56A2000000000000000000000
1A22A1000AA20090029000000000000000000000
0900988666810180073000000000000000000000
08009009509004600A0000000000000000000000
0800900800900820190000000000000000000000
0800900800900A00360000000000000000000000
0805900800905B87450000000000000000000000
1885788900816401740000000000000000000000
3590001800637300A02741001100006621002000
1AC0000A76A1910280A257887A00056368888500
00698889BC10A00554C9910007B20BA960000D70
0000000011028007290037000829270090001982
000000000007B72828104A8998260800A88AA290
0000000000090269171054044035080090080090
000000000009001A071063044045080090080090
0000000000090065071063053045080090080090
00000000003700910808B84820361839C5380090
00000000009100A00955034B001836A014580081
0000000000A000A00A820009101955A000270083
00000000004A789003B601249AB208C012289C60
0000000000002200000787678A20002986679700
ENDCHAR
STARTCHAR guilsinglleft
ENCODING 8249
SWIDTH 359 0
DWIDTH 12 0
BBX 11 15 0 4
BITMAP
000000062000
000000A7B700
00001A500B30
0005B3000470
05B700001870
2A100006B400
390000A70000
0D201C600000
2BC7A5B20000
2A15301A6000
06B400007B20
000890000650
00004B100B30
000003A29900
0000004A5000
ENDCHAR
ENDFONT
